STARTFONT 2.1
FONT -FontForge-Cambria-Bold-R-Normal--38-360-75-75-P-212-ISO10646-1
SIZE 36 75 75
FONTBOUNDINGBOX 93 52 -42 -12
COMMENT "Generated by fontforge, http://fontforge.sourceforge.net"
COMMENT "(c) 2017 Microsoft Corporation. All rights reserved."
STARTPROPERTIES 40
FOUNDRY "FontForge"
FAMILY_NAME "Cambria"
WEIGHT_NAME "Bold"
SLANT "R"
SETWIDTH_NAME "Normal"
ADD_STYLE_NAME ""
PIXEL_SIZE 38
POINT_SIZE 360
RESOLUTION_X 75
RESOLUTION_Y 75
SPACING "P"
AVERAGE_WIDTH 212
CHARSET_REGISTRY "ISO10646"
CHARSET_ENCODING "1"
FONTNAME_REGISTRY ""
CHARSET_COLLECTIONS "ISO8859-5 ISO8859-7 ISO10646-1"
FONT_NAME "Cambria-Bold"
FACE_NAME "Cambria Bold"
COPYRIGHT "(c) 2017 Microsoft Corporation. All rights reserved."
FONT_VERSION "6.98"
FONT_ASCENT 30
FONT_DESCENT 8
UNDERLINE_POSITION -3
UNDERLINE_THICKNESS 3
X_HEIGHT 18
CAP_HEIGHT 25
DEFAULT_CHAR 1
RAW_ASCENT 777
RAW_DESCENT 222
NORM_SPACE 8
RELATIVE_WEIGHT 70
RELATIVE_SETWIDTH 50
SUPERSCRIPT_X 0
SUPERSCRIPT_Y 9
SUPERSCRIPT_SIZE 24
SUBSCRIPT_X 0
SUBSCRIPT_Y 2
SUBSCRIPT_SIZE 24
AVG_LOWERCASE_WIDTH 218
AVG_UPPERCASE_WIDTH 260
ENDPROPERTIES
CHARS 3587
STARTCHAR glyph1.dup1
ENCODING 0
SWIDTH 0 0
DWIDTH 0 0
BBX 1 1 0 0
BITMAP
00
ENDCHAR
STARTCHAR uni0009
ENCODING 9
SWIDTH 220 0
DWIDTH 8 0
BBX 1 1 0 0
BITMAP
00
ENDCHAR
STARTCHAR uni0009.dup2
ENCODING 13
SWIDTH 220 0
DWIDTH 8 0
BBX 1 1 0 0
BITMAP
00
ENDCHAR
STARTCHAR uni0009.dup3
ENCODING 32
SWIDTH 220 0
DWIDTH 8 0
BBX 1 1 0 0
BITMAP
00
ENDCHAR
STARTCHAR exclam
ENCODING 33
SWIDTH 334 0
DWIDTH 13 0
BBX 7 26 3 0
BITMAP
FE
FE
FE
FE
FE
7C
7C
7C
7C
7C
7C
7C
7C
7C
78
78
38
00
00
00
7C
7C
7C
7C
7C
7C
ENDCHAR
STARTCHAR quotedbl
ENCODING 34
SWIDTH 422 0
DWIDTH 16 0
BBX 12 9 2 18
BITMAP
F9F0
F9F0
F9F0
F1E0
F1E0
F1E0
70E0
70E0
70E0
ENDCHAR
STARTCHAR numbersign
ENCODING 35
SWIDTH 617 0
DWIDTH 23 0
BBX 19 26 2 0
BITMAP
038380
038380
038380
070700
070700
070700
070700
7FFFE0
7FFFE0
7FFFE0
0E0E00
0E0E00
0E0E00
0E0E00
0E0E00
FFFFC0
FFFFC0
FFFFC0
1C1C00
1C1C00
1C1C00
1C1C00
1C1C00
383800
383800
383800
ENDCHAR
STARTCHAR dollar
ENCODING 36
SWIDTH 542 0
DWIDTH 21 0
BBX 17 32 2 -3
BITMAP
00C000
00C000
00C000
03FE00
1FFF00
3CCF00
78CF00
F0C700
F0C000
F0C000
F8C000
FCC000
7FC000
7FC000
3FF000
1FFC00
07FE00
01FF00
00FF00
00DF80
00CF80
00C780
00C780
E0C780
E0C780
F0CF00
F8DE00
FFFC00
1FF000
00C000
00C000
00C000
ENDCHAR
STARTCHAR percent
ENCODING 37
SWIDTH 975 0
DWIDTH 37 0
BBX 33 28 2 -2
BITMAP
0F8003C000
3FE0038000
78F0078000
78F0070000
F0780F0000
F0780E0000
F0781C0000
F0783C0000
F078380000
F078780000
F078700000
F078F00000
78F0E0F800
78F1C3FE00
3FE1C78F00
1F83878F00
00078F0780
00070F0780
000F0F0780
000E0F0780
001E0F0780
001C0F0780
00380F0780
00380F0780
0070078F00
00F0078F00
00E003FE00
01E001F800
ENDCHAR
STARTCHAR ampersand
ENCODING 38
SWIDTH 739 0
DWIDTH 28 0
BBX 26 26 2 0
BITMAP
007F0000
01FFC000
03E3C000
07C1E000
0FC1E000
0FC1E000
0FC1E000
0FC3C000
0FE78000
07EF0000
07FE0000
03F83F00
03FC0F00
0FFC0F00
1FFE0E00
3E7F0E00
7C7F9E00
7C3FDC00
FC1FF800
FC0FF000
FC07F000
FE03F800
FF07FC80
7FFFFFC0
3FFC7F80
0FF03E00
ENDCHAR
STARTCHAR quotesingle
ENCODING 39
SWIDTH 251 0
DWIDTH 10 0
BBX 5 9 2 18
BITMAP
F8
F8
F8
F0
F0
70
70
70
70
ENDCHAR
STARTCHAR parenleft
ENCODING 40
SWIDTH 408 0
DWIDTH 16 0
BBX 12 35 3 -8
BITMAP
00F0
07F0
0F80
1F00
3E00
3E00
7E00
7E00
7C00
FC00
FC00
FC00
FC00
FC00
FC00
FC00
FC00
FC00
FC00
FC00
FC00
FC00
FC00
FC00
FC00
FC00
7E00
7E00
7E00
3E00
3F00
1F00
0F80
07F0
01F0
ENDCHAR
STARTCHAR parenright
ENCODING 41
SWIDTH 408 0
DWIDTH 16 0
BBX 12 35 1 -8
BITMAP
F800
FE00
1F00
0F80
0FC0
07C0
07E0
07E0
07E0
03F0
03F0
03F0
03F0
03F0
03F0
03F0
03F0
03F0
03F0
03F0
03F0
03F0
03F0
03F0
03F0
03E0
03E0
07E0
07E0
07C0
07C0
0F80
1F00
FE00
F800
ENDCHAR
STARTCHAR asterisk
ENCODING 42
SWIDTH 452 0
DWIDTH 17 0
BBX 16 15 1 12
BITMAP
03C0
03C0
23C4
718E
F99F
7DBE
1FF8
03C0
1FF8
FDBF
718E
2184
03C0
03C0
03C0
ENDCHAR
STARTCHAR plus
ENCODING 43
SWIDTH 592 0
DWIDTH 23 0
BBX 18 18 2 2
BITMAP
01E000
01E000
01E000
01E000
01E000
01E000
01E000
FFFFC0
FFFFC0
FFFFC0
FFFFC0
01E000
01E000
01E000
01E000
01E000
01E000
01E000
ENDCHAR
STARTCHAR comma
ENCODING 44
SWIDTH 231 0
DWIDTH 9 0
BBX 7 11 1 -5
BITMAP
3E
3E
3E
3E
3E
3E
3C
7C
78
F0
40
ENDCHAR
STARTCHAR hyphen
ENCODING 45
SWIDTH 336 0
DWIDTH 13 0
BBX 9 4 2 8
BITMAP
FF80
FF80
FF80
FF80
ENDCHAR
STARTCHAR period
ENCODING 46
SWIDTH 231 0
DWIDTH 9 0
BBX 5 6 2 0
BITMAP
F8
F8
F8
F8
F8
F8
ENDCHAR
STARTCHAR slash
ENCODING 47
SWIDTH 505 0
DWIDTH 19 0
BBX 17 35 1 -8
BITMAP
000780
000700
000F00
000F00
000E00
001E00
001E00
001C00
003C00
003800
007800
007800
007000
00F000
00E000
01E000
01E000
01C000
03C000
03C000
038000
078000
070000
0F0000
0F0000
0E0000
1E0000
1E0000
3C0000
3C0000
380000
780000
780000
700000
F00000
ENDCHAR
STARTCHAR zero
ENCODING 48
SWIDTH 592 0
DWIDTH 23 0
BBX 18 26 2 0
BITMAP
03F000
0FFC00
1FFE00
3FFF00
7F3F80
7C0F80
F807C0
F807C0
F807C0
F807C0
F807C0
F807C0
F807C0
F807C0
F807C0
F807C0
F807C0
F807C0
F807C0
F807C0
7C0F80
7F3F80
3FFF00
1FFE00
0FFC00
03F000
ENDCHAR
STARTCHAR one
ENCODING 49
SWIDTH 592 0
DWIDTH 23 0
BBX 15 26 4 0
BITMAP
03C0
03C0
07C0
0FC0
3FC0
FFC0
FFC0
FFC0
FFC0
07C0
07C0
07C0
07C0
07C0
07C0
07C0
07C0
07C0
07C0
07C0
07C0
07C0
FFFE
FFFE
FFFE
FFFE
ENDCHAR
STARTCHAR two
ENCODING 50
SWIDTH 592 0
DWIDTH 23 0
BBX 18 26 2 0
BITMAP
07F800
3FFE00
7FFF00
7FFF80
F81F80
F80FC0
F807C0
0007C0
000FC0
001F80
003F80
003F00
007E00
00FC00
00FC00
01F800
03F000
07E000
0FC000
1F8000
3F0000
7E0000
FFFFC0
FFFFC0
FFFFC0
FFFFC0
ENDCHAR
STARTCHAR three
ENCODING 51
SWIDTH 592 0
DWIDTH 23 0
BBX 18 26 1 0
BITMAP
03F800
1FFE00
3FFF00
3FFF80
7E1F80
FC0FC0
F807C0
0007C0
0007C0
000F80
001F80
01FE00
01F800
01FE00
01FF80
001F80
000FC0
0007C0
0007C0
F807C0
FC0FC0
7E1F80
3FFF80
3FFF00
1FFE00
03F800
ENDCHAR
STARTCHAR four
ENCODING 52
SWIDTH 592 0
DWIDTH 23 0
BBX 18 26 2 0
BITMAP
01FE00
03FE00
03FE00
07FE00
07FE00
0FBE00
0FBE00
1F3E00
1F3E00
3E3E00
3E3E00
7C3E00
7C3E00
F83E00
F83E00
F03E00
FFFFC0
FFFFC0
FFFFC0
FFFFC0
003E00
003E00
003E00
003E00
003E00
003E00
ENDCHAR
STARTCHAR five
ENCODING 53
SWIDTH 592 0
DWIDTH 23 0
BBX 18 26 2 0
BITMAP
1FFFC0
1FFFC0
1FFFC0
1FFFC0
3E0000
3E0000
3E0000
3C0000
3C0000
3CF800
7FFE00
7FFF80
7FFF80
7E1F80
7C0FC0
0007C0
0007C0
0007C0
0007C0
F807C0
FC0FC0
FE1F80
7FFF80
7FFF00
3FFE00
07F800
ENDCHAR
STARTCHAR six
ENCODING 54
SWIDTH 592 0
DWIDTH 23 0
BBX 18 26 2 0
BITMAP
07F800
1FFE00
3FFF00
7FFF80
7E1F80
FC0FC0
F80FC0
F80000
F80000
FC0000
FFF800
FFFE00
FFFF00
FFFF80
FE1F80
FC0FC0
F807C0
F807C0
F807C0
F807C0
FC0FC0
7E1F80
7FFF80
3FFF00
1FFE00
07F800
ENDCHAR
STARTCHAR seven
ENCODING 55
SWIDTH 592 0
DWIDTH 23 0
BBX 18 26 2 0
BITMAP
FFFFC0
FFFFC0
FFFFC0
FFFFC0
000F80
001F00
003E00
007C00
007C00
00F800
00F800
01F000
01F000
01E000
03E000
03E000
03C000
07C000
07C000
07C000
078000
0F8000
0F8000
0F8000
0F8000
0F8000
ENDCHAR
STARTCHAR eight
ENCODING 56
SWIDTH 592 0
DWIDTH 23 0
BBX 18 26 2 0
BITMAP
07F800
1FFE00
3FFF00
7FFF80
7E1F80
FC0FC0
F807C0
F807C0
F807C0
7C0F80
7E1F80
1FFE00
07F800
1FFE00
7FFF80
7E1F80
FC0FC0
F807C0
F807C0
F807C0
FC0FC0
7E1F80
7FFF80
3FFF00
1FFE00
07F800
ENDCHAR
STARTCHAR nine
ENCODING 57
SWIDTH 592 0
DWIDTH 23 0
BBX 18 26 2 0
BITMAP
07F800
1FFE00
3FFF00
7FFF80
7E1F80
FC0FC0
F807C0
F807C0
F807C0
F807C0
FC0FC0
7E1FC0
7FFFC0
3FFFC0
1FFFC0
07FFC0
000FC0
0007C0
0007C0
FC07C0
FC0FC0
7E1F80
7FFF80
3FFF00
1FFE00
07F800
ENDCHAR
STARTCHAR colon
ENCODING 58
SWIDTH 279 0
DWIDTH 11 0
BBX 5 18 3 0
BITMAP
F8
F8
F8
F8
F8
F8
00
00
00
00
00
00
F8
F8
F8
F8
F8
F8
ENDCHAR
STARTCHAR semicolon
ENCODING 59
SWIDTH 279 0
DWIDTH 11 0
BBX 7 23 1 -5
BITMAP
3E
3E
3E
3E
3E
3E
00
00
00
00
00
00
3E
3E
3E
3E
3E
3E
3C
7C
78
F0
40
ENDCHAR
STARTCHAR less
ENCODING 60
SWIDTH 592 0
DWIDTH 23 0
BBX 19 17 2 2
BITMAP
0000E0
0003E0
001FE0
00FFE0
07FF00
1FF800
FFC000
FE0000
F00000
FE0000
FFC000
1FF800
07FF00
00FFE0
001FE0
0003E0
0000E0
ENDCHAR
STARTCHAR equal
ENCODING 61
SWIDTH 592 0
DWIDTH 23 0
BBX 17 12 3 5
BITMAP
FFFF80
FFFF80
FFFF80
FFFF80
000000
000000
000000
000000
FFFF80
FFFF80
FFFF80
FFFF80
ENDCHAR
STARTCHAR greater
ENCODING 62
SWIDTH 592 0
DWIDTH 23 0
BBX 19 17 2 2
BITMAP
E00000
F80000
FF0000
FFE000
1FFC00
03FF00
007FE0
000FE0
0001E0
000FE0
007FE0
03FF00
1FFC00
FFE000
FF0000
F80000
E00000
ENDCHAR
STARTCHAR question
ENCODING 63
SWIDTH 451 0
DWIDTH 17 0
BBX 14 26 2 0
BITMAP
1FE0
7FF0
F0F8
E07C
E07C
007C
007C
007C
00F8
00F0
01E0
01C0
0380
0700
0700
0E00
0E00
0000
0000
0000
1F00
1F00
1F00
1F00
1F00
1F00
ENDCHAR
STARTCHAR at
ENCODING 64
SWIDTH 921 0
DWIDTH 35 0
BBX 31 29 2 -3
BITMAP
0007FC00
007FFF80
01F807E0
03E001F0
078000F8
0F000078
1E03F73C
3C0FFF3C
3C1F1F3E
783C1E1E
783C1E1E
78781E1E
F0781E1E
F0783E1E
F0F03C1E
F0F03C1E
F0F07C1C
F0F07C3C
F0F0FC3C
F0F1BC78
78FFBCF0
787F1FE0
783C0F80
3C000000
3E000000
1F000000
07E01800
03FFF800
007FE000
ENDCHAR
STARTCHAR A
ENCODING 65
SWIDTH 651 0
DWIDTH 25 0
BBX 25 26 0 0
BITMAP
001F0000
003F0000
003F8000
003F8000
007F8000
007FC000
006FC000
00E7C000
00E7C000
01C7E000
01C7E000
01C3E000
0383F000
0383F000
0381F000
0701F800
07FFF800
07FFF800
0E00F800
0E00FC00
1C00FC00
1C00FC00
1C007E00
3C007E00
7E00FF00
FF01FF80
ENDCHAR
STARTCHAR B
ENCODING 66
SWIDTH 651 0
DWIDTH 25 0
BBX 22 26 2 0
BITMAP
FFFFC0
7FFFF0
3F03F8
3F01FC
3F00FC
3F00FC
3F00FC
3F00FC
3F00F8
3F01F8
3F01F0
3F07C0
3FFF80
3FFFE0
3F03F0
3F01F8
3F00FC
3F00FC
3F00FC
3F00FC
3F00FC
3F00FC
3F01F8
3F03F0
7FFFE0
FFFF80
ENDCHAR
STARTCHAR C
ENCODING 67
SWIDTH 573 0
DWIDTH 22 0
BBX 18 26 2 0
BITMAP
00FF80
03FFC0
0F87C0
1F03C0
3F01C0
3E01C0
7E0000
7E0000
7C0000
FC0000
FC0000
FC0000
FC0000
FC0000
FC0000
FC0000
FC0000
FC0000
7C0000
7E01C0
7E01C0
3E03C0
3F03C0
1F87C0
0FFFC0
01FF00
ENDCHAR
STARTCHAR D
ENCODING 68
SWIDTH 704 0
DWIDTH 27 0
BBX 23 26 2 0
BITMAP
FFFE00
7FFFC0
3F0FE0
3F03F0
3F01F8
3F00FC
3F00FC
3F00FC
3F007E
3F007E
3F007E
3F007E
3F007E
3F007E
3F007E
3F007E
3F007E
3F007C
3F00FC
3F00FC
3F00F8
3F01F8
3F03F0
3F07E0
7FFF80
FFFC00
ENDCHAR
STARTCHAR E
ENCODING 69
SWIDTH 577 0
DWIDTH 22 0
BBX 18 26 2 0
BITMAP
FFFFC0
7FFFC0
3F07C0
3F03C0
3F01C0
3F01C0
3F0000
3F0000
3F0000
3F0600
3F0600
3F0E00
3FFE00
3FFE00
3F0E00
3F0600
3F0600
3F0000
3F0000
3F01C0
3F01C0
3F03C0
3F03C0
3F07C0
7FFFC0
FFFFC0
ENDCHAR
STARTCHAR F
ENCODING 70
SWIDTH 551 0
DWIDTH 21 0
BBX 18 26 2 0
BITMAP
FFFFC0
7FFFC0
3F07C0
3F03C0
3F03C0
3F01C0
3F0000
3F0000
3F0000
3F0600
3F0600
3F0E00
3FFE00
3FFE00
3F0E00
3F0600
3F0600
3F0000
3F0000
3F0000
3F0000
3F0000
3F0000
3F0000
7F8000
FFC000
ENDCHAR
STARTCHAR G
ENCODING 71
SWIDTH 646 0
DWIDTH 25 0
BBX 22 26 2 0
BITMAP
00FFC0
03FFF0
0FC1F0
1F80F0
3F00F0
3E0070
7E0000
7E0000
7C0000
FC0000
FC0000
FC0000
FC0000
FC0000
FC0FFC
FC07F8
FC03F0
FC03F0
7C03F0
7E03F0
7E03F0
3E03F0
3F03F0
1F87F0
07FFF0
01FC70
ENDCHAR
STARTCHAR H
ENCODING 72
SWIDTH 721 0
DWIDTH 27 0
BBX 24 26 2 0
BITMAP
FFC3FF
7F81FE
3F00FC
3F00FC
3F00FC
3F00FC
3F00FC
3F00FC
3F00FC
3F00FC
3F00FC
3F00FC
3FFFFC
3FFFFC
3F00FC
3F00FC
3F00FC
3F00FC
3F00FC
3F00FC
3F00FC
3F00FC
3F00FC
3F00FC
7F81FE
FFC3FF
ENDCHAR
STARTCHAR I
ENCODING 73
SWIDTH 349 0
DWIDTH 13 0
BBX 10 26 2 0
BITMAP
FFC0
7F80
3F00
3F00
3F00
3F00
3F00
3F00
3F00
3F00
3F00
3F00
3F00
3F00
3F00
3F00
3F00
3F00
3F00
3F00
3F00
3F00
3F00
3F00
7F80
FFC0
ENDCHAR
STARTCHAR J
ENCODING 74
SWIDTH 340 0
DWIDTH 13 0
BBX 11 33 1 -7
BITMAP
7FE0
3FC0
1F80
1F80
1F80
1F80
1F80
1F80
1F80
1F80
1F80
1F80
1F80
1F80
1F80
1F80
1F80
1F80
1F80
1F80
1F80
1F80
1F80
1F80
1F80
1F80
1F80
1F00
1F00
3E00
7C00
F800
4000
ENDCHAR
STARTCHAR K
ENCODING 75
SWIDTH 681 0
DWIDTH 26 0
BBX 24 26 2 0
BITMAP
FFC3FE
7F81FC
3F01F8
3F01F0
3F01E0
3F03C0
3F03C0
3F0780
3F0F00
3F0E00
3F1E00
3F3C00
3FFE00
3FFF00
3F3F00
3F3F80
3F1F80
3F0FC0
3F0FE0
3F07E0
3F07F0
3F03F8
3F03F8
3F01FC
7F81FE
FFC3FF
ENDCHAR
STARTCHAR L
ENCODING 76
SWIDTH 550 0
DWIDTH 21 0
BBX 18 26 2 0
BITMAP
FFC000
7F8000
3F0000
3F0000
3F0000
3F0000
3F0000
3F0000
3F0000
3F0000
3F0000
3F0000
3F0000
3F0000
3F0000
3F0000
3F0000
3F0000
3F01C0
3F01C0
3F03C0
3F03C0
3F03C0
3F07C0
7FFFC0
FFFFC0
ENDCHAR
STARTCHAR M
ENCODING 77
SWIDTH 846 0
DWIDTH 32 0
BBX 29 26 2 0
BITMAP
FF800FF8
7FC01FF0
3FC01FE0
3FC01FE0
3FE03FE0
3FE03FE0
3BE037E0
3BF077E0
3BF077E0
39F0E7E0
39F8E7E0
39F8E7E0
38F9C7E0
38FDC7E0
38FD87E0
387F87E0
387F87E0
387F07E0
383F07E0
383F07E0
383E07E0
381E07E0
381E07E0
380007E0
7C000FF0
FE001FF8
ENDCHAR
STARTCHAR N
ENCODING 78
SWIDTH 679 0
DWIDTH 26 0
BBX 22 26 2 0
BITMAP
FF01FC
7F00F8
3F8070
3F8070
3FC070
3FC070
3FE070
3FF070
3BF070
3BF870
39F870
38FC70
38FC70
387E70
387E70
383F70
383F70
381FF0
381FF0
380FF0
380FF0
3807F0
3807F0
3803F0
7C01F0
FE01F0
ENDCHAR
STARTCHAR O
ENCODING 79
SWIDTH 695 0
DWIDTH 26 0
BBX 22 26 2 0
BITMAP
00FE00
07FF80
0F87E0
1F03E0
3E01F0
3E01F8
7E01F8
7C00F8
FC00FC
FC00FC
FC00FC
FC00FC
FC00FC
FC00FC
FC00FC
FC00FC
FC00FC
FC00FC
7C00F8
7E01F8
7E01F8
3E01F0
3F03E0
1F87C0
07FF80
01FC00
ENDCHAR
STARTCHAR P
ENCODING 80
SWIDTH 613 0
DWIDTH 23 0
BBX 20 26 2 0
BITMAP
FFFE00
7FFF80
3F0FE0
3F07E0
3F03F0
3F03F0
3F03F0
3F03F0
3F03F0
3F03F0
3F03E0
3F07E0
3F0FC0
3FFF80
3FFE00
3F0000
3F0000
3F0000
3F0000
3F0000
3F0000
3F0000
3F0000
3F0000
7F8000
FFC000
ENDCHAR
STARTCHAR Q
ENCODING 81
SWIDTH 695 0
DWIDTH 26 0
BBX 23 33 2 -7
BITMAP
00FE00
07FF80
0F87E0
1F03E0
3E01F0
3E01F8
7E01F8
7C00F8
FC00FC
FC00FC
FC00FC
FC00FC
FC00FC
FC00FC
FC00FC
FC00FC
FC00FC
FC00FC
7C00F8
7E01F8
7E01F8
3E01F0
3F03E0
1F87C0
07FF80
01FE00
007E00
003F00
001F80
001FC4
000FFE
0007FC
0003F0
ENDCHAR
STARTCHAR R
ENCODING 82
SWIDTH 661 0
DWIDTH 25 0
BBX 23 26 2 0
BITMAP
FFFE00
7FFF80
3F0FE0
3F07E0
3F03F0
3F03F0
3F03F0
3F03F0
3F03F0
3F03F0
3F03E0
3F07E0
3F0FC0
3FFF00
3FFE00
3F1F80
3F1FC0
3F0FC0
3F0FE0
3F07E0
3F07E0
3F03F0
3F03F0
3F03F8
7F81FC
FFC0FE
ENDCHAR
STARTCHAR S
ENCODING 83
SWIDTH 513 0
DWIDTH 20 0
BBX 16 26 2 0
BITMAP
07FE
1FFF
3E1F
7C0F
F807
F807
F800
FC00
FC00
FF00
7FC0
3FE0
1FF8
0FFC
03FE
01FE
007F
003F
001F
E01F
E01F
F01E
F03E
F87C
FFF8
3FE0
ENDCHAR
STARTCHAR T
ENCODING 84
SWIDTH 639 0
DWIDTH 24 0
BBX 22 26 1 0
BITMAP
FFFFFC
FFFFFC
F8FC7C
F0FC3C
F0FC3C
E0FC1C
E0FC1C
00FC00
00FC00
00FC00
00FC00
00FC00
00FC00
00FC00
00FC00
00FC00
00FC00
00FC00
00FC00
00FC00
00FC00
00FC00
00FC00
00FC00
01FE00
03FF00
ENDCHAR
STARTCHAR U
ENCODING 85
SWIDTH 676 0
DWIDTH 26 0
BBX 23 26 1 0
BITMAP
FFC1FE
7F80FC
3F0078
3F0078
3F0078
3F0078
3F0078
3F0078
3F0078
3F0078
3F0078
3F0078
3F0078
3F0078
3F0078
3F0078
3F0078
3F0078
3F0078
3F0078
3F0078
1F80F0
1F80F0
0FC1E0
07FFC0
00FF00
ENDCHAR
STARTCHAR V
ENCODING 86
SWIDTH 634 0
DWIDTH 24 0
BBX 24 26 0 0
BITMAP
FFC0FF
7F807E
3F003C
3F0038
1F8038
1F8078
1F8070
0F8070
0FC0F0
0FC0E0
0FC0E0
07C1C0
07E1C0
07E1C0
03E380
03E380
03F380
03F700
01F700
01FF00
01FE00
00FE00
00FC00
00FC00
00FC00
007800
ENDCHAR
STARTCHAR W
ENCODING 87
SWIDTH 961 0
DWIDTH 37 0
BBX 36 26 1 0
BITMAP
FFC0780FF0
7F807C03E0
3F00FC03C0
3F00FC03C0
3F00FC0380
1F00FE0380
1F81FE0780
1F81FE0700
1F81BE0700
0F81BE0700
0FC3BF0E00
0FC3BF0E00
0FC31F0E00
07C71F1C00
07E71F9C00
07E71F9C00
03E60FB800
03EE0FB800
03FE0FB800
03FC0FF000
01FC0FF000
01FC07F000
01FC07E000
01F807E000
00F807E000
00F803C000
ENDCHAR
STARTCHAR X
ENCODING 88
SWIDTH 618 0
DWIDTH 24 0
BBX 24 26 0 0
BITMAP
7FE1FE
3FC0FC
1FC078
0FC070
0FC0F0
07E0E0
07F1C0
03F380
01FB80
01FF00
00FE00
00FE00
007E00
003F00
007F80
00FF80
00FFC0
01CFC0
0387E0
0707F0
0703F0
0E01F8
1C01F8
3C01FC
7E01FE
FF03FF
ENDCHAR
STARTCHAR Y
ENCODING 89
SWIDTH 604 0
DWIDTH 23 0
BBX 23 26 0 0
BITMAP
FFC0FE
7F807C
3F0078
3F8070
1F8070
1F80E0
0FC0E0
0FC1C0
07E1C0
07E380
03F380
03F700
03FF00
01FE00
01FE00
00FC00
00FC00
00FC00
00FC00
00FC00
00FC00
00FC00
00FC00
00FC00
01FE00
03FF00
ENDCHAR
STARTCHAR Z
ENCODING 90
SWIDTH 566 0
DWIDTH 22 0
BBX 19 26 1 0
BITMAP
FFFFE0
FFFFE0
F80FC0
F01FC0
F01F80
E03F80
E03F00
007F00
007E00
00FE00
00FC00
01F800
01F800
03F000
03F000
07E000
0FE000
0FC000
1FC000
1F80E0
3F80E0
3F01E0
7F01E0
7E03E0
FFFFE0
FFFFE0
ENDCHAR
STARTCHAR bracketleft
ENCODING 91
SWIDTH 367 0
DWIDTH 14 0
BBX 9 35 4 -8
BITMAP
FF80
FF80
F800
F800
F800
F800
F800
F800
F800
F800
F800
F800
F800
F800
F800
F800
F800
F800
F800
F800
F800
F800
F800
F800
F800
F800
F800
F800
F800
F800
F800
F800
F800
FF80
FF80
ENDCHAR
STARTCHAR backslash
ENCODING 92
SWIDTH 505 0
DWIDTH 19 0
BBX 17 35 1 -8
BITMAP
F00000
700000
780000
780000
380000
3C0000
3C0000
1C0000
1E0000
0E0000
0F0000
0F0000
070000
078000
038000
03C000
03C000
01C000
01E000
01E000
00E000
00F000
007000
007800
007800
003800
003C00
003C00
001E00
001E00
000E00
000F00
000F00
000700
000780
ENDCHAR
STARTCHAR bracketright
ENCODING 93
SWIDTH 367 0
DWIDTH 14 0
BBX 9 35 1 -8
BITMAP
FF80
FF80
0F80
0F80
0F80
0F80
0F80
0F80
0F80
0F80
0F80
0F80
0F80
0F80
0F80
0F80
0F80
0F80
0F80
0F80
0F80
0F80
0F80
0F80
0F80
0F80
0F80
0F80
0F80
0F80
0F80
0F80
0F80
FF80
FF80
ENDCHAR
STARTCHAR asciicircum
ENCODING 94
SWIDTH 592 0
DWIDTH 23 0
BBX 17 13 3 13
BITMAP
03E000
03E000
07F000
07F000
0F7800
0F7800
1E3C00
1E3C00
3C1E00
3C1E00
780F00
780F00
F00F80
ENDCHAR
STARTCHAR underscore
ENCODING 95
SWIDTH 370 0
DWIDTH 14 0
BBX 14 3 0 -5
BITMAP
FFFC
FFFC
FFFC
ENDCHAR
STARTCHAR grave
ENCODING 96
SWIDTH 284 0
DWIDTH 11 0
BBX 8 7 1 20
BITMAP
F0
F8
7C
1C
0E
07
02
ENDCHAR
STARTCHAR a
ENCODING 97
SWIDTH 535 0
DWIDTH 20 0
BBX 18 19 1 0
BITMAP
03F800
1FFE00
7E3E00
7C1F00
781F00
781F00
001F00
001F00
01FF00
0FFF00
3F1F00
7C1F00
F81F00
F81F00
F83F00
FC7F00
FFEF00
7FCF80
1F1FC0
ENDCHAR
STARTCHAR b
ENCODING 98
SWIDTH 591 0
DWIDTH 22 0
BBX 19 27 1 0
BITMAP
FE0000
7E0000
3E0000
3E0000
3E0000
3E0000
3E0000
3E0000
3E3E00
3E7F80
3FFF80
3F8FC0
3F07C0
3E07E0
3E03E0
3E03E0
3E03E0
3E03E0
3E03E0
3E03E0
3E03E0
3E03C0
3E07C0
3F07C0
3F0F80
3FFF00
39FC00
ENDCHAR
STARTCHAR c
ENCODING 99
SWIDTH 468 0
DWIDTH 18 0
BBX 15 19 2 0
BITMAP
03FC
0FFE
1E3E
3C1E
7C1E
7800
F800
F800
F800
F800
F800
F800
F800
FC00
7C04
7E1E
3FFC
1FF8
07E0
ENDCHAR
STARTCHAR d
ENCODING 100
SWIDTH 597 0
DWIDTH 23 0
BBX 19 27 2 0
BITMAP
003F80
001F80
000F80
000F80
000F80
000F80
000F80
000F80
07FF80
1FFF80
3E1F80
7C1F80
7C0F80
780F80
F80F80
F80F80
F80F80
F80F80
F80F80
F80F80
F80F80
FC0F80
7C1F80
7E3F80
7FFF80
3FCFC0
0F8FE0
ENDCHAR
STARTCHAR e
ENCODING 101
SWIDTH 530 0
DWIDTH 20 0
BBX 16 19 2 0
BITMAP
07E0
1FF8
3E3C
3C3E
7C1E
781E
F81F
F81F
FFFF
FFFF
F800
F800
F800
FC00
7C02
7E0F
3FFE
1FFC
07F0
ENDCHAR
STARTCHAR f
ENCODING 102
SWIDTH 326 0
DWIDTH 12 0
BBX 13 27 1 0
BITMAP
01F8
07F8
0F78
1E38
3E00
3E00
3E00
3E00
7FC0
FFC0
3E00
3E00
3E00
3E00
3E00
3E00
3E00
3E00
3E00
3E00
3E00
3E00
3E00
3E00
3E00
7F00
FF80
ENDCHAR
STARTCHAR g
ENCODING 103
SWIDTH 520 0
DWIDTH 20 0
BBX 19 27 1 -8
BITMAP
03FFE0
1FFFE0
3E1F00
3C1F00
7C0F80
7C0F80
7C0F80
7C0F80
7C0F80
3E1F00
3E1F00
1FFE00
1FF800
380000
780000
780000
7FFF00
7FFFC0
3FFFE0
3FFFE0
7807E0
F003E0
F003E0
F003C0
FC0FC0
7FFF00
0FFC00
ENDCHAR
STARTCHAR h
ENCODING 104
SWIDTH 596 0
DWIDTH 23 0
BBX 20 27 1 0
BITMAP
FE0000
7E0000
3E0000
3E0000
3E0000
3E0000
3E0000
3E0000
3E3E00
3E7F80
3FFF80
3F8FC0
3F07C0
3E07C0
3E07C0
3E07C0
3E07C0
3E07C0
3E07C0
3E07C0
3E07C0
3E07C0
3E07C0
3E07C0
3E07C0
7F0FE0
FF9FF0
ENDCHAR
STARTCHAR i
ENCODING 105
SWIDTH 314 0
DWIDTH 12 0
BBX 9 26 1 0
BITMAP
3E00
3E00
3E00
3E00
3E00
0000
0000
FE00
7E00
3E00
3E00
3E00
3E00
3E00
3E00
3E00
3E00
3E00
3E00
3E00
3E00
3E00
3E00
3E00
7F00
FF80
ENDCHAR
STARTCHAR j
ENCODING 106
SWIDTH 302 0
DWIDTH 11 0
BBX 8 34 0 -8
BITMAP
1F
1F
1F
1F
1F
00
00
7F
3F
1F
1F
1F
1F
1F
1F
1F
1F
1F
1F
1F
1F
1F
1F
1F
1F
1F
1F
1F
1E
3E
7E
FC
F0
40
ENDCHAR
STARTCHAR k
ENCODING 107
SWIDTH 591 0
DWIDTH 22 0
BBX 21 27 1 0
BITMAP
FE0000
7E0000
3E0000
3E0000
3E0000
3E0000
3E0000
3E0000
3E1FF0
3E0FE0
3E0FC0
3E0F80
3E0F00
3E1E00
3E3C00
3E7800
3FFC00
3FFE00
3E7E00
3E3F00
3E3F00
3E1F80
3E0FC0
3E0FC0
3E07E0
7F07F0
FF8FF8
ENDCHAR
STARTCHAR l
ENCODING 108
SWIDTH 308 0
DWIDTH 12 0
BBX 9 27 1 0
BITMAP
FE00
7E00
3E00
3E00
3E00
3E00
3E00
3E00
3E00
3E00
3E00
3E00
3E00
3E00
3E00
3E00
3E00
3E00
3E00
3E00
3E00
3E00
3E00
3E00
3E00
7F00
FF80
ENDCHAR
STARTCHAR m
ENCODING 109
SWIDTH 890 0
DWIDTH 34 0
BBX 31 19 1 0
BITMAP
FE3E07C0
7E7F8FF0
3FFFBFF0
3F8FF1F8
3F07E0F8
3E07C0F8
3E07C0F8
3E07C0F8
3E07C0F8
3E07C0F8
3E07C0F8
3E07C0F8
3E07C0F8
3E07C0F8
3E07C0F8
3E07C0F8
3E07C0F8
7F0FE1FC
FF9FF3FE
ENDCHAR
STARTCHAR n
ENCODING 110
SWIDTH 603 0
DWIDTH 23 0
BBX 20 19 1 0
BITMAP
FF1F00
7F7F80
3FFF80
3F8FC0
3F07C0
3E07C0
3E07C0
3E07C0
3E07C0
3E07C0
3E07C0
3E07C0
3E07C0
3E07C0
3E07C0
3E07C0
3E07C0
7F0FE0
FF9FF0
ENDCHAR
STARTCHAR o
ENCODING 111
SWIDTH 569 0
DWIDTH 22 0
BBX 18 19 2 0
BITMAP
03F800
0FFE00
3E1F00
3C0F80
7C0F80
7807C0
F807C0
F807C0
F807C0
F807C0
F807C0
F807C0
F807C0
F80780
7C0F80
7C0F00
3E1F00
1FFC00
07F000
ENDCHAR
STARTCHAR p
ENCODING 112
SWIDTH 597 0
DWIDTH 23 0
BBX 19 27 1 -8
BITMAP
FE3E00
7E7F80
3FFF80
3F8FC0
3F07C0
3E07E0
3E03E0
3E03E0
3E03E0
3E03E0
3E03E0
3E03E0
3E03E0
3E03C0
3E07C0
3F07C0
3F0F80
3FFF00
3FFC00
3E0000
3E0000
3E0000
3E0000
3E0000
3E0000
7F0000
FF8000
ENDCHAR
STARTCHAR q
ENCODING 113
SWIDTH 591 0
DWIDTH 22 0
BBX 19 27 2 -8
BITMAP
07F380
1FFF80
3E1F80
7C1F80
7C0F80
780F80
F80F80
F80F80
F80F80
F80F80
F80F80
F80F80
F80F80
FC0F80
7C1F80
7E3F80
7FFF80
3FEF80
0F8F80
000F80
000F80
000F80
000F80
000F80
000F80
001FC0
003FE0
ENDCHAR
STARTCHAR r
ENCODING 114
SWIDTH 461 0
DWIDTH 18 0
BBX 16 19 1 0
BITMAP
FE1F
7E7F
3FFF
3F8F
3F07
3E00
3E00
3E00
3E00
3E00
3E00
3E00
3E00
3E00
3E00
3E00
3E00
7F00
FF80
ENDCHAR
STARTCHAR s
ENCODING 115
SWIDTH 458 0
DWIDTH 17 0
BBX 14 19 2 0
BITMAP
0FF8
3FFC
7C3C
F81C
F80C
F800
FE00
7F80
7FE0
1FF0
07F8
01FC
00FC
007C
C07C
E07C
F0F8
FFF0
7FC0
ENDCHAR
STARTCHAR t
ENCODING 116
SWIDTH 365 0
DWIDTH 14 0
BBX 13 24 1 0
BITMAP
1E00
1E00
1E00
1E00
3E00
7FF0
FFF0
3E00
3E00
3E00
3E00
3E00
3E00
3E00
3E00
3E00
3E00
3E00
3E00
3E00
3F10
1FF8
1FF0
07C0
ENDCHAR
STARTCHAR u
ENCODING 117
SWIDTH 597 0
DWIDTH 23 0
BBX 20 19 1 0
BITMAP
FE1FC0
7E0FC0
3E07C0
3E07C0
3E07C0
3E07C0
3E07C0
3E07C0
3E07C0
3E07C0
3E07C0
3E07C0
3E07C0
3E07C0
3E0FC0
3F1FC0
1FFFC0
1FE7E0
07C7F0
ENDCHAR
STARTCHAR v
ENCODING 118
SWIDTH 530 0
DWIDTH 20 0
BBX 20 19 0 0
BITMAP
FF87F0
7F03E0
3F03C0
3F03C0
3F0380
1F0380
1F0300
1F8700
0F8700
0F8E00
07CE00
07CC00
07DC00
03F800
03F800
03F000
01F000
01F000
01E000
ENDCHAR
STARTCHAR w
ENCODING 119
SWIDTH 798 0
DWIDTH 30 0
BBX 29 19 1 0
BITMAP
FF83C3F8
7F03C1F0
7E07C0E0
3E07C0E0
3F07E0E0
3F0FE1C0
1F0FE1C0
1F0FE180
1F9DF380
0F99F380
0F99F300
0FB9F700
07F0FF00
07F0FE00
07F0FE00
07E07C00
03E07C00
03E07C00
03C07800
ENDCHAR
STARTCHAR x
ENCODING 120
SWIDTH 525 0
DWIDTH 20 0
BBX 20 19 0 0
BITMAP
FF87F0
7F03E0
3F03C0
1F0380
0F8700
0FCE00
07FC00
03F800
03F000
01F800
00F800
01FC00
03FE00
073F00
0E1F00
1C1F80
3C0FC0
7C0FE0
FE1FF0
ENDCHAR
STARTCHAR y
ENCODING 121
SWIDTH 530 0
DWIDTH 20 0
BBX 20 27 0 -8
BITMAP
FF87F0
7F03E0
3F03C0
3F03C0
3F0380
1F0380
1F0300
1F8700
0F8700
0F8E00
0FCE00
07CC00
07DC00
07F800
03F800
03F800
03F000
01F000
01E000
00E000
00C000
01C000
C38000
E78000
FF0000
FE0000
F80000
ENDCHAR
STARTCHAR z
ENCODING 122
SWIDTH 479 0
DWIDTH 18 0
BBX 16 19 1 0
BITMAP
FFFF
FFFF
F07E
E07E
E0FC
C0F8
01F8
03F0
03F0
07E0
0FC0
0FC0
1F80
1F03
3F07
7E07
7E0F
FFFF
FFFF
ENDCHAR
STARTCHAR braceleft
ENCODING 123
SWIDTH 392 0
DWIDTH 15 0
BBX 12 35 2 -8
BITMAP
01F0
07F0
0F80
1F00
1F00
1F00
1F00
1F00
1F00
1F00
1F00
1F00
1F00
1F00
1E00
3C00
F800
F800
3C00
1E00
1F00
1F00
1F00
1F00
1F00
1F00
1F00
1F00
1F00
1F00
1F00
0F80
0F80
07F0
01F0
ENDCHAR
STARTCHAR bar
ENCODING 124
SWIDTH 320 0
DWIDTH 12 0
BBX 4 35 4 -8
BITMAP
F0
F0
F0
F0
F0
F0
F0
F0
F0
F0
F0
F0
F0
F0
F0
F0
F0
F0
F0
F0
F0
F0
F0
F0
F0
F0
F0
F0
F0
F0
F0
F0
F0
F0
F0
ENDCHAR
STARTCHAR braceright
ENCODING 125
SWIDTH 392 0
DWIDTH 15 0
BBX 12 35 1 -8
BITMAP
F800
FE00
1F00
0F00
0F80
0F80
0F80
0F80
0F80
0F80
0F80
0F80
0F80
0F80
0780
03C0
01F0
01F0
03C0
0780
0F80
0F80
0F80
0F80
0F80
0F80
0F80
0F80
0F80
0F80
0F80
1F00
1F00
FE00
F800
ENDCHAR
STARTCHAR asciitilde
ENCODING 126
SWIDTH 592 0
DWIDTH 23 0
BBX 21 8 1 7
BITMAP
0F0000
1FC020
3FE078
7FF8F8
F8FFF0
F03FE0
201FC0
000780
ENDCHAR
STARTCHAR uni0009.dup4
ENCODING 160
SWIDTH 220 0
DWIDTH 8 0
BBX 1 1 0 0
BITMAP
00
ENDCHAR
STARTCHAR exclamdown
ENCODING 161
SWIDTH 334 0
DWIDTH 13 0
BBX 7 26 3 -7
BITMAP
7C
7C
7C
7C
7C
7C
00
00
00
38
3C
3C
7C
7C
7C
7C
7C
7C
7C
7C
7C
FE
FE
FE
FE
FE
ENDCHAR
STARTCHAR cent
ENCODING 162
SWIDTH 468 0
DWIDTH 18 0
BBX 15 26 2 -3
BITMAP
00C0
00C0
00C0
03FC
0FFE
1EDE
3CCE
7CCE
7CC0
F8C0
F8C0
F8C0
F8C0
F8C0
F8C0
F8C0
F8C0
7CC0
7CC4
7ECE
3FFC
1FF8
07E0
00C0
00C0
00C0
ENDCHAR
STARTCHAR sterling
ENCODING 163
SWIDTH 555 0
DWIDTH 21 0
BBX 18 26 1 0
BITMAP
00FF00
03FF80
07C780
0F8780
0F0380
1F0000
1F0000
1F0000
1F0000
1F0000
1F0000
FFFE00
FFFE00
FFFE00
1F0000
1F0000
1F0000
1F0000
1E0000
1E01C0
1C01C0
3C03C0
3FFFC0
7FFF80
FFFF80
FFFF80
ENDCHAR
STARTCHAR currency
ENCODING 164
SWIDTH 587 0
DWIDTH 22 0
BBX 16 16 3 4
BITMAP
4006
E3E7
7FFE
3FFC
3C3C
781E
700E
700E
700E
700E
781E
3C3C
3FFC
7FFE
E7C7
6002
ENDCHAR
STARTCHAR yen
ENCODING 165
SWIDTH 641 0
DWIDTH 24 0
BBX 22 26 1 0
BITMAP
FFC1FC
7F80F8
3F00F0
3F80E0
1F80E0
1F81C0
0FC1C0
0FC380
0FC380
07E700
07E700
7FFFF0
7FFFF0
01FC00
01FC00
00F800
7FFFF0
7FFFF0
00F800
00F800
00F800
00F800
00F800
00F800
01FC00
03FE00
ENDCHAR
STARTCHAR brokenbar
ENCODING 166
SWIDTH 320 0
DWIDTH 12 0
BBX 4 35 4 -8
BITMAP
F0
F0
F0
F0
F0
F0
F0
F0
F0
F0
F0
F0
F0
F0
F0
00
00
00
00
00
F0
F0
F0
F0
F0
F0
F0
F0
F0
F0
F0
F0
F0
F0
F0
ENDCHAR
STARTCHAR section
ENCODING 167
SWIDTH 532 0
DWIDTH 20 0
BBX 17 33 1 -6
BITMAP
03FC00
0FFF00
1F1F00
3E0F00
3E0700
3E0000
3F0000
3F0000
1FC000
0FE000
1FF800
3FFC00
78FE00
707F00
F01F80
F00F80
F00780
F80780
7E0780
7F0F00
3FDE00
1FFC00
07F800
03F800
00FC00
007E00
003E00
703E00
703E00
783E00
7C7C00
7FF800
0FE000
ENDCHAR
STARTCHAR dieresis
ENCODING 168
SWIDTH 284 0
DWIDTH 11 0
BBX 11 4 0 22
BITMAP
F1E0
F1E0
F1E0
F1E0
ENDCHAR
STARTCHAR copyright
ENCODING 169
SWIDTH 850 0
DWIDTH 32 0
BBX 28 29 2 -3
BITMAP
003FC000
00FFF000
03E07C00
07001E00
0E000700
1C000380
381FE1C0
387FF1C0
70F870E0
71F070E0
E1E030E0
E3C00070
E3C00070
E3C00070
E3C00070
E3C00070
E3C00070
E3C00070
F1E030F0
71E070E0
70F0F0E0
387FF1C0
381FE1C0
1C000380
0E000700
07000E00
03E07C00
00FFF000
003FC000
ENDCHAR
STARTCHAR ordfeminine
ENCODING 170
SWIDTH 419 0
DWIDTH 16 0
BBX 12 16 2 10
BITMAP
0F80
7FC0
79E0
71E0
01E0
0FE0
7FE0
F9E0
F1E0
F3E0
FFE0
7DF0
0000
0000
FFF0
FFF0
ENDCHAR
STARTCHAR guillemotleft
ENCODING 171
SWIDTH 521 0
DWIDTH 20 0
BBX 17 17 1 1
BITMAP
010100
038380
070700
0F0F00
1E1E00
3C3C00
7C7C00
F8F800
F8F800
F8F800
7C7C00
3C3C00
1E1E00
0F0F00
070700
038380
010100
ENDCHAR
STARTCHAR logicalnot
ENCODING 172
SWIDTH 592 0
DWIDTH 23 0
BBX 18 11 2 5
BITMAP
FFFFC0
FFFFC0
FFFFC0
FFFFC0
0003C0
0003C0
0003C0
0003C0
0003C0
0003C0
0003C0
ENDCHAR
STARTCHAR hyphen.dup5
ENCODING 173
SWIDTH 336 0
DWIDTH 13 0
BBX 9 4 2 8
BITMAP
FF80
FF80
FF80
FF80
ENDCHAR
STARTCHAR registered
ENCODING 174
SWIDTH 850 0
DWIDTH 32 0
BBX 28 29 2 -3
BITMAP
003FC000
00FFF000
03E07C00
07001E00
0E000700
1C000380
39FF81C0
38FFE1C0
70F1F0E0
70F0F0E0
E0F0F0E0
E0F0F070
E0F0F070
E0F1E070
E0FFC070
E0FF8070
E0F3C070
E0F1E070
F0F1E0F0
70F0F0E0
70F0F0E0
38F0F9C0
39FC7DC0
1C000380
0E000700
07000E00
03E07C00
00FFF000
003FC000
ENDCHAR
STARTCHAR macron
ENCODING 175
SWIDTH 284 0
DWIDTH 11 0
BBX 10 3 0 22
BITMAP
FFC0
FFC0
FFC0
ENDCHAR
STARTCHAR degree
ENCODING 176
SWIDTH 377 0
DWIDTH 14 0
BBX 12 11 1 15
BITMAP
1F80
3FC0
70E0
E0F0
E070
E070
E070
E070
70E0
3FC0
1F80
ENDCHAR
STARTCHAR plusminus
ENCODING 177
SWIDTH 592 0
DWIDTH 23 0
BBX 18 23 2 0
BITMAP
01E000
01E000
01E000
01E000
01E000
01E000
01E000
FFFFC0
FFFFC0
FFFFC0
FFFFC0
01E000
01E000
01E000
01E000
01E000
01E000
000000
000000
FFFFC0
FFFFC0
FFFFC0
FFFFC0
ENDCHAR
STARTCHAR uni00B2
ENCODING 178
SWIDTH 437 0
DWIDTH 17 0
BBX 12 16 2 15
BITMAP
3FC0
FFE0
F1F0
E0F0
00F0
00F0
01E0
01C0
0380
0700
0E00
1C00
3830
7FF0
FFF0
FFF0
ENDCHAR
STARTCHAR uni00B3
ENCODING 179
SWIDTH 437 0
DWIDTH 17 0
BBX 12 16 2 15
BITMAP
3F80
FFE0
F1F0
E0F0
00F0
00E0
03C0
1F80
1FE0
01F0
00F0
00F0
E0F0
F1E0
FFE0
7F80
ENDCHAR
STARTCHAR acute
ENCODING 180
SWIDTH 284 0
DWIDTH 11 0
BBX 8 7 2 20
BITMAP
0F
1F
3E
38
70
E0
40
ENDCHAR
STARTCHAR mu
ENCODING 181
SWIDTH 605 0
DWIDTH 23 0
BBX 20 27 3 -8
BITMAP
F81F00
F81F00
F81F00
F81F00
F81F00
F81F00
F81F00
F81F00
F81F00
F81F00
F81F00
F81F00
F81F00
F81F00
F83F00
FC7F20
FFEFF0
FFCFE0
EF07C0
F00000
F00000
F00000
F00000
F00000
F00000
F00000
E00000
ENDCHAR
STARTCHAR paragraph
ENCODING 182
SWIDTH 587 0
DWIDTH 22 0
BBX 19 34 2 -8
BITMAP
0FFFE0
3FFFE0
7FC700
7FC700
FFC700
FFC700
FFC700
FFC700
FFC700
7FC700
7FC700
3FC700
0FC700
01C700
01C700
01C700
01C700
01C700
01C700
01C700
01C700
01C700
01C700
01C700
01C700
01C700
01C700
01C700
01C700
01C700
01C700
01C700
01C700
01C700
ENDCHAR
STARTCHAR periodcentered
ENCODING 183
SWIDTH 275 0
DWIDTH 10 0
BBX 5 6 3 10
BITMAP
F8
F8
F8
F8
F8
F8
ENDCHAR
STARTCHAR cedilla
ENCODING 184
SWIDTH 284 0
DWIDTH 11 0
BBX 9 10 1 -8
BITMAP
0180
0300
0E00
1E00
1E00
1E00
1E00
3C00
F800
E000
ENDCHAR
STARTCHAR uni00B9
ENCODING 185
SWIDTH 437 0
DWIDTH 17 0
BBX 12 16 3 15
BITMAP
0700
0F00
3F00
FF00
4F00
0F00
0F00
0F00
0F00
0F00
0F00
0F00
0F00
0F00
1F00
FFF0
ENDCHAR
STARTCHAR ordmasculine
ENCODING 186
SWIDTH 435 0
DWIDTH 17 0
BBX 13 16 2 10
BITMAP
0FC0
3FE0
78F0
F078
F078
F078
F078
F078
F078
78F0
3FE0
1F80
0000
0000
FFF8
FFF8
ENDCHAR
STARTCHAR guillemotright
ENCODING 187
SWIDTH 521 0
DWIDTH 20 0
BBX 17 17 1 1
BITMAP
404000
E0E000
707000
787800
3C3C00
1E1E00
1F1F00
0F8F80
0F8F80
0F8F80
1F1F00
1E1E00
3C3C00
787800
707000
E0E000
404000
ENDCHAR
STARTCHAR onequarter
ENCODING 188
SWIDTH 941 0
DWIDTH 36 0
BBX 31 28 3 -2
BITMAP
070003C0
0F000380
3F000780
FF000700
4F000E00
0F001E00
0F001C00
0F003C00
0F007800
0F007000
0F00F000
0F00E000
0F01C070
0F03C0F0
1F0381F0
FFF783F0
000F03F0
000E06F0
001E0CF0
001C1CF0
003818F0
007830F2
00707FFE
00F07FFE
01E000F0
01C000F0
03C000F0
038001FC
ENDCHAR
STARTCHAR onehalf
ENCODING 189
SWIDTH 975 0
DWIDTH 37 0
BBX 31 28 3 -2
BITMAP
070003C0
0F000380
3F000780
FF000700
4F000E00
0F001E00
0F001C00
0F003C00
0F007800
0F007000
0F00F000
0F00E000
0F01C3F8
0F03DFFE
1F039E1E
FFF79E1E
000F001E
000E001E
001E001C
001C003C
00380078
007800F0
007001C0
00F00380
01E00706
01C007FE
03C00FFE
03801FFE
ENDCHAR
STARTCHAR threequarters
ENCODING 190
SWIDTH 941 0
DWIDTH 36 0
BBX 32 28 2 -2
BITMAP
3F8001E0
FFE001C0
F1F003C0
E0F00380
00F00700
00E00F00
03C00E00
1F801E00
1FE03C00
01F03800
00F07800
00F07000
E0F0E038
F1E1E078
FFE1C0F8
7F83C1F8
000781F8
00070378
000F0678
000E0E78
001C0C78
003C1879
00383FFF
00783FFF
00F00078
00E00078
01E00078
01C000FE
ENDCHAR
STARTCHAR questiondown
ENCODING 191
SWIDTH 451 0
DWIDTH 17 0
BBX 14 26 1 -7
BITMAP
03E0
03E0
03E0
03E0
03E0
03E0
0000
0000
0000
01C0
01C0
0380
0380
0700
0E00
1E00
3C00
7C00
F800
F800
F800
F81C
F83C
7C3C
7FFC
1FE0
ENDCHAR
STARTCHAR Agrave
ENCODING 192
SWIDTH 651 0
DWIDTH 25 0
BBX 25 33 0 0
BITMAP
00F80000
007C0000
003E0000
000F0000
00038000
00018000
00000000
001F0000
003F0000
003F8000
003F8000
007F8000
007FC000
006FC000
00E7C000
00E7C000
01C7E000
01C7E000
01C3E000
0383F000
0383F000
0381F000
0701F800
07FFF800
07FFF800
0E00F800
0E00FC00
1C00FC00
1C00FC00
1C007E00
3C007E00
7E00FF00
FF01FF80
ENDCHAR
STARTCHAR Aacute
ENCODING 193
SWIDTH 651 0
DWIDTH 25 0
BBX 25 33 0 0
BITMAP
0003E000
0007E000
000F8000
001E0000
003C0000
00100000
00000000
001F0000
003F0000
003F8000
003F8000
007F8000
007FC000
006FC000
00E7C000
00E7C000
01C7E000
01C7E000
01C3E000
0383F000
0383F000
0381F000
0701F800
07FFF800
07FFF800
0E00F800
0E00FC00
1C00FC00
1C00FC00
1C007E00
3C007E00
7E00FF00
FF01FF80
ENDCHAR
STARTCHAR Acircumflex
ENCODING 194
SWIDTH 651 0
DWIDTH 25 0
BBX 25 34 0 0
BITMAP
000F0000
001F8000
003FC000
0079E000
00E0F000
00402000
00000000
00000000
001F0000
003F0000
003F8000
003F8000
007F8000
007FC000
006FC000
00E7C000
00E7C000
01C7E000
01C7E000
01C3E000
0383F000
0383F000
0381F000
0701F800
07FFF800
07FFF800
0E00F800
0E00FC00
1C00FC00
1C00FC00
1C007E00
3C007E00
7E00FF00
FF01FF80
ENDCHAR
STARTCHAR Atilde
ENCODING 195
SWIDTH 651 0
DWIDTH 25 0
BBX 25 33 0 0
BITMAP
003C1000
007E3000
007FF000
00C7E000
00C1C000
00000000
00000000
001F0000
003F0000
003F8000
003F8000
007F8000
007FC000
006FC000
00E7C000
00E7C000
01C7E000
01C7E000
01C3E000
0383F000
0383F000
0381F000
0701F800
07FFF800
07FFF800
0E00F800
0E00FC00
1C00FC00
1C00FC00
1C007E00
3C007E00
7E00FF00
FF01FF80
ENDCHAR
STARTCHAR Adieresis
ENCODING 196
SWIDTH 651 0
DWIDTH 25 0
BBX 25 32 0 0
BITMAP
0078F000
0078F000
0078F000
0078F000
00000000
00000000
001F0000
003F0000
003F8000
003F8000
007F8000
007FC000
006FC000
00E7C000
00E7C000
01C7E000
01C7E000
01C3E000
0383F000
0383F000
0381F000
0701F800
07FFF800
07FFF800
0E00F800
0E00FC00
1C00FC00
1C00FC00
1C007E00
3C007E00
7E00FF00
FF01FF80
ENDCHAR
STARTCHAR Aring
ENCODING 197
SWIDTH 651 0
DWIDTH 25 0
BBX 25 35 0 0
BITMAP
000F8000
0018C000
0030E000
00306000
00306000
0030C000
0038C000
000F8000
00000000
001F0000
003F0000
003F8000
003F8000
007F8000
007FC000
006FC000
00E7C000
00E7C000
01C7E000
01C7E000
01C3E000
0383F000
0383F000
0381F000
0701F800
07FFF800
07FFF800
0E00F800
0E00FC00
1C00FC00
1C00FC00
1C007E00
3C007E00
7E00FF00
FF01FF80
ENDCHAR
STARTCHAR AE
ENCODING 198
SWIDTH 880 0
DWIDTH 33 0
BBX 31 26 0 0
BITMAP
0003FFFE
0007FFFE
0007F83E
000FF81E
000FF80E
001DF80E
001DF800
003DF800
0039F800
0079F830
0071F830
00F0F870
00E0FFF0
01E0FFF0
01C0F870
03C0F830
03FFFC30
07FFFC00
0700FC00
0F00FC0E
0E00FC0E
1E00FC1E
1E00FC1E
3E00FC3E
7E01FFFE
FF03FFFE
ENDCHAR
STARTCHAR Ccedilla
ENCODING 199
SWIDTH 573 0
DWIDTH 22 0
BBX 18 34 2 -8
BITMAP
00FF80
03FFC0
0F87C0
1F03C0
3F01C0
3E01C0
7E0000
7E0000
7C0000
FC0000
FC0000
FC0000
FC0000
FC0000
FC0000
FC0000
FC0000
FC0000
7C0000
7E01C0
7E01C0
3E03C0
3F03C0
1F87C0
0FFFC0
01FF00
003000
00F000
00F000
00F000
00F000
01E000
07C000
070000
ENDCHAR
STARTCHAR Egrave
ENCODING 200
SWIDTH 577 0
DWIDTH 22 0
BBX 18 33 2 0
BITMAP
1F0000
0F8000
07C000
01E000
007000
003000
000000
FFFFC0
7FFFC0
3F07C0
3F03C0
3F01C0
3F01C0
3F0000
3F0000
3F0000
3F0600
3F0600
3F0E00
3FFE00
3FFE00
3F0E00
3F0600
3F0600
3F0000
3F0000
3F01C0
3F01C0
3F03C0
3F03C0
3F07C0
7FFFC0
FFFFC0
ENDCHAR
STARTCHAR Eacute
ENCODING 201
SWIDTH 577 0
DWIDTH 22 0
BBX 18 33 2 0
BITMAP
003E00
007E00
00F800
01E000
03C000
010000
000000
FFFFC0
7FFFC0
3F07C0
3F03C0
3F01C0
3F01C0
3F0000
3F0000
3F0000
3F0600
3F0600
3F0E00
3FFE00
3FFE00
3F0E00
3F0600
3F0600
3F0000
3F0000
3F01C0
3F01C0
3F03C0
3F03C0
3F07C0
7FFFC0
FFFFC0
ENDCHAR
STARTCHAR Ecircumflex
ENCODING 202
SWIDTH 577 0
DWIDTH 22 0
BBX 18 34 2 0
BITMAP
00F000
01F800
03FC00
079E00
0E0F00
040200
000000
000000
FFFFC0
7FFFC0
3F07C0
3F03C0
3F01C0
3F01C0
3F0000
3F0000
3F0000
3F0600
3F0600
3F0E00
3FFE00
3FFE00
3F0E00
3F0600
3F0600
3F0000
3F0000
3F01C0
3F01C0
3F03C0
3F03C0
3F07C0
7FFFC0
FFFFC0
ENDCHAR
STARTCHAR Edieresis
ENCODING 203
SWIDTH 577 0
DWIDTH 22 0
BBX 18 32 2 0
BITMAP
0F1E00
0F1E00
0F1E00
0F1E00
000000
000000
FFFFC0
7FFFC0
3F07C0
3F03C0
3F01C0
3F01C0
3F0000
3F0000
3F0000
3F0600
3F0600
3F0E00
3FFE00
3FFE00
3F0E00
3F0600
3F0600
3F0000
3F0000
3F01C0
3F01C0
3F03C0
3F03C0
3F07C0
7FFFC0
FFFFC0
ENDCHAR
STARTCHAR Igrave
ENCODING 204
SWIDTH 349 0
DWIDTH 13 0
BBX 10 33 2 0
BITMAP
F800
FC00
3E00
1F00
0780
0100
0000
FFC0
7F80
3F00
3F00
3F00
3F00
3F00
3F00
3F00
3F00
3F00
3F00
3F00
3F00
3F00
3F00
3F00
3F00
3F00
3F00
3F00
3F00
3F00
3F00
7F80
FFC0
ENDCHAR
STARTCHAR Iacute
ENCODING 205
SWIDTH 349 0
DWIDTH 13 0
BBX 11 33 2 0
BITMAP
03E0
07C0
0F80
1E00
3800
3000
0000
FFC0
7F80
3F00
3F00
3F00
3F00
3F00
3F00
3F00
3F00
3F00
3F00
3F00
3F00
3F00
3F00
3F00
3F00
3F00
3F00
3F00
3F00
3F00
3F00
7F80
FFC0
ENDCHAR
STARTCHAR Icircumflex
ENCODING 206
SWIDTH 349 0
DWIDTH 13 0
BBX 12 34 1 0
BITMAP
0F00
1F80
3FC0
79E0
F070
4020
0000
0000
7FE0
3FC0
1F80
1F80
1F80
1F80
1F80
1F80
1F80
1F80
1F80
1F80
1F80
1F80
1F80
1F80
1F80
1F80
1F80
1F80
1F80
1F80
1F80
1F80
3FC0
7FE0
ENDCHAR
STARTCHAR Idieresis
ENCODING 207
SWIDTH 349 0
DWIDTH 13 0
BBX 11 32 2 0
BITMAP
F1E0
F1E0
F1E0
F1E0
0000
0000
FFC0
7F80
3F00
3F00
3F00
3F00
3F00
3F00
3F00
3F00
3F00
3F00
3F00
3F00
3F00
3F00
3F00
3F00
3F00
3F00
3F00
3F00
3F00
3F00
7F80
FFC0
ENDCHAR
STARTCHAR Eth
ENCODING 208
SWIDTH 708 0
DWIDTH 27 0
BBX 24 26 1 0
BITMAP
7FFF00
3FFFE0
1F87F0
1F81F8
1F80FC
1F807E
1F807E
1F807E
1F803F
1F803F
1F803F
1F803F
FFFC3F
FFFC3F
1F803F
1F803F
1F803F
1F803E
1F807E
1F807E
1F807C
1F80FC
1F81F8
1F83F0
3FFFC0
7FFE00
ENDCHAR
STARTCHAR Ntilde
ENCODING 209
SWIDTH 679 0
DWIDTH 26 0
BBX 22 33 2 0
BITMAP
00E0C0
01F9C0
03FF80
073F00
020E00
000000
000000
FF01FC
7F00F8
3F8070
3F8070
3FC070
3FC070
3FE070
3FF070
3BF070
3BF870
39F870
38FC70
38FC70
387E70
387E70
383F70
383F70
381FF0
381FF0
380FF0
380FF0
3807F0
3807F0
3803F0
7C01F0
FE01F0
ENDCHAR
STARTCHAR Ograve
ENCODING 210
SWIDTH 695 0
DWIDTH 26 0
BBX 22 33 2 0
BITMAP
07C000
03E000
01F000
007800
001C00
000C00
000000
00FE00
07FF80
0F87E0
1F03E0
3E01F0
3E01F8
7E01F8
7C00F8
FC00FC
FC00FC
FC00FC
FC00FC
FC00FC
FC00FC
FC00FC
FC00FC
FC00FC
FC00FC
7C00F8
7E01F8
7E01F8
3E01F0
3F03E0
1F87C0
07FF80
01FC00
ENDCHAR
STARTCHAR Oacute
ENCODING 211
SWIDTH 695 0
DWIDTH 26 0
BBX 22 33 2 0
BITMAP
000F80
001F80
003E00
007800
00F000
004000
000000
00FE00
07FF80
0F87E0
1F03E0
3E01F0
3E01F8
7E01F8
7C00F8
FC00FC
FC00FC
FC00FC
FC00FC
FC00FC
FC00FC
FC00FC
FC00FC
FC00FC
FC00FC
7C00F8
7E01F8
7E01F8
3E01F0
3F03E0
1F87C0
07FF80
01FC00
ENDCHAR
STARTCHAR Ocircumflex
ENCODING 212
SWIDTH 695 0
DWIDTH 26 0
BBX 22 34 2 0
BITMAP
007800
00FC00
01FE00
03CF00
070780
020100
000000
000000
00FE00
07FF80
0F87E0
1F03E0
3E01F0
3E01F8
7E01F8
7C00F8
FC00FC
FC00FC
FC00FC
FC00FC
FC00FC
FC00FC
FC00FC
FC00FC
FC00FC
FC00FC
7C00F8
7E01F8
7E01F8
3E01F0
3F03E0
1F87C0
07FF80
01FC00
ENDCHAR
STARTCHAR Otilde
ENCODING 213
SWIDTH 695 0
DWIDTH 26 0
BBX 22 33 2 0
BITMAP
01E080
03F180
03FF80
073F00
060E00
000000
000000
00FE00
07FF80
0F87E0
1F03E0
3E01F0
3E01F8
7E01F8
7C00F8
FC00FC
FC00FC
FC00FC
FC00FC
FC00FC
FC00FC
FC00FC
FC00FC
FC00FC
FC00FC
7C00F8
7E01F8
7E01F8
3E01F0
3F03E0
1F87C0
07FF80
01FC00
ENDCHAR
STARTCHAR Odieresis
ENCODING 214
SWIDTH 695 0
DWIDTH 26 0
BBX 22 32 2 0
BITMAP
03C780
03C780
03C780
03C780
000000
000000
00FE00
07FF80
0F87E0
1F03E0
3E01F0
3E01F8
7E01F8
7C00F8
FC00FC
FC00FC
FC00FC
FC00FC
FC00FC
FC00FC
FC00FC
FC00FC
FC00FC
FC00FC
7C00F8
7E01F8
7E01F8
3E01F0
3F03E0
1F87C0
07FF80
01FC00
ENDCHAR
STARTCHAR multiply
ENCODING 215
SWIDTH 592 0
DWIDTH 23 0
BBX 17 17 3 2
BITMAP
200200
700700
F80F80
7C1F00
3E3E00
1F7C00
0FF800
07F000
03E000
07F000
0FF800
1F7C00
3E3E00
7C1F00
F80F80
700700
200200
ENDCHAR
STARTCHAR Oslash
ENCODING 216
SWIDTH 695 0
DWIDTH 26 0
BBX 22 30 2 -2
BITMAP
000038
000070
01FC70
07FFE0
0F87C0
1F03E0
3E03F0
7E03F8
7E07F8
7C06F8
FC0EFC
FC0CFC
FC1CFC
FC38FC
FC38FC
FC70FC
FC70FC
FCE0FC
FCC0FC
FDC0FC
7D80F8
7F81F8
7F01F8
3F01F0
1F03E0
0F87C0
1FFF80
39FE00
380000
700000
ENDCHAR
STARTCHAR Ugrave
ENCODING 217
SWIDTH 676 0
DWIDTH 26 0
BBX 23 33 1 0
BITMAP
03E000
03F000
00F800
003C00
001E00
000400
000000
FFC1FE
7F80FC
3F0078
3F0078
3F0078
3F0078
3F0078
3F0078
3F0078
3F0078
3F0078
3F0078
3F0078
3F0078
3F0078
3F0078
3F0078
3F0078
3F0078
3F0078
3F0078
1F80F0
1F80F0
0FC1E0
07FFC0
00FF00
ENDCHAR
STARTCHAR Uacute
ENCODING 218
SWIDTH 676 0
DWIDTH 26 0
BBX 23 33 1 0
BITMAP
0003E0
0007E0
000F80
001E00
003C00
001000
000000
FFC1FE
7F80FC
3F0078
3F0078
3F0078
3F0078
3F0078
3F0078
3F0078
3F0078
3F0078
3F0078
3F0078
3F0078
3F0078
3F0078
3F0078
3F0078
3F0078
3F0078
3F0078
1F80F0
1F80F0
0FC1E0
07FFC0
00FF00
ENDCHAR
STARTCHAR Ucircumflex
ENCODING 219
SWIDTH 676 0
DWIDTH 26 0
BBX 23 34 1 0
BITMAP
003C00
007E00
00FF00
01E780
03C3C0
010080
000000
000000
FFC1FE
7F80FC
3F0078
3F0078
3F0078
3F0078
3F0078
3F0078
3F0078
3F0078
3F0078
3F0078
3F0078
3F0078
3F0078
3F0078
3F0078
3F0078
3F0078
3F0078
3F0078
1F80F0
1F80F0
0FC1E0
07FFC0
00FF00
ENDCHAR
STARTCHAR Udieresis
ENCODING 220
SWIDTH 676 0
DWIDTH 26 0
BBX 23 32 1 0
BITMAP
01E3C0
01E3C0
01E3C0
01E3C0
000000
000000
FFC1FE
7F80FC
3F0078
3F0078
3F0078
3F0078
3F0078
3F0078
3F0078
3F0078
3F0078
3F0078
3F0078
3F0078
3F0078
3F0078
3F0078
3F0078
3F0078
3F0078
3F0078
1F80F0
1F80F0
0FC1E0
07FFC0
00FF00
ENDCHAR
STARTCHAR Yacute
ENCODING 221
SWIDTH 604 0
DWIDTH 23 0
BBX 23 33 0 0
BITMAP
0003E0
0007E0
000F80
001E00
003C00
001000
000000
FFC0FE
7F807C
3F0078
3F8070
1F8070
1F80E0
0FC0E0
0FC1C0
07E1C0
07E380
03F380
03F700
03FF00
01FE00
01FE00
00FC00
00FC00
00FC00
00FC00
00FC00
00FC00
00FC00
00FC00
00FC00
01FE00
03FF00
ENDCHAR
STARTCHAR Thorn
ENCODING 222
SWIDTH 617 0
DWIDTH 23 0
BBX 20 26 2 0
BITMAP
FFC000
7F8000
3F0000
3F0000
3F0000
3FFE00
3FFF80
3F0FE0
3F07E0
3F03F0
3F03F0
3F03F0
3F03F0
3F03F0
3F03F0
3F03E0
3F07E0
3F0FC0
3FFF80
3FFE00
3F0000
3F0000
3F0000
3F0000
7F8000
FFC000
ENDCHAR
STARTCHAR germandbls
ENCODING 223
SWIDTH 676 0
DWIDTH 26 0
BBX 23 27 1 0
BITMAP
00FF00
03FFC0
07C3C0
0F01E0
1F01E0
1E01E0
3E01E0
3E03C0
3E0380
7E0700
FE0E00
3E1C00
3E3C00
3E3C00
3E3F00
3E3FC0
3E1FF0
3E0FF8
3E07FC
3E01FE
3E007E
3E003E
3E003E
3E303E
3E387C
7E3FF8
FE1FE0
ENDCHAR
STARTCHAR agrave
ENCODING 224
SWIDTH 535 0
DWIDTH 20 0
BBX 18 27 1 0
BITMAP
0F0000
0F8000
07C000
01C000
00E000
007000
002000
000000
03F800
1FFE00
7E3E00
7C1F00
781F00
781F00
001F00
001F00
01FF00
0FFF00
3F1F00
7C1F00
F81F00
F81F00
F83F00
FC7F00
FFEF00
7FCF80
1F1FC0
ENDCHAR
STARTCHAR aacute
ENCODING 225
SWIDTH 535 0
DWIDTH 20 0
BBX 18 27 1 0
BITMAP
003C00
007C00
007800
00F000
01E000
01C000
010000
000000
03F800
1FFE00
7E3E00
7C1F00
781F00
781F00
001F00
001F00
01FF00
0FFF00
3F1F00
7C1F00
F81F00
F81F00
F83F00
FC7F00
FFEF00
7FCF80
1F1FC0
ENDCHAR
STARTCHAR acircumflex
ENCODING 226
SWIDTH 535 0
DWIDTH 20 0
BBX 18 27 1 0
BITMAP
01E000
01F000
03F800
07B800
071C00
0E0C00
0C0400
000000
03F800
1FFE00
7E3E00
7C1F00
781F00
781F00
001F00
001F00
01FF00
0FFF00
3F1F00
7C1F00
F81F00
F81F00
F83F00
FC7F00
FFEF00
7FCF80
1F1FC0
ENDCHAR
STARTCHAR atilde
ENCODING 227
SWIDTH 535 0
DWIDTH 20 0
BBX 18 26 1 0
BITMAP
078200
0FC600
0FFE00
18FC00
183800
000000
000000
03F800
1FFE00
7E3E00
7C1F00
781F00
781F00
001F00
001F00
01FF00
0FFF00
3F1F00
7C1F00
F81F00
F81F00
F83F00
FC7F00
FFEF00
7FCF80
1F1FC0
ENDCHAR
STARTCHAR adieresis
ENCODING 228
SWIDTH 535 0
DWIDTH 20 0
BBX 18 26 1 0
BITMAP
0F1E00
0F1E00
0F1E00
0F1E00
000000
000000
000000
03F800
1FFE00
7E3E00
7C1F00
781F00
781F00
001F00
001F00
01FF00
0FFF00
3F1F00
7C1F00
F81F00
F81F00
F83F00
FC7F00
FFEF00
7FCF80
1F1FC0
ENDCHAR
STARTCHAR aring
ENCODING 229
SWIDTH 535 0
DWIDTH 20 0
BBX 18 28 1 0
BITMAP
01F000
071800
061800
060C00
060C00
061800
071800
01F000
000000
03F800
1FFE00
7E3E00
7C1F00
781F00
781F00
001F00
001F00
01FF00
0FFF00
3F1F00
7C1F00
F81F00
F81F00
F83F00
FC7F00
FFEF00
7FCF80
1F1FC0
ENDCHAR
STARTCHAR ae
ENCODING 230
SWIDTH 794 0
DWIDTH 30 0
BBX 27 19 1 0
BITMAP
03F87C00
1FFDFF00
7E3FC780
7C1F87C0
781F83C0
781F03C0
001F03E0
001F03E0
01FFFFE0
0FFFFFE0
3F1F0000
7C1F0000
F81F0000
F81F8000
F83F8040
FC7FC1E0
FFE7FFC0
7FC3FF80
1F00FC00
ENDCHAR
STARTCHAR ccedilla
ENCODING 231
SWIDTH 468 0
DWIDTH 18 0
BBX 15 27 2 -8
BITMAP
03FC
0FFE
1E3E
3C1E
7C1E
7800
F800
F800
F800
F800
F800
F800
F800
FC00
7C04
7E1E
3FFC
1FF8
07E0
00C0
03C0
03C0
03C0
03C0
0780
1F00
1C00
ENDCHAR
STARTCHAR egrave
ENCODING 232
SWIDTH 530 0
DWIDTH 20 0
BBX 16 27 2 0
BITMAP
1F00
0F00
0780
03C0
01C0
00E0
0040
0000
07E0
1FF8
3E3C
3C3E
7C1E
781E
F81F
F81F
FFFF
FFFF
F800
F800
F800
FC00
7C02
7E0F
3FFE
1FFC
07F0
ENDCHAR
STARTCHAR eacute
ENCODING 233
SWIDTH 530 0
DWIDTH 20 0
BBX 16 27 2 0
BITMAP
007C
0078
00F0
01E0
01C0
0380
0300
0000
07E0
1FF8
3E3C
3C3E
7C1E
781E
F81F
F81F
FFFF
FFFF
F800
F800
F800
FC00
7C02
7E0F
3FFE
1FFC
07F0
ENDCHAR
STARTCHAR ecircumflex
ENCODING 234
SWIDTH 530 0
DWIDTH 20 0
BBX 16 27 2 0
BITMAP
01E0
03E0
07F0
0770
0E38
1C1C
0808
0000
07E0
1FF8
3E3C
3C3E
7C1E
781E
F81F
F81F
FFFF
FFFF
F800
F800
F800
FC00
7C02
7E0F
3FFE
1FFC
07F0
ENDCHAR
STARTCHAR edieresis
ENCODING 235
SWIDTH 530 0
DWIDTH 20 0
BBX 16 26 2 0
BITMAP
1E3C
1E3C
1E3C
1E3C
0000
0000
0000
07E0
1FF8
3E3C
3C3E
7C1E
781E
F81F
F81F
FFFF
FFFF
F800
F800
F800
FC00
7C02
7E0F
3FFE
1FFC
07F0
ENDCHAR
STARTCHAR igrave
ENCODING 236
SWIDTH 314 0
DWIDTH 12 0
BBX 9 27 1 0
BITMAP
F000
F800
7C00
3C00
0E00
0700
0200
0000
FE00
7E00
3E00
3E00
3E00
3E00
3E00
3E00
3E00
3E00
3E00
3E00
3E00
3E00
3E00
3E00
3E00
7F00
FF80
ENDCHAR
STARTCHAR iacute
ENCODING 237
SWIDTH 314 0
DWIDTH 12 0
BBX 10 27 1 0
BITMAP
03C0
07C0
0780
0F00
1E00
3800
1000
0000
FE00
7E00
3E00
3E00
3E00
3E00
3E00
3E00
3E00
3E00
3E00
3E00
3E00
3E00
3E00
3E00
3E00
7F00
FF80
ENDCHAR
STARTCHAR icircumflex
ENCODING 238
SWIDTH 314 0
DWIDTH 12 0
BBX 10 27 1 0
BITMAP
1E00
1F00
3F00
7380
E1C0
C0C0
8040
0000
FE00
7E00
3E00
3E00
3E00
3E00
3E00
3E00
3E00
3E00
3E00
3E00
3E00
3E00
3E00
3E00
3E00
7F00
FF80
ENDCHAR
STARTCHAR idieresis
ENCODING 239
SWIDTH 314 0
DWIDTH 12 0
BBX 11 26 1 0
BITMAP
F1E0
F1E0
F1E0
F1E0
0000
0000
0000
FE00
7E00
3E00
3E00
3E00
3E00
3E00
3E00
3E00
3E00
3E00
3E00
3E00
3E00
3E00
3E00
3E00
7F00
FF80
ENDCHAR
STARTCHAR eth
ENCODING 240
SWIDTH 571 0
DWIDTH 22 0
BBX 18 27 2 0
BITMAP
060400
0FDE00
07FC00
00F800
03FC00
0FBE00
1E1E00
080F00
000F80
07F780
1FFF80
3E1FC0
7C0FC0
7C0FC0
F807C0
F807C0
F807C0
F807C0
F807C0
F807C0
F807C0
F80780
7C0F80
7C0F00
3E1F00
1FFC00
07F000
ENDCHAR
STARTCHAR ntilde
ENCODING 241
SWIDTH 603 0
DWIDTH 23 0
BBX 20 26 1 0
BITMAP
038300
07E700
0FFE00
1CFC00
083800
000000
000000
FF1F00
7F7F80
3FFF80
3F8FC0
3F07C0
3E07C0
3E07C0
3E07C0
3E07C0
3E07C0
3E07C0
3E07C0
3E07C0
3E07C0
3E07C0
3E07C0
3E07C0
7F0FE0
FF9FF0
ENDCHAR
STARTCHAR ograve
ENCODING 242
SWIDTH 569 0
DWIDTH 22 0
BBX 18 27 2 0
BITMAP
0F0000
0F8000
078000
03C000
01E000
006000
002000
000000
03F800
0FFE00
3E1F00
3C0F80
7C0F80
7807C0
F807C0
F807C0
F807C0
F807C0
F807C0
F807C0
F807C0
F80780
7C0F80
7C0F00
3E1F00
1FFC00
07F000
ENDCHAR
STARTCHAR oacute
ENCODING 243
SWIDTH 569 0
DWIDTH 22 0
BBX 18 27 2 0
BITMAP
003C00
007C00
00F800
00E000
01C000
038000
010000
000000
03F800
0FFE00
3E1F00
3C0F80
7C0F80
7807C0
F807C0
F807C0
F807C0
F807C0
F807C0
F807C0
F807C0
F80780
7C0F80
7C0F00
3E1F00
1FFC00
07F000
ENDCHAR
STARTCHAR ocircumflex
ENCODING 244
SWIDTH 569 0
DWIDTH 22 0
BBX 18 27 2 0
BITMAP
01E000
03F000
03F000
073800
0E1C00
0C0C00
080400
000000
03F800
0FFE00
3E1F00
3C0F80
7C0F80
7807C0
F807C0
F807C0
F807C0
F807C0
F807C0
F807C0
F807C0
F80780
7C0F80
7C0F00
3E1F00
1FFC00
07F000
ENDCHAR
STARTCHAR otilde
ENCODING 245
SWIDTH 569 0
DWIDTH 22 0
BBX 18 26 2 0
BITMAP
070600
0FC600
1FFC00
18FC00
107800
000000
000000
03F800
0FFE00
3E1F00
3C0F80
7C0F80
7807C0
F807C0
F807C0
F807C0
F807C0
F807C0
F807C0
F807C0
F80780
7C0F80
7C0F00
3E1F00
1FFC00
07F000
ENDCHAR
STARTCHAR odieresis
ENCODING 246
SWIDTH 569 0
DWIDTH 22 0
BBX 18 26 2 0
BITMAP
1E3C00
1E3C00
1E3C00
1E3C00
000000
000000
000000
03F800
0FFE00
3E1F00
3C0F80
7C0F80
7807C0
F807C0
F807C0
F807C0
F807C0
F807C0
F807C0
F807C0
F80780
7C0F80
7C0F00
3E1F00
1FFC00
07F000
ENDCHAR
STARTCHAR divide
ENCODING 247
SWIDTH 592 0
DWIDTH 23 0
BBX 18 20 2 1
BITMAP
01E000
03F000
03F000
03F000
03F000
01E000
000000
000000
FFFFC0
FFFFC0
FFFFC0
FFFFC0
000000
000000
01E000
03F000
03F000
03F000
03F000
01E000
ENDCHAR
STARTCHAR oslash
ENCODING 248
SWIDTH 569 0
DWIDTH 22 0
BBX 18 23 2 -2
BITMAP
0001C0
000380
03FB00
0FFF00
3E1F00
3C0F80
7C1F80
783FC0
F837C0
F877C0
F8E7C0
F8C7C0
F9C7C0
FB87C0
FB07C0
FF0780
7E0F80
7C0F00
3E1F00
3FFC00
37F000
700000
E00000
ENDCHAR
STARTCHAR ugrave
ENCODING 249
SWIDTH 597 0
DWIDTH 23 0
BBX 20 27 1 0
BITMAP
078000
07C000
03E000
00E000
007000
003800
001000
000000
FE1FC0
7E0FC0
3E07C0
3E07C0
3E07C0
3E07C0
3E07C0
3E07C0
3E07C0
3E07C0
3E07C0
3E07C0
3E07C0
3E07C0
3E0FC0
3F1FC0
1FFFC0
1FE7E0
07C7F0
ENDCHAR
STARTCHAR uacute
ENCODING 250
SWIDTH 597 0
DWIDTH 23 0
BBX 20 27 1 0
BITMAP
001F00
001E00
003C00
007800
00F000
00E000
00C000
000000
FE1FC0
7E0FC0
3E07C0
3E07C0
3E07C0
3E07C0
3E07C0
3E07C0
3E07C0
3E07C0
3E07C0
3E07C0
3E07C0
3E07C0
3E0FC0
3F1FC0
1FFFC0
1FE7E0
07C7F0
ENDCHAR
STARTCHAR ucircumflex
ENCODING 251
SWIDTH 597 0
DWIDTH 23 0
BBX 20 27 1 0
BITMAP
007800
00F800
01FC00
01DC00
038E00
070700
020200
000000
FE1FC0
7E0FC0
3E07C0
3E07C0
3E07C0
3E07C0
3E07C0
3E07C0
3E07C0
3E07C0
3E07C0
3E07C0
3E07C0
3E07C0
3E0FC0
3F1FC0
1FFFC0
1FE7E0
07C7F0
ENDCHAR
STARTCHAR udieresis
ENCODING 252
SWIDTH 597 0
DWIDTH 23 0
BBX 20 26 1 0
BITMAP
078F00
078F00
078F00
078F00
000000
000000
000000
FE1FC0
7E0FC0
3E07C0
3E07C0
3E07C0
3E07C0
3E07C0
3E07C0
3E07C0
3E07C0
3E07C0
3E07C0
3E07C0
3E07C0
3E0FC0
3F1FC0
1FFFC0
1FE7E0
07C7F0
ENDCHAR
STARTCHAR yacute
ENCODING 253
SWIDTH 530 0
DWIDTH 20 0
BBX 20 35 0 -8
BITMAP
000F00
001F00
003E00
003C00
007000
00E000
004000
000000
FF87F0
7F03E0
3F03C0
3F03C0
3F0380
1F0380
1F0300
1F8700
0F8700
0F8E00
0FCE00
07CC00
07DC00
07F800
03F800
03F800
03F000
01F000
01E000
00E000
00C000
01C000
C38000
E78000
FF0000
FE0000
F80000
ENDCHAR
STARTCHAR thorn
ENCODING 254
SWIDTH 591 0
DWIDTH 22 0
BBX 19 35 1 -8
BITMAP
FE0000
7E0000
3E0000
3E0000
3E0000
3E0000
3E0000
3E0000
3E3E00
3E7F80
3FFF80
3F8FC0
3F07C0
3E07E0
3E03E0
3E03E0
3E03E0
3E03E0
3E03E0
3E03E0
3E03E0
3E03C0
3E07C0
3F07C0
3F0F80
3FFF00
3FFC00
3E0000
3E0000
3E0000
3E0000
3E0000
3E0000
7F0000
FF8000
ENDCHAR
STARTCHAR ydieresis
ENCODING 255
SWIDTH 530 0
DWIDTH 20 0
BBX 20 34 0 -8
BITMAP
078F00
078F00
078F00
078F00
000000
000000
000000
FF87F0
7F03E0
3F03C0
3F03C0
3F0380
1F0380
1F0300
1F8700
0F8700
0F8E00
0FCE00
07CC00
07DC00
07F800
03F800
03F800
03F000
01F000
01E000
00E000
00C000
01C000
C38000
E78000
FF0000
FE0000
F80000
ENDCHAR
STARTCHAR Amacron
ENCODING 256
SWIDTH 651 0
DWIDTH 25 0
BBX 25 31 0 0
BITMAP
007FF000
007FF000
007FF000
00000000
00000000
001F0000
003F0000
003F8000
003F8000
007F8000
007FC000
006FC000
00E7C000
00E7C000
01C7E000
01C7E000
01C3E000
0383F000
0383F000
0381F000
0701F800
07FFF800
07FFF800
0E00F800
0E00FC00
1C00FC00
1C00FC00
1C007E00
3C007E00
7E00FF00
FF01FF80
ENDCHAR
STARTCHAR amacron
ENCODING 257
SWIDTH 535 0
DWIDTH 20 0
BBX 18 25 1 0
BITMAP
0FFC00
0FFC00
0FFC00
000000
000000
000000
03F800
1FFE00
7E3E00
7C1F00
781F00
781F00
001F00
001F00
01FF00
0FFF00
3F1F00
7C1F00
F81F00
F81F00
F83F00
FC7F00
FFEF00
7FCF80
1F1FC0
ENDCHAR
STARTCHAR Abreve
ENCODING 258
SWIDTH 651 0
DWIDTH 25 0
BBX 25 34 0 0
BITMAP
00C06000
00E06000
00F0E000
007FE000
003FC000
001F0000
00000000
00000000
001F0000
003F0000
003F8000
003F8000
007F8000
007FC000
006FC000
00E7C000
00E7C000
01C7E000
01C7E000
01C3E000
0383F000
0383F000
0381F000
0701F800
07FFF800
07FFF800
0E00F800
0E00FC00
1C00FC00
1C00FC00
1C007E00
3C007E00
7E00FF00
FF01FF80
ENDCHAR
STARTCHAR abreve
ENCODING 259
SWIDTH 535 0
DWIDTH 20 0
BBX 18 27 1 0
BITMAP
180600
1C0C00
1E1C00
0FFC00
07F800
03E000
000000
000000
03F800
1FFE00
7E3E00
7C1F00
781F00
781F00
001F00
001F00
01FF00
0FFF00
3F1F00
7C1F00
F81F00
F81F00
F83F00
FC7F00
FFEF00
7FCF80
1F1FC0
ENDCHAR
STARTCHAR Aogonek
ENCODING 260
SWIDTH 651 0
DWIDTH 25 0
BBX 25 34 0 -8
BITMAP
001F0000
003F8000
003F8000
003F8000
007F8000
007FC000
006FC000
00E7C000
00E7E000
01C7E000
01C7E000
01C3E000
0383F000
0383F000
0381F000
0701F800
07FFF800
07FFF800
0E00F800
0E00FC00
1C00FC00
1C00FC00
1C007E00
3C007E00
7E00FF00
FF01FF80
00001C00
00003800
00003000
00007000
00007000
00007100
00007F00
00001E00
ENDCHAR
STARTCHAR aogonek
ENCODING 261
SWIDTH 535 0
DWIDTH 20 0
BBX 18 27 1 -8
BITMAP
03F800
1FFE00
7E3E00
7C1F00
781F00
781F00
001F00
001F00
01FF00
0FFF00
3F1F00
7C1F00
F81F00
F81F00
F83F00
FC7F00
FFEF00
7FCF80
1F1FC0
000700
000E00
000C00
001C00
001C00
001C40
001FC0
000780
ENDCHAR
STARTCHAR Cacute
ENCODING 262
SWIDTH 573 0
DWIDTH 22 0
BBX 18 33 2 0
BITMAP
001F00
003F00
007C00
00F800
01E000
008000
000000
00FF80
03FFC0
0F87C0
1F03C0
3F01C0
3E01C0
7E0000
7E0000
7C0000
FC0000
FC0000
FC0000
FC0000
FC0000
FC0000
FC0000
FC0000
FC0000
7C0000
7E01C0
7E01C0
3E03C0
3F03C0
1F87C0
0FFFC0
01FF00
ENDCHAR
STARTCHAR cacute
ENCODING 263
SWIDTH 468 0
DWIDTH 18 0
BBX 15 27 2 0
BITMAP
0078
00F8
01F0
01E0
0380
0700
0200
0000
03FC
0FFE
1E3E
3C1E
7C1E
7800
F800
F800
F800
F800
F800
F800
F800
FC00
7C04
7E1E
3FFC
1FF8
07E0
ENDCHAR
STARTCHAR Ccircumflex
ENCODING 264
SWIDTH 573 0
DWIDTH 22 0
BBX 18 34 2 0
BITMAP
007800
00FC00
01FE00
03CF00
070780
020100
000000
000000
00FF80
03FFC0
0F87C0
1F03C0
3F01C0
3E01C0
7E0000
7E0000
7C0000
FC0000
FC0000
FC0000
FC0000
FC0000
FC0000
FC0000
FC0000
FC0000
7C0000
7E01C0
7E01C0
3E03C0
3F03C0
1F87C0
0FFFC0
01FF00
ENDCHAR
STARTCHAR ccircumflex
ENCODING 265
SWIDTH 468 0
DWIDTH 18 0
BBX 15 27 2 0
BITMAP
03C0
07E0
07E0
0E70
1C38
1818
1008
0000
03FC
0FFE
1E3E
3C1E
7C1E
7800
F800
F800
F800
F800
F800
F800
F800
FC00
7C04
7E1E
3FFC
1FF8
07E0
ENDCHAR
STARTCHAR Cdotaccent
ENCODING 266
SWIDTH 573 0
DWIDTH 22 0
BBX 18 33 2 0
BITMAP
00F800
00F800
00F800
00F800
00F800
000000
000000
00FF80
03FFC0
0F87C0
1F03C0
3F01C0
3E01C0
7E0000
7E0000
7C0000
FC0000
FC0000
FC0000
FC0000
FC0000
FC0000
FC0000
FC0000
FC0000
7C0000
7E01C0
7E01C0
3E03C0
3F03C0
1F87C0
0FFFC0
01FF00
ENDCHAR
STARTCHAR cdotaccent
ENCODING 267
SWIDTH 468 0
DWIDTH 18 0
BBX 15 26 2 0
BITMAP
07C0
07C0
07C0
07C0
07C0
0000
0000
03FC
0FFE
1E3E
3C1E
7C1E
7800
F800
F800
F800
F800
F800
F800
F800
FC00
7C04
7E1E
3FFC
1FF8
07E0
ENDCHAR
STARTCHAR Ccaron
ENCODING 268
SWIDTH 573 0
DWIDTH 22 0
BBX 18 34 2 0
BITMAP
020100
070780
03CF00
01FE00
00FC00
007800
000000
000000
00FF80
03FFC0
0F87C0
1F03C0
3F01C0
3E01C0
7E0000
7E0000
7C0000
FC0000
FC0000
FC0000
FC0000
FC0000
FC0000
FC0000
FC0000
FC0000
7C0000
7E01C0
7E01C0
3E03C0
3F03C0
1F87C0
0FFFC0
01FF00
ENDCHAR
STARTCHAR ccaron
ENCODING 269
SWIDTH 468 0
DWIDTH 18 0
BBX 15 28 2 0
BITMAP
1008
1818
1C38
0E70
07E0
07C0
03C0
0000
0000
03FC
0FFE
1E3E
3C1E
7C1E
7800
F800
F800
F800
F800
F800
F800
F800
FC00
7C04
7E1E
3FFC
1FF8
07E0
ENDCHAR
STARTCHAR Dcaron
ENCODING 270
SWIDTH 704 0
DWIDTH 27 0
BBX 23 34 2 0
BITMAP
010080
03C3C0
01E780
00FF00
007E00
003C00
000000
000000
FFFE00
7FFFC0
3F0FE0
3F03F0
3F01F8
3F00FC
3F00FC
3F00FC
3F007E
3F007E
3F007E
3F007E
3F007E
3F007E
3F007E
3F007E
3F007E
3F007C
3F00FC
3F00FC
3F00F8
3F01F8
3F03F0
3F07E0
7FFF80
FFFC00
ENDCHAR
STARTCHAR dcaron
ENCODING 271
SWIDTH 724 0
DWIDTH 28 0
BBX 25 27 2 0
BITMAP
003F8F00
001F8F00
000F8780
000F8F00
000F8F00
000F8E00
000F8C00
000F8800
07FF8000
1FFF8000
3E1F8000
7C1F8000
7C0F8000
780F8000
F80F8000
F80F8000
F80F8000
F80F8000
F80F8000
F80F8000
F80F8000
FC0F8000
7C1F8000
7E3F8000
7FFF8000
3FCFC000
0F8FE000
ENDCHAR
STARTCHAR Dcroat
ENCODING 272
SWIDTH 708 0
DWIDTH 27 0
BBX 24 26 1 0
BITMAP
7FFF00
3FFFE0
1F87F0
1F81F8
1F80FC
1F807E
1F807E
1F807E
1F803F
1F803F
1F803F
1F803F
FFFC3F
FFFC3F
1F803F
1F803F
1F803F
1F803E
1F807E
1F807E
1F807C
1F80FC
1F81F8
1F83F0
3FFFC0
7FFE00
ENDCHAR
STARTCHAR dcroat
ENCODING 273
SWIDTH 597 0
DWIDTH 23 0
BBX 19 27 2 0
BITMAP
003F80
001F80
000F80
000F80
03FFE0
03FFE0
000F80
000F80
07FF80
1FFF80
3E1F80
7C1F80
7C0F80
780F80
F80F80
F80F80
F80F80
F80F80
F80F80
F80F80
F80F80
FC0F80
7C1F80
7E3F80
7FFF80
3FCFC0
0F8FE0
ENDCHAR
STARTCHAR Emacron
ENCODING 274
SWIDTH 577 0
DWIDTH 22 0
BBX 18 31 2 0
BITMAP
0FFE00
0FFE00
0FFE00
000000
000000
FFFFC0
7FFFC0
3F07C0
3F03C0
3F01C0
3F01C0
3F0000
3F0000
3F0000
3F0600
3F0600
3F0E00
3FFE00
3FFE00
3F0E00
3F0600
3F0600
3F0000
3F0000
3F01C0
3F01C0
3F03C0
3F03C0
3F07C0
7FFFC0
FFFFC0
ENDCHAR
STARTCHAR emacron
ENCODING 275
SWIDTH 530 0
DWIDTH 20 0
BBX 16 25 2 0
BITMAP
1FF8
1FF8
1FF8
0000
0000
0000
07E0
1FF8
3E3C
3C3E
7C1E
781E
F81F
F81F
FFFF
FFFF
F800
F800
F800
FC00
7C02
7E0F
3FFE
1FFC
07F0
ENDCHAR
STARTCHAR Ebreve
ENCODING 276
SWIDTH 577 0
DWIDTH 22 0
BBX 18 34 2 0
BITMAP
0C0600
0E0600
0F0E00
07FE00
03FC00
01F000
000000
000000
FFFFC0
7FFFC0
3F07C0
3F03C0
3F01C0
3F01C0
3F0000
3F0000
3F0000
3F0600
3F0600
3F0E00
3FFE00
3FFE00
3F0E00
3F0600
3F0600
3F0000
3F0000
3F01C0
3F01C0
3F03C0
3F03C0
3F07C0
7FFFC0
FFFFC0
ENDCHAR
STARTCHAR ebreve
ENCODING 277
SWIDTH 530 0
DWIDTH 20 0
BBX 16 27 2 0
BITMAP
300C
381C
1C38
1FF8
0FF0
07E0
0000
0000
07E0
1FF8
3E3C
3C3E
7C1E
781E
F81F
F81F
FFFF
FFFF
F800
F800
F800
FC00
7C02
7E0F
3FFE
1FFC
07F0
ENDCHAR
STARTCHAR Edotaccent
ENCODING 278
SWIDTH 577 0
DWIDTH 22 0
BBX 18 33 2 0
BITMAP
01F000
01F000
01F000
01F000
01F000
000000
000000
FFFFC0
7FFFC0
3F07C0
3F03C0
3F01C0
3F01C0
3F0000
3F0000
3F0000
3F0600
3F0600
3F0E00
3FFE00
3FFE00
3F0E00
3F0600
3F0600
3F0000
3F0000
3F01C0
3F01C0
3F03C0
3F03C0
3F07C0
7FFFC0
FFFFC0
ENDCHAR
STARTCHAR edotaccent
ENCODING 279
SWIDTH 530 0
DWIDTH 20 0
BBX 16 26 2 0
BITMAP
03E0
03E0
03E0
03E0
03E0
0000
0000
07E0
1FF8
3E3C
3C3E
7C1E
781E
F81F
F81F
FFFF
FFFF
F800
F800
F800
FC00
7C02
7E0F
3FFE
1FFC
07F0
ENDCHAR
STARTCHAR Eogonek
ENCODING 280
SWIDTH 577 0
DWIDTH 22 0
BBX 18 34 2 -8
BITMAP
FFFFC0
7FFFC0
3F07C0
3F03C0
3F01C0
3F01C0
3F0000
3F0000
3F0000
3F0600
3F0600
3F0E00
3FFE00
3FFE00
3F0E00
3F0600
3F0600
3F0000
3F0000
3F01C0
3F01C0
3F03C0
3F03C0
3F07C0
7FFFC0
FFFFC0
000700
000E00
000C00
001C00
001C00
001C40
001FC0
000780
ENDCHAR
STARTCHAR eogonek
ENCODING 281
SWIDTH 530 0
DWIDTH 20 0
BBX 16 27 2 -8
BITMAP
07E0
1FF8
3E3C
3C3E
7C1E
781E
F81F
F81F
FFFF
FFFF
F800
F800
F800
FC00
7C02
7E0F
3FFE
1FFC
07F8
0030
0070
0060
00E0
00E0
00E2
00FE
003C
ENDCHAR
STARTCHAR Ecaron
ENCODING 282
SWIDTH 577 0
DWIDTH 22 0
BBX 18 34 2 0
BITMAP
040200
0E0F00
079E00
03FC00
01F800
00F000
000000
000000
FFFFC0
7FFFC0
3F07C0
3F03C0
3F01C0
3F01C0
3F0000
3F0000
3F0000
3F0600
3F0600
3F0E00
3FFE00
3FFE00
3F0E00
3F0600
3F0600
3F0000
3F0000
3F01C0
3F01C0
3F03C0
3F03C0
3F07C0
7FFFC0
FFFFC0
ENDCHAR
STARTCHAR ecaron
ENCODING 283
SWIDTH 530 0
DWIDTH 20 0
BBX 16 28 2 0
BITMAP
0808
1C1C
0E38
0F70
07F0
03E0
03C0
0000
0000
07E0
1FF8
3E3C
3C3E
7C1E
781E
F81F
F81F
FFFF
FFFF
F800
F800
F800
FC00
7C02
7E0F
3FFE
1FFC
07F0
ENDCHAR
STARTCHAR Gcircumflex
ENCODING 284
SWIDTH 646 0
DWIDTH 25 0
BBX 22 34 2 0
BITMAP
007800
00FC00
01FE00
03CF00
078380
020100
000000
000000
00FFC0
03FFF0
0FC1F0
1F80F0
3F00F0
3E0070
7E0000
7E0000
7C0000
FC0000
FC0000
FC0000
FC0000
FC0000
FC0FFC
FC07F8
FC03F0
FC03F0
7C03F0
7E03F0
7E03F0
3E03F0
3F03F0
1F87F0
07FFF0
01FC70
ENDCHAR
STARTCHAR gcircumflex
ENCODING 285
SWIDTH 520 0
DWIDTH 20 0
BBX 19 35 1 -8
BITMAP
00F000
00F800
01F800
039C00
070E00
060600
040200
000000
03FFE0
1FFFE0
3E1F00
3C1F00
7C0F80
7C0F80
7C0F80
7C0F80
7C0F80
3E1F00
3E1F00
1FFE00
1FF800
380000
780000
780000
7FFF00
7FFFC0
3FFFE0
3FFFE0
7807E0
F003E0
F003E0
F003C0
FC0FC0
7FFF00
0FFC00
ENDCHAR
STARTCHAR Gbreve
ENCODING 286
SWIDTH 646 0
DWIDTH 25 0
BBX 22 34 2 0
BITMAP
060180
070380
038780
03FF00
01FE00
007C00
000000
000000
00FFC0
03FFF0
0FC1F0
1F80F0
3F00F0
3E0070
7E0000
7E0000
7C0000
FC0000
FC0000
FC0000
FC0000
FC0000
FC0FFC
FC07F8
FC03F0
FC03F0
7C03F0
7E03F0
7E03F0
3E03F0
3F03F0
1F87F0
07FFF0
01FC70
ENDCHAR
STARTCHAR gbreve
ENCODING 287
SWIDTH 520 0
DWIDTH 20 0
BBX 19 35 1 -8
BITMAP
0C0600
0C0600
0E0E00
07FC00
07FC00
01F000
000000
000000
03FFE0
1FFFE0
3E1F00
3C1F00
7C0F80
7C0F80
7C0F80
7C0F80
7C0F80
3E1F00
3E1F00
1FFE00
1FF800
380000
780000
780000
7FFF00
7FFFC0
3FFFE0
3FFFE0
7807E0
F003E0
F003E0
F003C0
FC0FC0
7FFF00
0FFC00
ENDCHAR
STARTCHAR Gdotaccent
ENCODING 288
SWIDTH 646 0
DWIDTH 25 0
BBX 22 33 2 0
BITMAP
007C00
007C00
007C00
007C00
007C00
000000
000000
00FFC0
03FFF0
0FC1F0
1F80F0
3F00F0
3E0070
7E0000
7E0000
7C0000
FC0000
FC0000
FC0000
FC0000
FC0000
FC0FFC
FC07F8
FC03F0
FC03F0
7C03F0
7E03F0
7E03F0
3E03F0
3F03F0
1F87F0
07FFF0
01FC70
ENDCHAR
STARTCHAR gdotaccent
ENCODING 289
SWIDTH 520 0
DWIDTH 20 0
BBX 19 34 1 -8
BITMAP
00F800
00F800
00F800
00F800
00F800
000000
000000
03FFE0
1FFFE0
3E1F00
3C1F00
7C0F80
7C0F80
7C0F80
7C0F80
7C0F80
3E1F00
3E1F00
1FFE00
1FF800
380000
780000
780000
7FFF00
7FFFC0
3FFFE0
3FFFE0
7807E0
F003E0
F003E0
F003C0
FC0FC0
7FFF00
0FFC00
ENDCHAR
STARTCHAR uni0122
ENCODING 290
SWIDTH 646 0
DWIDTH 25 0
BBX 22 34 2 -8
BITMAP
00FFC0
03FFF0
0FC1F0
1F80F0
3F00F0
3E0070
7E0000
7E0000
7C0000
FC0000
FC0000
FC0000
FC0000
FC0000
FC0FFC
FC07F8
FC03F0
FC03F0
7C03F0
7E03F0
7E03F0
3E03F0
3F03F0
1F87F0
07FFF0
01FC70
000000
000000
003C00
003C00
003C00
007C00
01F800
01E000
ENDCHAR
STARTCHAR uni0123
ENCODING 291
SWIDTH 520 0
DWIDTH 20 0
BBX 19 37 1 -8
BITMAP
001800
003800
007000
00F000
01E000
01E000
01E000
00E000
000000
000000
03FFE0
1FFFE0
3E1F00
3C1F00
7C0F80
7C0F80
7C0F80
7C0F80
7C0F80
3E1F00
3E1F00
1FFE00
1FF800
380000
780000
780000
7FFF00
7FFFC0
3FFFE0
3FFFE0
7807E0
F003E0
F003E0
F003C0
FC0FC0
7FFF00
0FFC00
ENDCHAR
STARTCHAR Hcircumflex
ENCODING 292
SWIDTH 721 0
DWIDTH 27 0
BBX 24 34 2 0
BITMAP
003C00
007E00
00FF00
01E780
01C1C0
010080
000000
000000
FFC3FF
7F81FE
3F00FC
3F00FC
3F00FC
3F00FC
3F00FC
3F00FC
3F00FC
3F00FC
3F00FC
3F00FC
3FFFFC
3FFFFC
3F00FC
3F00FC
3F00FC
3F00FC
3F00FC
3F00FC
3F00FC
3F00FC
3F00FC
3F00FC
7F81FE
FFC3FF
ENDCHAR
STARTCHAR hcircumflex
ENCODING 293
SWIDTH 596 0
DWIDTH 23 0
BBX 20 34 1 0
BITMAP
00F000
01F800
03FC00
079E00
0E0F00
040200
000000
FE0000
7E0000
3E0000
3E0000
3E0000
3E0000
3E0000
3E0000
3E3E00
3E7F80
3FFF80
3F8FC0
3F07C0
3E07C0
3E07C0
3E07C0
3E07C0
3E07C0
3E07C0
3E07C0
3E07C0
3E07C0
3E07C0
3E07C0
3E07C0
7F0FE0
FF9FF0
ENDCHAR
STARTCHAR Hbar
ENCODING 294
SWIDTH 726 0
DWIDTH 28 0
BBX 24 26 2 0
BITMAP
FFC3FF
7F81FE
3F00FC
3F00FC
3F00FC
3F00FC
3F00FC
3F00FC
3F00FC
3FFFFC
3FFFFC
3F00FC
3F00FC
3F00FC
3F00FC
3FFFFC
3FFFFC
3F00FC
3F00FC
3F00FC
3F00FC
3F00FC
3F00FC
3F00FC
7F81FE
FFC3FF
ENDCHAR
STARTCHAR hbar
ENCODING 295
SWIDTH 596 0
DWIDTH 23 0
BBX 20 27 1 0
BITMAP
FE0000
3E0000
3E0000
FFF800
FFF800
3E0000
3E0000
3E0000
3E3E00
3E7F80
3FFF80
3F8FC0
3F07C0
3E07C0
3E07C0
3E07C0
3E07C0
3E07C0
3E07C0
3E07C0
3E07C0
3E07C0
3E07C0
3E07C0
3E07C0
7F0FE0
FF9FF0
ENDCHAR
STARTCHAR Itilde
ENCODING 296
SWIDTH 349 0
DWIDTH 13 0
BBX 12 33 2 0
BITMAP
3830
7E70
FFE0
C7E0
83C0
0000
0000
FFC0
7F80
3F00
3F00
3F00
3F00
3F00
3F00
3F00
3F00
3F00
3F00
3F00
3F00
3F00
3F00
3F00
3F00
3F00
3F00
3F00
3F00
3F00
3F00
7F80
FFC0
ENDCHAR
STARTCHAR itilde
ENCODING 297
SWIDTH 314 0
DWIDTH 12 0
BBX 12 26 0 0
BITMAP
3C10
7E30
7FF0
C7E0
C1C0
0000
0000
7F00
3F00
1F00
1F00
1F00
1F00
1F00
1F00
1F00
1F00
1F00
1F00
1F00
1F00
1F00
1F00
1F00
3F80
7FC0
ENDCHAR
STARTCHAR Imacron
ENCODING 298
SWIDTH 349 0
DWIDTH 13 0
BBX 11 31 2 0
BITMAP
FFE0
FFE0
FFE0
0000
0000
FFC0
7F80
3F00
3F00
3F00
3F00
3F00
3F00
3F00
3F00
3F00
3F00
3F00
3F00
3F00
3F00
3F00
3F00
3F00
3F00
3F00
3F00
3F00
3F00
7F80
FFC0
ENDCHAR
STARTCHAR imacron
ENCODING 299
SWIDTH 314 0
DWIDTH 12 0
BBX 10 25 1 0
BITMAP
FFC0
FFC0
FFC0
0000
0000
0000
FE00
7E00
3E00
3E00
3E00
3E00
3E00
3E00
3E00
3E00
3E00
3E00
3E00
3E00
3E00
3E00
3E00
7F00
FF80
ENDCHAR
STARTCHAR Ibreve
ENCODING 300
SWIDTH 349 0
DWIDTH 13 0
BBX 12 34 1 0
BITMAP
C030
E070
70F0
7FE0
3FC0
0F80
0000
0000
7FE0
3FC0
1F80
1F80
1F80
1F80
1F80
1F80
1F80
1F80
1F80
1F80
1F80
1F80
1F80
1F80
1F80
1F80
1F80
1F80
1F80
1F80
1F80
1F80
3FC0
7FE0
ENDCHAR
STARTCHAR ibreve
ENCODING 301
SWIDTH 314 0
DWIDTH 12 0
BBX 11 27 0 0
BITMAP
C060
C060
E0E0
7FC0
7FC0
1F00
0000
0000
7F00
3F00
1F00
1F00
1F00
1F00
1F00
1F00
1F00
1F00
1F00
1F00
1F00
1F00
1F00
1F00
1F00
3F80
7FC0
ENDCHAR
STARTCHAR Iogonek
ENCODING 302
SWIDTH 349 0
DWIDTH 13 0
BBX 10 34 2 -8
BITMAP
FFC0
7F80
3F00
3F00
3F00
3F00
3F00
3F00
3F00
3F00
3F00
3F00
3F00
3F00
3F00
3F00
3F00
3F00
3F00
3F00
3F00
3F00
3F00
3F00
7F80
FFC0
0700
0E00
0C00
1C00
1C00
1C40
1FC0
0780
ENDCHAR
STARTCHAR iogonek
ENCODING 303
SWIDTH 314 0
DWIDTH 12 0
BBX 9 34 1 -8
BITMAP
3E00
3E00
3E00
3E00
3E00
0000
0000
FE00
7E00
3E00
3E00
3E00
3E00
3E00
3E00
3E00
3E00
3E00
3E00
3E00
3E00
3E00
3E00
3E00
7F00
FF80
0E00
1C00
1800
3800
3800
3880
3F80
0F00
ENDCHAR
STARTCHAR Idotaccent
ENCODING 304
SWIDTH 349 0
DWIDTH 13 0
BBX 10 33 2 0
BITMAP
1F00
1F00
1F00
1F00
1F00
0000
0000
FFC0
7F80
3F00
3F00
3F00
3F00
3F00
3F00
3F00
3F00
3F00
3F00
3F00
3F00
3F00
3F00
3F00
3F00
3F00
3F00
3F00
3F00
3F00
3F00
7F80
FFC0
ENDCHAR
STARTCHAR dotlessi
ENCODING 305
SWIDTH 314 0
DWIDTH 12 0
BBX 9 19 1 0
BITMAP
FE00
7E00
3E00
3E00
3E00
3E00
3E00
3E00
3E00
3E00
3E00
3E00
3E00
3E00
3E00
3E00
3E00
7F00
FF80
ENDCHAR
STARTCHAR IJ
ENCODING 306
SWIDTH 690 0
DWIDTH 26 0
BBX 23 33 2 -7
BITMAP
FFC7FE
7F83FC
3F01F8
3F01F8
3F01F8
3F01F8
3F01F8
3F01F8
3F01F8
3F01F8
3F01F8
3F01F8
3F01F8
3F01F8
3F01F8
3F01F8
3F01F8
3F01F8
3F01F8
3F01F8
3F01F8
3F01F8
3F01F8
3F01F8
7F81F8
FFC1F8
0001F8
0001F8
0001F0
0003F0
0007C0
000780
000600
ENDCHAR
STARTCHAR ij
ENCODING 307
SWIDTH 616 0
DWIDTH 23 0
BBX 19 34 1 -8
BITMAP
3E03E0
3E03E0
3E03E0
3E03E0
3E03E0
000000
000000
FE0FE0
7E07E0
3E03E0
3E03E0
3E03E0
3E03E0
3E03E0
3E03E0
3E03E0
3E03E0
3E03E0
3E03E0
3E03E0
3E03E0
3E03E0
3E03E0
3E03E0
7F03E0
FF83E0
0003E0
0003E0
0003C0
0007C0
000F80
001F80
001E00
000800
ENDCHAR
STARTCHAR Jcircumflex
ENCODING 308
SWIDTH 340 0
DWIDTH 13 0
BBX 12 41 1 -7
BITMAP
0F00
1F80
3FC0
79E0
F070
4020
0000
0000
7FE0
3FC0
1F80
1F80
1F80
1F80
1F80
1F80
1F80
1F80
1F80
1F80
1F80
1F80
1F80
1F80
1F80
1F80
1F80
1F80
1F80
1F80
1F80
1F80
1F80
1F80
1F80
1F00
1F00
3E00
7C00
F800
4000
ENDCHAR
STARTCHAR jcircumflex
ENCODING 309
SWIDTH 302 0
DWIDTH 11 0
BBX 11 36 0 -8
BITMAP
0F00
1F00
3F80
3BC0
71C0
E0E0
4040
0000
0000
7F00
3F00
1F00
1F00
1F00
1F00
1F00
1F00
1F00
1F00
1F00
1F00
1F00
1F00
1F00
1F00
1F00
1F00
1F00
1F00
1F00
1E00
3E00
7E00
FC00
F000
4000
ENDCHAR
STARTCHAR uni0136
ENCODING 310
SWIDTH 681 0
DWIDTH 26 0
BBX 24 34 2 -8
BITMAP
FFC3FE
7F81FC
3F01F8
3F01F0
3F01E0
3F03C0
3F03C0
3F0780
3F0F00
3F0E00
3F1E00
3F3C00
3FFE00
3FFF00
3F3F00
3F3F80
3F1F80
3F0FC0
3F0FE0
3F07E0
3F07F0
3F03F8
3F03F8
3F01FC
7F81FE
FFC3FF
000000
000000
003800
003C00
007C00
007800
01F000
01C000
ENDCHAR
STARTCHAR uni0137
ENCODING 311
SWIDTH 591 0
DWIDTH 22 0
BBX 21 35 1 -8
BITMAP
FE0000
7E0000
3E0000
3E0000
3E0000
3E0000
3E0000
3E0000
3E1FF0
3E0FE0
3E0FC0
3E0F80
3E0F00
3E1E00
3E3C00
3E7800
3FFC00
3FFE00
3E7E00
3E3F00
3E3F00
3E1F80
3E0FC0
3E0FC0
3E07E0
7F07F0
FF8FF8
000000
000000
007800
007800
007800
00F800
03F000
03C000
ENDCHAR
STARTCHAR kgreenlandic
ENCODING 312
SWIDTH 598 0
DWIDTH 23 0
BBX 22 19 1 0
BITMAP
FE0FF8
7E07F0
3E07C0
3E0780
3E0700
3E0E00
3E1C00
3E3C00
3FFC00
3FFE00
3E7F00
3E3F00
3E1F80
3E0FC0
3E0FC0
3E07E0
3E03F0
7F03F8
FF87FC
ENDCHAR
STARTCHAR Lacute
ENCODING 313
SWIDTH 550 0
DWIDTH 21 0
BBX 18 33 2 0
BITMAP
003C00
007C00
00F000
01E000
038000
020000
000000
FFC000
7F8000
3F0000
3F0000
3F0000
3F0000
3F0000
3F0000
3F0000
3F0000
3F0000
3F0000
3F0000
3F0000
3F0000
3F0000
3F0000
3F0000
3F01C0
3F01C0
3F03C0
3F03C0
3F03C0
3F07C0
7FFFC0
FFFFC0
ENDCHAR
STARTCHAR lacute
ENCODING 314
SWIDTH 308 0
DWIDTH 12 0
BBX 11 34 1 0
BITMAP
03E0
07C0
0F80
1E00
3800
1000
0000
FE00
7E00
3E00
3E00
3E00
3E00
3E00
3E00
3E00
3E00
3E00
3E00
3E00
3E00
3E00
3E00
3E00
3E00
3E00
3E00
3E00
3E00
3E00
3E00
3E00
7F00
FF80
ENDCHAR
STARTCHAR uni013B
ENCODING 315
SWIDTH 550 0
DWIDTH 21 0
BBX 18 34 2 -8
BITMAP
FFC000
7F8000
3F0000
3F0000
3F0000
3F0000
3F0000
3F0000
3F0000
3F0000
3F0000
3F0000
3F0000
3F0000
3F0000
3F0000
3F0000
3F0000
3F01C0
3F01C0
3F03C0
3F03C0
3F03C0
3F07C0
7FFFC0
FFFFC0
000000
000000
00F000
00F000
00F000
01F000
07E000
078000
ENDCHAR
STARTCHAR uni013C
ENCODING 316
SWIDTH 308 0
DWIDTH 12 0
BBX 9 35 1 -8
BITMAP
FE00
7E00
3E00
3E00
3E00
3E00
3E00
3E00
3E00
3E00
3E00
3E00
3E00
3E00
3E00
3E00
3E00
3E00
3E00
3E00
3E00
3E00
3E00
3E00
3E00
7F00
FF80
0000
0000
1E00
1E00
1E00
3C00
FC00
E000
ENDCHAR
STARTCHAR Lcaron
ENCODING 317
SWIDTH 550 0
DWIDTH 21 0
BBX 18 27 2 0
BITMAP
000700
FFC780
7F8780
3F0780
3F0700
3F0F00
3F0E00
3F0C00
3F0000
3F0000
3F0000
3F0000
3F0000
3F0000
3F0000
3F0000
3F0000
3F0000
3F0000
3F01C0
3F01C0
3F03C0
3F03C0
3F03C0
3F07C0
7FFFC0
FFFFC0
ENDCHAR
STARTCHAR lcaron
ENCODING 318
SWIDTH 435 0
DWIDTH 17 0
BBX 15 27 1 0
BITMAP
FE3C
7E3C
3E1E
3E1C
3E3C
3E38
3E30
3E20
3E00
3E00
3E00
3E00
3E00
3E00
3E00
3E00
3E00
3E00
3E00
3E00
3E00
3E00
3E00
3E00
3E00
7F00
FF80
ENDCHAR
STARTCHAR Ldot
ENCODING 319
SWIDTH 671 0
DWIDTH 26 0
BBX 24 26 2 0
BITMAP
FFC000
7F8000
3F0000
3F0000
3F0000
3F0000
3F0000
3F0000
3F0000
3F0000
3F001F
3F001F
3F001F
3F001F
3F001F
3F0000
3F0000
3F0000
3F01C0
3F01C0
3F03C0
3F03C0
3F03C0
3F07C0
7FFFC0
FFFFC0
ENDCHAR
STARTCHAR ldot
ENCODING 320
SWIDTH 442 0
DWIDTH 17 0
BBX 15 27 1 0
BITMAP
FE00
7E00
3E00
3E00
3E00
3E00
3E00
3E00
3E00
3E00
3E00
3E00
3E3E
3E3E
3E3E
3E3E
3E3E
3E00
3E00
3E00
3E00
3E00
3E00
3E00
3E00
7F00
FF80
ENDCHAR
STARTCHAR Lslash
ENCODING 321
SWIDTH 555 0
DWIDTH 21 0
BBX 20 26 0 0
BITMAP
3FF000
1FE000
0FC000
0FC000
0FC000
0FC000
0FC100
0FC780
0FCF00
0FFE00
0FF800
0FF000
0FC000
1FC000
7FC000
FFC000
4FC000
0FC000
0FC070
0FC070
0FC0F0
0FC0F0
0FC0F0
0FC1F0
1FFFF0
3FFFF0
ENDCHAR
STARTCHAR lslash
ENCODING 322
SWIDTH 342 0
DWIDTH 13 0
BBX 13 27 0 0
BITMAP
3F80
1F80
0F80
0F80
0F80
0F80
0F80
0F80
0F90
0FF8
0FF0
0FC0
0F80
1F80
7F80
FF80
4F80
0F80
0F80
0F80
0F80
0F80
0F80
0F80
0F80
1FC0
3FE0
ENDCHAR
STARTCHAR Nacute
ENCODING 323
SWIDTH 679 0
DWIDTH 26 0
BBX 22 33 2 0
BITMAP
000780
000F80
001E00
003C00
007000
004000
000000
FF01FC
7F00F8
3F8070
3F8070
3FC070
3FC070
3FE070
3FF070
3BF070
3BF870
39F870
38FC70
38FC70
387E70
387E70
383F70
383F70
381FF0
381FF0
380FF0
380FF0
3807F0
3807F0
3803F0
7C01F0
FE01F0
ENDCHAR
STARTCHAR nacute
ENCODING 324
SWIDTH 603 0
DWIDTH 23 0
BBX 20 27 1 0
BITMAP
003E00
003C00
007800
00F000
00E000
01C000
008000
000000
FF1F00
7F7F80
3FFF80
3F8FC0
3F07C0
3E07C0
3E07C0
3E07C0
3E07C0
3E07C0
3E07C0
3E07C0
3E07C0
3E07C0
3E07C0
3E07C0
3E07C0
7F0FE0
FF9FF0
ENDCHAR
STARTCHAR uni0145
ENCODING 325
SWIDTH 679 0
DWIDTH 26 0
BBX 22 34 2 -8
BITMAP
FF01FC
7F00F8
3F8070
3F8070
3FC070
3FC070
3FE070
3FF070
3BF070
3BF870
39F870
38FC70
38FC70
387E70
387E70
383F70
383F70
381FF0
381FF0
380FF0
380FF0
3807F0
3807F0
3803F0
7C01F0
FE01F0
000000
000000
007800
007800
007800
00F800
03F000
03C000
ENDCHAR
STARTCHAR uni0146
ENCODING 326
SWIDTH 603 0
DWIDTH 23 0
BBX 20 27 1 -8
BITMAP
FF1F00
7F7F80
3FFF80
3F8FC0
3F07C0
3E07C0
3E07C0
3E07C0
3E07C0
3E07C0
3E07C0
3E07C0
3E07C0
3E07C0
3E07C0
3E07C0
3E07C0
7F0FE0
FF9FF0
000000
000000
007800
007800
007800
00F000
03F000
03C000
ENDCHAR
STARTCHAR Ncaron
ENCODING 327
SWIDTH 679 0
DWIDTH 26 0
BBX 22 34 2 0
BITMAP
010080
03C1C0
01E780
00FF00
007E00
003C00
000000
000000
FF01FC
7F00F8
3F8070
3F8070
3FC070
3FC070
3FE070
3FF070
3BF070
3BF870
39F870
38FC70
38FC70
387E70
387E70
383F70
383F70
381FF0
381FF0
380FF0
380FF0
3807F0
3807F0
3803F0
7C01F0
FE01F0
ENDCHAR
STARTCHAR ncaron
ENCODING 328
SWIDTH 603 0
DWIDTH 23 0
BBX 20 28 1 0
BITMAP
040400
0E0E00
071C00
03B800
03F800
01F000
01E000
000000
000000
FF1F00
7F7F80
3FFF80
3F8FC0
3F07C0
3E07C0
3E07C0
3E07C0
3E07C0
3E07C0
3E07C0
3E07C0
3E07C0
3E07C0
3E07C0
3E07C0
3E07C0
7F0FE0
FF9FF0
ENDCHAR
STARTCHAR napostrophe
ENCODING 329
SWIDTH 743 0
DWIDTH 28 0
BBX 26 27 1 0
BITMAP
3E000000
3E000000
3E000000
3E000000
3E000000
3C000000
7C000000
78000000
F3FC7C00
60FCFE00
00FFFF00
00FE3F00
00FC1F00
00F81F00
00F81F00
00F81F00
00F81F00
00F81F00
00F81F00
00F81F00
00F81F00
00F81F00
00F81F00
00F81F00
00F81F00
01FC1F80
03FE3FC0
ENDCHAR
STARTCHAR Eng
ENCODING 330
SWIDTH 679 0
DWIDTH 26 0
BBX 22 34 2 -8
BITMAP
FF01FC
7F00F8
3F8070
3F8070
3FC070
3FC070
3FE070
3FF070
3BF070
3BF870
39F870
38FC70
38FC70
387E70
387E70
383F70
383F70
381FF0
381FF0
380FF0
380FF0
3807F0
3807F0
3803F0
7C01F0
FE01F0
000070
000070
000070
0018F0
0018E0
001FE0
001FC0
001F80
ENDCHAR
STARTCHAR eng
ENCODING 331
SWIDTH 599 0
DWIDTH 23 0
BBX 18 27 1 -8
BITMAP
FE3E00
7E7F80
3FFF80
3F8FC0
3F07C0
3E07C0
3E07C0
3E07C0
3E07C0
3E07C0
3E07C0
3E07C0
3E07C0
3E07C0
3E07C0
3E07C0
3E07C0
7F07C0
FF87C0
0007C0
0007C0
0007C0
0007C0
01C780
01CF80
01FF00
01FC00
ENDCHAR
STARTCHAR Omacron
ENCODING 332
SWIDTH 695 0
DWIDTH 26 0
BBX 22 31 2 0
BITMAP
03FF80
03FF80
03FF80
000000
000000
00FE00
07FF80
0F87E0
1F03E0
3E01F0
3E01F8
7E01F8
7C00F8
FC00FC
FC00FC
FC00FC
FC00FC
FC00FC
FC00FC
FC00FC
FC00FC
FC00FC
FC00FC
7C00F8
7E01F8
7E01F8
3E01F0
3F03E0
1F87C0
07FF80
01FC00
ENDCHAR
STARTCHAR omacron
ENCODING 333
SWIDTH 569 0
DWIDTH 22 0
BBX 18 25 2 0
BITMAP
0FFC00
0FFC00
0FFC00
000000
000000
000000
03F800
0FFE00
3E1F00
3C0F80
7C0F80
7807C0
F807C0
F807C0
F807C0
F807C0
F807C0
F807C0
F807C0
F80780
7C0F80
7C0F00
3E1F00
1FFC00
07F000
ENDCHAR
STARTCHAR Obreve
ENCODING 334
SWIDTH 695 0
DWIDTH 26 0
BBX 22 34 2 0
BITMAP
060180
070380
078700
03FF00
01FE00
00F800
000000
000000
00FE00
07FF80
0F87E0
1F03E0
3E01F0
3E01F8
7E01F8
7C00F8
FC00FC
FC00FC
FC00FC
FC00FC
FC00FC
FC00FC
FC00FC
FC00FC
FC00FC
FC00FC
7C00F8
7E01F8
7E01F8
3E01F0
3F03E0
1F87C0
07FF80
01FC00
ENDCHAR
STARTCHAR obreve
ENCODING 335
SWIDTH 569 0
DWIDTH 22 0
BBX 18 27 2 0
BITMAP
0C0600
0C0600
0E0E00
07FC00
07F800
01F000
000000
000000
03F800
0FFE00
3E1F00
3C0F80
7C0F80
7807C0
F807C0
F807C0
F807C0
F807C0
F807C0
F807C0
F807C0
F80780
7C0F80
7C0F00
3E1F00
1FFC00
07F000
ENDCHAR
STARTCHAR Ohungarumlaut
ENCODING 336
SWIDTH 695 0
DWIDTH 26 0
BBX 22 33 2 0
BITMAP
003CF0
0079E0
00F3C0
01C700
038E00
030800
000000
00FE00
07FF80
0F87E0
1F03E0
3E01F0
3E01F8
7E01F8
7C00F8
FC00FC
FC00FC
FC00FC
FC00FC
FC00FC
FC00FC
FC00FC
FC00FC
FC00FC
FC00FC
7C00F8
7E01F8
7E01F8
3E01F0
3F03E0
1F87C0
07FF80
01FC00
ENDCHAR
STARTCHAR ohungarumlaut
ENCODING 337
SWIDTH 569 0
DWIDTH 22 0
BBX 18 27 2 0
BITMAP
00E380
01E780
03CF00
038E00
071C00
0E3800
041000
000000
03F800
0FFE00
3E1F00
3C0F80
7C0F80
7807C0
F807C0
F807C0
F807C0
F807C0
F807C0
F807C0
F807C0
F80780
7C0F80
7C0F00
3E1F00
1FFC00
07F000
ENDCHAR
STARTCHAR OE
ENCODING 338
SWIDTH 952 0
DWIDTH 36 0
BBX 32 26 2 0
BITMAP
00FE3FFF
07FFBFFF
0F87FC1F
1F03FC0F
3E01FC07
3E01FC07
7E01FC00
7C00FC00
FC00FC00
FC00FC18
FC00FC18
FC00FC38
FC00FFF8
FC00FFF8
FC00FC38
FC00FC18
FC00FC18
FC00FC00
7C00FC00
7E01FC07
7E01FC07
3E01FC0F
3F03FC0F
1F87FC1F
07FF3FFF
01FC3FFF
ENDCHAR
STARTCHAR oe
ENCODING 339
SWIDTH 856 0
DWIDTH 33 0
BBX 29 19 2 0
BITMAP
03F01F00
0FFC7FC0
3E1FF1E0
3C0FE1F0
7C0FE0F0
7807C0F0
F807C0F8
F807C0F8
F807FFF8
F807FFF8
F807C000
F807C000
F807C000
F807E000
7C0FE010
7C0FF078
3E1FFFF0
1FFC7FE0
07F03F80
ENDCHAR
STARTCHAR Racute
ENCODING 340
SWIDTH 661 0
DWIDTH 25 0
BBX 23 33 2 0
BITMAP
000F80
001F00
003E00
007800
00E000
00C000
000000
FFFE00
7FFF80
3F0FE0
3F07E0
3F03F0
3F03F0
3F03F0
3F03F0
3F03F0
3F03F0
3F03E0
3F07E0
3F0FC0
3FFF00
3FFE00
3F1F80
3F1FC0
3F0FC0
3F0FE0
3F07E0
3F07E0
3F03F0
3F03F0
3F03F8
7F81FC
FFC0FE
ENDCHAR
STARTCHAR racute
ENCODING 341
SWIDTH 461 0
DWIDTH 18 0
BBX 16 27 1 0
BITMAP
0078
00F8
01F0
01C0
0380
0700
0200
0000
FE1F
7E7F
3FFF
3F8F
3F07
3E00
3E00
3E00
3E00
3E00
3E00
3E00
3E00
3E00
3E00
3E00
3E00
7F00
FF80
ENDCHAR
STARTCHAR uni0156
ENCODING 342
SWIDTH 661 0
DWIDTH 25 0
BBX 23 34 2 -8
BITMAP
FFFE00
7FFF80
3F0FE0
3F07E0
3F03F0
3F03F0
3F03F0
3F03F0
3F03F0
3F03F0
3F03E0
3F07E0
3F0FC0
3FFF00
3FFE00
3F1F80
3F1FC0
3F0FC0
3F0FE0
3F07E0
3F07E0
3F03F0
3F03F0
3F03F8
7F81FC
FFC0FE
000000
000000
007800
007800
007800
00F800
03F000
01C000
ENDCHAR
STARTCHAR uni0157
ENCODING 343
SWIDTH 461 0
DWIDTH 18 0
BBX 16 27 1 -8
BITMAP
FE1F
7E7F
3FFF
3F8F
3F07
3E00
3E00
3E00
3E00
3E00
3E00
3E00
3E00
3E00
3E00
3E00
3E00
7F00
FF80
0000
0000
0E00
0F00
0F00
1E00
7C00
7000
ENDCHAR
STARTCHAR Rcaron
ENCODING 344
SWIDTH 661 0
DWIDTH 25 0
BBX 23 34 2 0
BITMAP
020100
078380
03CF00
01FE00
00FC00
007800
000000
000000
FFFE00
7FFF80
3F0FE0
3F07E0
3F03F0
3F03F0
3F03F0
3F03F0
3F03F0
3F03F0
3F03E0
3F07E0
3F0FC0
3FFF00
3FFE00
3F1F80
3F1FC0
3F0FC0
3F0FE0
3F07E0
3F07E0
3F03F0
3F03F0
3F03F8
7F81FC
FFC0FE
ENDCHAR
STARTCHAR rcaron
ENCODING 345
SWIDTH 461 0
DWIDTH 18 0
BBX 16 28 1 0
BITMAP
1018
1838
1C70
0EF0
0FE0
07C0
03C0
0000
0000
FE1F
7E7F
3FFF
3F8F
3F07
3E00
3E00
3E00
3E00
3E00
3E00
3E00
3E00
3E00
3E00
3E00
3E00
7F00
FF80
ENDCHAR
STARTCHAR Sacute
ENCODING 346
SWIDTH 513 0
DWIDTH 20 0
BBX 16 33 2 0
BITMAP
007C
00F8
01F0
03C0
0780
0200
0000
07FE
1FFF
3E1F
7C0F
F807
F807
F800
FC00
FC00
FF00
7FC0
3FE0
1FF8
0FFC
03FE
01FE
007F
003F
001F
E01F
E01F
F01E
F03E
F87C
FFF8
3FE0
ENDCHAR
STARTCHAR sacute
ENCODING 347
SWIDTH 458 0
DWIDTH 17 0
BBX 14 27 2 0
BITMAP
00F0
01F0
03E0
0380
0700
0E00
0400
0000
0FF8
3FFC
7C3C
F81C
F80C
F800
FE00
7F80
7FE0
1FF0
07F8
01FC
00FC
007C
C07C
E07C
F0F8
FFF0
7FC0
ENDCHAR
STARTCHAR Scircumflex
ENCODING 348
SWIDTH 513 0
DWIDTH 20 0
BBX 16 34 2 0
BITMAP
03E0
03F0
07F0
0E38
1C1C
180C
0000
0000
07FE
1FFF
3E1F
7C0F
F807
F807
F800
FC00
FC00
FF00
7FC0
3FE0
1FF8
0FFC
03FE
01FE
007F
003F
001F
E01F
E01F
F01E
F03E
F87C
FFF8
3FE0
ENDCHAR
STARTCHAR scircumflex
ENCODING 349
SWIDTH 458 0
DWIDTH 17 0
BBX 14 27 2 0
BITMAP
0780
0FC0
0FC0
1DE0
38F0
3070
2030
0000
0FF8
3FFC
7C3C
F81C
F80C
F800
FE00
7F80
7FE0
1FF0
07F8
01FC
00FC
007C
C07C
E07C
F0F8
FFF0
7FC0
ENDCHAR
STARTCHAR Scedilla
ENCODING 350
SWIDTH 513 0
DWIDTH 20 0
BBX 16 34 2 -8
BITMAP
07FE
1FFF
3E1F
7C0F
F807
F807
F800
FC00
FC00
FF00
7FC0
3FE0
1FF8
0FFC
03FE
01FE
007F
003F
001F
E01F
E01F
F01E
F03E
F87C
FFF8
3FE0
01C0
03C0
03C0
03C0
03C0
0780
1F00
1C00
ENDCHAR
STARTCHAR scedilla
ENCODING 351
SWIDTH 458 0
DWIDTH 17 0
BBX 14 27 2 -8
BITMAP
0FF8
3FFC
7C3C
F81C
F80C
F800
FE00
7F80
7FE0
3FF0
0FF8
03FC
00FC
007C
C07C
E07C
F0F8
FFF0
7FC0
0380
0780
0780
0780
0780
0F00
3E00
3800
ENDCHAR
STARTCHAR Scaron
ENCODING 352
SWIDTH 513 0
DWIDTH 20 0
BBX 16 34 2 0
BITMAP
180C
1C1C
0E38
07F0
03F0
03E0
0000
0000
07FE
1FFF
3E1F
7C0F
F807
F807
F800
FC00
FC00
FF00
7FC0
3FE0
1FF8
0FFC
03FE
01FE
007F
003F
001F
E01F
E01F
F01E
F03E
F87C
FFF8
3FE0
ENDCHAR
STARTCHAR scaron
ENCODING 353
SWIDTH 458 0
DWIDTH 17 0
BBX 14 28 2 0
BITMAP
2030
3070
38E0
1DE0
1FC0
0F80
0780
0000
0000
0FF8
3FFC
7C3C
F81C
F80C
F800
FE00
7F80
7FE0
1FF0
07F8
01FC
00FC
007C
C07C
E07C
F0F8
FFF0
7FC0
ENDCHAR
STARTCHAR uni0162
ENCODING 354
SWIDTH 639 0
DWIDTH 24 0
BBX 22 34 1 -8
BITMAP
FFFFFC
FFFFFC
F8FC7C
F0FC3C
F0FC3C
E0FC1C
E0FC1C
00FC00
00FC00
00FC00
00FC00
00FC00
00FC00
00FC00
00FC00
00FC00
00FC00
00FC00
00FC00
00FC00
00FC00
00FC00
00FC00
00FC00
01FE00
03FF00
001C00
007800
007800
007800
007800
00F000
03F000
038000
ENDCHAR
STARTCHAR uni0163
ENCODING 355
SWIDTH 365 0
DWIDTH 14 0
BBX 13 32 1 -8
BITMAP
1E00
1E00
1E00
3E00
3E00
7FF0
FFF0
3E00
3E00
3E00
3E00
3E00
3E00
3E00
3E00
3E00
3E00
3E00
3E00
3E00
3F10
1FF8
1FF0
07C0
0180
0780
0780
0780
0780
0F00
3E00
3C00
ENDCHAR
STARTCHAR Tcaron
ENCODING 356
SWIDTH 639 0
DWIDTH 24 0
BBX 22 34 1 0
BITMAP
020100
070780
03CF00
01FE00
00FC00
007800
000000
000000
FFFFFC
FFFFFC
F8FC7C
F0FC3C
F0FC3C
E0FC1C
E0FC1C
00FC00
00FC00
00FC00
00FC00
00FC00
00FC00
00FC00
00FC00
00FC00
00FC00
00FC00
00FC00
00FC00
00FC00
00FC00
00FC00
00FC00
01FE00
03FF00
ENDCHAR
STARTCHAR tcaron
ENCODING 357
SWIDTH 498 0
DWIDTH 19 0
BBX 17 27 1 0
BITMAP
000780
000780
000780
1E0780
1E0780
1E0700
1E0E00
3E0400
7FF000
FFF000
3E0000
3E0000
3E0000
3E0000
3E0000
3E0000
3E0000
3E0000
3E0000
3E0000
3E0000
3E0000
3E0000
3F1000
1FF800
1FF000
07C000
ENDCHAR
STARTCHAR Tbar
ENCODING 358
SWIDTH 639 0
DWIDTH 24 0
BBX 22 26 1 0
BITMAP
FFFFFC
FFFFFC
F8FC7C
F0FC3C
F0FC3C
E0FC1C
E0FC1C
00FC00
00FC00
00FC00
00FC00
00FC00
0FFFC0
0FFFC0
00FC00
00FC00
00FC00
00FC00
00FC00
00FC00
00FC00
00FC00
00FC00
00FC00
01FE00
03FF00
ENDCHAR
STARTCHAR tbar
ENCODING 359
SWIDTH 376 0
DWIDTH 14 0
BBX 13 24 1 0
BITMAP
1E00
1E00
1E00
3E00
3E00
7FF0
FFF0
3E00
3E00
3E00
3E00
3E00
3E00
FFE0
FFE0
3E00
3E00
3E00
3E00
3E00
3F10
1FF8
1FF0
07C0
ENDCHAR
STARTCHAR Utilde
ENCODING 360
SWIDTH 676 0
DWIDTH 26 0
BBX 23 33 1 0
BITMAP
007040
00FCE0
01FFC0
039F80
010700
000000
000000
FFC1FE
7F80FC
3F0078
3F0078
3F0078
3F0078
3F0078
3F0078
3F0078
3F0078
3F0078
3F0078
3F0078
3F0078
3F0078
3F0078
3F0078
3F0078
3F0078
3F0078
3F0078
1F80F0
1F80F0
0FC1E0
07FFC0
00FF00
ENDCHAR
STARTCHAR utilde
ENCODING 361
SWIDTH 597 0
DWIDTH 23 0
BBX 20 26 1 0
BITMAP
01C100
03E380
07FF00
0E7E00
041C00
000000
000000
FE1FC0
7E0FC0
3E07C0
3E07C0
3E07C0
3E07C0
3E07C0
3E07C0
3E07C0
3E07C0
3E07C0
3E07C0
3E07C0
3E07C0
3E0FC0
3F1FC0
1FFFC0
1FE7E0
07C7F0
ENDCHAR
STARTCHAR Umacron
ENCODING 362
SWIDTH 676 0
DWIDTH 26 0
BBX 23 31 1 0
BITMAP
01FFC0
01FFC0
01FFC0
000000
000000
FFC1FE
7F80FC
3F0078
3F0078
3F0078
3F0078
3F0078
3F0078
3F0078
3F0078
3F0078
3F0078
3F0078
3F0078
3F0078
3F0078
3F0078
3F0078
3F0078
3F0078
3F0078
1F80F0
1F80F0
0FC1E0
07FFC0
00FF00
ENDCHAR
STARTCHAR umacron
ENCODING 363
SWIDTH 597 0
DWIDTH 23 0
BBX 20 25 1 0
BITMAP
07FE00
07FE00
07FE00
000000
000000
000000
FE1FC0
7E0FC0
3E07C0
3E07C0
3E07C0
3E07C0
3E07C0
3E07C0
3E07C0
3E07C0
3E07C0
3E07C0
3E07C0
3E07C0
3E0FC0
3F1FC0
1FFFC0
1FE7E0
07C7F0
ENDCHAR
STARTCHAR Ubreve
ENCODING 364
SWIDTH 676 0
DWIDTH 26 0
BBX 23 34 1 0
BITMAP
0300C0
0381C0
01C380
01FF80
00FF00
007C00
000000
000000
FFC1FE
7F80FC
3F0078
3F0078
3F0078
3F0078
3F0078
3F0078
3F0078
3F0078
3F0078
3F0078
3F0078
3F0078
3F0078
3F0078
3F0078
3F0078
3F0078
3F0078
3F0078
1F80F0
1F80F0
0FC1E0
07FFC0
00FF00
ENDCHAR
STARTCHAR ubreve
ENCODING 365
SWIDTH 597 0
DWIDTH 23 0
BBX 20 27 1 0
BITMAP
0C0300
0E0700
070E00
07FE00
03FC00
01F800
000000
000000
FE1FC0
7E0FC0
3E07C0
3E07C0
3E07C0
3E07C0
3E07C0
3E07C0
3E07C0
3E07C0
3E07C0
3E07C0
3E07C0
3E07C0
3E0FC0
3F1FC0
1FFFC0
1FE7E0
07C7F0
ENDCHAR
STARTCHAR Uring
ENCODING 366
SWIDTH 676 0
DWIDTH 26 0
BBX 23 35 1 0
BITMAP
003E00
006300
00C180
00C180
00C180
00C180
006300
003E00
000000
FFC1FE
7F80FC
3F0078
3F0078
3F0078
3F0078
3F0078
3F0078
3F0078
3F0078
3F0078
3F0078
3F0078
3F0078
3F0078
3F0078
3F0078
3F0078
3F0078
3F0078
3F0078
1F80F0
1F80F0
0FC1E0
07FFC0
00FF00
ENDCHAR
STARTCHAR uring
ENCODING 367
SWIDTH 597 0
DWIDTH 23 0
BBX 20 28 1 0
BITMAP
00F800
018C00
030600
030600
030600
030600
018C00
00F800
000000
FE1FC0
7E0FC0
3E07C0
3E07C0
3E07C0
3E07C0
3E07C0
3E07C0
3E07C0
3E07C0
3E07C0
3E07C0
3E07C0
3E07C0
3E0FC0
3F1FC0
1FFFC0
1FE7E0
07C7F0
ENDCHAR
STARTCHAR Uhungarumlaut
ENCODING 368
SWIDTH 676 0
DWIDTH 26 0
BBX 23 33 1 0
BITMAP
001E78
003EF8
0079E0
00F3C0
01E700
008200
000000
FFC1FE
7F80FC
3F0078
3F0078
3F0078
3F0078
3F0078
3F0078
3F0078
3F0078
3F0078
3F0078
3F0078
3F0078
3F0078
3F0078
3F0078
3F0078
3F0078
3F0078
3F0078
1F80F0
1F80F0
0FC1E0
07FFC0
00FF00
ENDCHAR
STARTCHAR uhungarumlaut
ENCODING 369
SWIDTH 597 0
DWIDTH 23 0
BBX 20 27 1 0
BITMAP
0071C0
00F1C0
00E380
01C700
038E00
030C00
020800
000000
FE1FC0
7E0FC0
3E07C0
3E07C0
3E07C0
3E07C0
3E07C0
3E07C0
3E07C0
3E07C0
3E07C0
3E07C0
3E07C0
3E07C0
3E0FC0
3F1FC0
1FFFC0
1FE7E0
07C7F0
ENDCHAR
STARTCHAR Uogonek
ENCODING 370
SWIDTH 676 0
DWIDTH 26 0
BBX 23 34 1 -8
BITMAP
FFC1FE
7F80FC
3F0078
3F0078
3F0078
3F0078
3F0078
3F0078
3F0078
3F0078
3F0078
3F0078
3F0078
3F0078
3F0078
3F0078
3F0078
3F0078
3F0078
3F0078
3F0078
1F80F0
1F80F0
0FC1E0
07FFC0
00FF80
000300
000700
000600
000E00
000E00
000E20
000FE0
0003C0
ENDCHAR
STARTCHAR uogonek
ENCODING 371
SWIDTH 597 0
DWIDTH 23 0
BBX 20 27 1 -8
BITMAP
FE1FC0
7E0FC0
3E07C0
3E07C0
3E07C0
3E07C0
3E07C0
3E07C0
3E07C0
3E07C0
3E07C0
3E07C0
3E07C0
3E07C0
3E0FC0
3F1FC0
1FFFC0
1FE7E0
07C7F0
000180
000380
000300
000700
000700
000710
0007F0
0003E0
ENDCHAR
STARTCHAR Wcircumflex
ENCODING 372
SWIDTH 961 0
DWIDTH 37 0
BBX 36 34 1 0
BITMAP
0000780000
0000FC0000
0001FE0000
0003CF0000
0007838000
0002010000
0000000000
0000000000
FFC0780FF0
7F807C03E0
3F00FC03C0
3F00FC03C0
3F00FC0380
1F00FE0380
1F81FE0780
1F81FE0700
1F81BE0700
0F81BE0700
0FC3BF0E00
0FC3BF0E00
0FC31F0E00
07C71F1C00
07E71F9C00
07E71F9C00
03E60FB800
03EE0FB800
03FE0FB800
03FC0FF000
01FC0FF000
01FC07F000
01FC07E000
01F807E000
00F807E000
00F803C000
ENDCHAR
STARTCHAR wcircumflex
ENCODING 373
SWIDTH 798 0
DWIDTH 30 0
BBX 29 27 1 0
BITMAP
0003C000
0007C000
000FE000
000EF000
001C7000
00383800
00101000
00000000
FF83C3F8
7F03C1F0
7E07C0E0
3E07C0E0
3F07E0E0
3F0FE1C0
1F0FE1C0
1F0FE180
1F9DF380
0F99F380
0F99F300
0FB9F700
07F0FF00
07F0FE00
07F0FE00
07E07C00
03E07C00
03E07C00
03C07800
ENDCHAR
STARTCHAR Ycircumflex
ENCODING 374
SWIDTH 604 0
DWIDTH 23 0
BBX 23 34 0 0
BITMAP
003C00
007E00
00FF00
01E780
0383C0
010080
000000
000000
FFC0FE
7F807C
3F0078
3F8070
1F8070
1F80E0
0FC0E0
0FC1C0
07E1C0
07E380
03F380
03F700
03FF00
01FE00
01FE00
00FC00
00FC00
00FC00
00FC00
00FC00
00FC00
00FC00
00FC00
00FC00
01FE00
03FF00
ENDCHAR
STARTCHAR ycircumflex
ENCODING 375
SWIDTH 530 0
DWIDTH 20 0
BBX 20 35 0 -8
BITMAP
007800
00FC00
00FC00
01CE00
038700
030300
020100
000000
FF87F0
7F03E0
3F03C0
3F03C0
3F0380
1F0380
1F0300
1F8700
0F8700
0F8E00
0FCE00
07CC00
07DC00
07F800
03F800
03F800
03F000
01F000
01E000
00E000
00C000
01C000
C38000
E78000
FF0000
FE0000
F80000
ENDCHAR
STARTCHAR Ydieresis
ENCODING 376
SWIDTH 604 0
DWIDTH 23 0
BBX 23 32 0 0
BITMAP
01E3C0
01E3C0
01E3C0
01E3C0
000000
000000
FFC0FE
7F807C
3F0078
3F8070
1F8070
1F80E0
0FC0E0
0FC1C0
07E1C0
07E380
03F380
03F700
03FF00
01FE00
01FE00
00FC00
00FC00
00FC00
00FC00
00FC00
00FC00
00FC00
00FC00
00FC00
01FE00
03FF00
ENDCHAR
STARTCHAR Zacute
ENCODING 377
SWIDTH 566 0
DWIDTH 22 0
BBX 19 33 1 0
BITMAP
003E00
007C00
00F800
01E000
038000
030000
000000
FFFFE0
FFFFE0
F80FC0
F01FC0
F01F80
E03F80
E03F00
007F00
007E00
00FE00
00FC00
01F800
01F800
03F000
03F000
07E000
0FE000
0FC000
1FC000
1F80E0
3F80E0
3F01E0
7F01E0
7E03E0
FFFFE0
FFFFE0
ENDCHAR
STARTCHAR zacute
ENCODING 378
SWIDTH 479 0
DWIDTH 18 0
BBX 16 27 1 0
BITMAP
0078
00F8
00F0
01E0
03C0
0380
0200
0000
FFFF
FFFF
F07E
E07E
E0FC
C0F8
01F8
03F0
03F0
07E0
0FC0
0FC0
1F80
1F03
3F07
7E07
7E0F
FFFF
FFFF
ENDCHAR
STARTCHAR Zdotaccent
ENCODING 379
SWIDTH 566 0
DWIDTH 22 0
BBX 19 33 1 0
BITMAP
01F000
01F000
01F000
01F000
01F000
000000
000000
FFFFE0
FFFFE0
F80FC0
F01FC0
F01F80
E03F80
E03F00
007F00
007E00
00FE00
00FC00
01F800
01F800
03F000
03F000
07E000
0FE000
0FC000
1FC000
1F80E0
3F80E0
3F01E0
7F01E0
7E03E0
FFFFE0
FFFFE0
ENDCHAR
STARTCHAR zdotaccent
ENCODING 380
SWIDTH 479 0
DWIDTH 18 0
BBX 16 26 1 0
BITMAP
03E0
03E0
03E0
03E0
03E0
0000
0000
FFFF
FFFF
F07E
E07E
E0FC
C0F8
01F8
03F0
03F0
07E0
0FC0
0FC0
1F80
1F03
3F07
7E07
7E0F
FFFF
FFFF
ENDCHAR
STARTCHAR Zcaron
ENCODING 381
SWIDTH 566 0
DWIDTH 22 0
BBX 19 34 1 0
BITMAP
080600
0E0E00
0F3C00
07F800
03F000
01E000
000000
000000
FFFFE0
FFFFE0
F80FC0
F01FC0
F01F80
E03F80
E03F00
007F00
007E00
00FE00
00FC00
01F800
01F800
03F000
03F000
07E000
0FE000
0FC000
1FC000
1F80E0
3F80E0
3F01E0
7F01E0
7E03E0
FFFFE0
FFFFE0
ENDCHAR
STARTCHAR zcaron
ENCODING 382
SWIDTH 479 0
DWIDTH 18 0
BBX 16 28 1 0
BITMAP
0808
1C18
0E38
0F70
07E0
07E0
03C0
0000
0000
FFFF
FFFF
F07E
E07E
E0FC
C0F8
01F8
03F0
03F0
07E0
0FC0
0FC0
1F80
1F03
3F07
7E07
7E0F
FFFF
FFFF
ENDCHAR
STARTCHAR longs
ENCODING 383
SWIDTH 320 0
DWIDTH 12 0
BBX 13 27 1 0
BITMAP
01F8
07F8
0F78
1E38
1E00
3E00
3E00
3E00
3E00
7E00
FE00
3E00
3E00
3E00
3E00
3E00
3E00
3E00
3E00
3E00
3E00
3E00
3E00
3E00
3E00
7F00
FF80
ENDCHAR
STARTCHAR uni0180
ENCODING 384
SWIDTH 591 0
DWIDTH 22 0
BBX 19 27 1 0
BITMAP
FE0000
7E0000
3E0000
FFF800
FFF800
FFF800
3E0000
3E0000
3E3E00
3EFF80
3FFF80
3F8FC0
3F07C0
3E07E0
3E03E0
3E03E0
3E03E0
3E03E0
3E03E0
3E03E0
3E03E0
3E03C0
3E07C0
3F07C0
3F0F80
3FFF00
39FC00
ENDCHAR
STARTCHAR uni0181
ENCODING 385
SWIDTH 753 0
DWIDTH 29 0
BBX 27 26 1 0
BITMAP
1FFFFE00
FFFFFF80
F1F81FC0
F1F80FE0
E1F807E0
E1F807E0
01F807E0
01F807E0
01F807C0
01F80F80
01F81F00
01FFFC00
01FFFE00
01F83F80
01F80FC0
01F80FC0
01F807E0
01F807E0
01F807E0
01F807E0
01F807E0
01F80FC0
01F80FC0
01F81F80
03FFFF00
07FFFC00
ENDCHAR
STARTCHAR uni0182
ENCODING 386
SWIDTH 644 0
DWIDTH 24 0
BBX 21 26 2 0
BITMAP
FFFFE0
7FFFE0
3F03E0
3F01E0
3F00E0
3F00E0
3F0000
3F0000
3F0000
3F0000
3F0000
3FFF00
3FFFC0
3F07E0
3F03F0
3F03F8
3F01F8
3F01F8
3F01F8
3F01F8
3F01F8
3F01F8
3F03F0
3F07E0
7FFFC0
FFFF00
ENDCHAR
STARTCHAR uni0183
ENCODING 387
SWIDTH 591 0
DWIDTH 22 0
BBX 19 27 1 0
BITMAP
FFFFC0
7FFFC0
3FFFC0
3E03C0
3E03C0
3E01C0
3E0000
3E0000
3E3E00
3E7F80
3FFF80
3F8FC0
3F07C0
3E07E0
3E03E0
3E03E0
3E03E0
3E03E0
3E03E0
3E03E0
3E03E0
3E03C0
3E07C0
3F07C0
3F0F80
3FFF00
39FC00
ENDCHAR
STARTCHAR uni0184
ENCODING 388
SWIDTH 648 0
DWIDTH 25 0
BBX 23 26 1 0
BITMAP
078000
0F8000
1F8000
3F8000
7F8000
FF8000
FF8000
7F8000
3F8000
1F8000
1F8000
1FFFC0
1FFFF0
1F83F8
1F80FC
1F80FE
1F807E
1F807E
1F807E
1F807E
1F807E
1F80FC
1F80FC
1F81F8
3FFFF0
7FFF80
ENDCHAR
STARTCHAR uni0185
ENCODING 389
SWIDTH 598 0
DWIDTH 23 0
BBX 20 27 0 0
BITMAP
070000
0F0000
1F0000
3F0000
7F0000
FF0000
7F0000
7F0000
3F1F00
1F7FC0
1FFFC0
1FC7E0
1F83E0
1F03F0
1F01F0
1F01F0
1F01F0
1F01F0
1F01F0
1F01F0
1F01F0
1F01E0
1F03E0
1F83E0
1F87C0
1FFF80
1CFE00
ENDCHAR
STARTCHAR uni0186
ENCODING 390
SWIDTH 573 0
DWIDTH 22 0
BBX 18 26 2 0
BITMAP
7FE000
FFF800
F07E00
E03F00
E01F00
C01F80
001F80
000F80
000FC0
000FC0
000FC0
000FC0
000FC0
000FC0
000FC0
000FC0
000FC0
000F80
001F80
001F80
C01F00
E03F00
E03E00
F0FC00
FFF000
7FC000
ENDCHAR
STARTCHAR uni0187
ENCODING 391
SWIDTH 573 0
DWIDTH 22 0
BBX 25 32 2 0
BITMAP
00001F80
00003F80
00007F80
0000E380
0000E380
0000E000
00FFC000
03FFC000
0FC3C000
1F01C000
3F01C000
3E00C000
7E000000
7E000000
7C000000
FC000000
FC000000
FC000000
FC000000
FC000000
FC000000
FC000000
FC000000
FC000000
7C000000
7E000000
7E00C000
3E01C000
3F01C000
1F83C000
07FFC000
01FF8000
ENDCHAR
STARTCHAR uni0188
ENCODING 392
SWIDTH 584 0
DWIDTH 22 0
BBX 21 25 2 0
BITMAP
0001F8
0003F8
0007F8
000738
000638
000E00
03FE00
0FFE00
1E3E00
3C1E00
7C1E00
780000
F80000
F80000
F80000
F80000
F80000
F80000
F80000
FC0000
7C0400
7E1E00
3FFC00
1FF800
07E000
ENDCHAR
STARTCHAR uni0189
ENCODING 393
SWIDTH 708 0
DWIDTH 27 0
BBX 24 26 1 0
BITMAP
7FFF00
3FFFE0
1F87F0
1F81F8
1F80FC
1F807E
1F807E
1F807E
1F803F
1F803F
1F803F
1F803F
FFFC3F
FFFC3F
1F803F
1F803F
1F803F
1F803E
1F807E
1F807E
1F807C
1F80FC
1F81F8
1F83F0
3FFFC0
7FFE00
ENDCHAR
STARTCHAR uni018A
ENCODING 394
SWIDTH 807 0
DWIDTH 31 0
BBX 28 26 1 0
BITMAP
1FFFF000
FFFFFE00
F1F87F00
F1F81F80
E1F80FC0
E1F807E0
01F807E0
01F807E0
01F803F0
01F803F0
01F803F0
01F803F0
01F803F0
01F803F0
01F803F0
01F803F0
01F803F0
01F803E0
01F807E0
01F807E0
01F807C0
01F80FC0
01F81F80
01F83F00
03FFFC00
07FFE000
ENDCHAR
STARTCHAR uni018B
ENCODING 395
SWIDTH 644 0
DWIDTH 24 0
BBX 22 26 1 0
BITMAP
3FFFFC
3FFFF8
3E03F0
3C03F0
3803F0
3803F0
0003F0
0003F0
0003F0
0003F0
0003F0
03FFF0
1FFFF0
3F83F0
7E03F0
FE03F0
FC03F0
FC03F0
FC03F0
FC03F0
FC03F0
FE03F0
7E03F0
3F83F0
1FFFF8
07FFFC
ENDCHAR
STARTCHAR uni018C
ENCODING 396
SWIDTH 597 0
DWIDTH 23 0
BBX 19 27 2 0
BITMAP
7FFF80
7FFF80
7FFF80
780F80
780F80
700F80
000F80
000F80
07FF80
1FFF80
3E1F80
7C1F80
7C0F80
780F80
F80F80
F80F80
F80F80
F80F80
F80F80
F80F80
F80F80
FC0F80
7C1F80
7E3F80
7FFF80
3FCFC0
0F8FE0
ENDCHAR
STARTCHAR uni018D
ENCODING 397
SWIDTH 566 0
DWIDTH 22 0
BBX 18 27 2 -8
BITMAP
03F000
0FFC00
1E1F00
3C0F80
7C0F80
7807C0
F807C0
F807C0
F807C0
F807C0
FC07C0
FC0780
7E0F80
7F0F00
3F9E00
1FFC00
0FF000
03F800
01FC00
007E00
003F00
701F00
780F00
780F00
7E1E00
3FFC00
07F000
ENDCHAR
STARTCHAR uni018E
ENCODING 398
SWIDTH 582 0
DWIDTH 22 0
BBX 19 26 2 0
BITMAP
FFFFE0
FFFFC0
F81F80
F01F80
E01F80
E01F80
001F80
001F80
0C1F80
0C1F80
0E1F80
0FFF80
0FFF80
0E1F80
0C1F80
0C1F80
001F80
001F80
001F80
C01F80
E01F80
E01F80
F01F80
F81F80
FFFFC0
FFFFE0
ENDCHAR
STARTCHAR uni018F
ENCODING 399
SWIDTH 695 0
DWIDTH 26 0
BBX 22 26 2 0
BITMAP
07FE00
3FFF80
3E0FE0
3C03F0
3803F0
3801F8
0001F8
0000F8
0000FC
0000FC
0000FC
0000FC
FFFFFC
FFFFFC
FC00FC
FC00FC
FC00FC
FC00FC
7C00F8
7E01F8
7E01F8
3E01F0
3F03E0
1F87C0
07FF80
01FC00
ENDCHAR
STARTCHAR uni0190
ENCODING 400
SWIDTH 539 0
DWIDTH 20 0
BBX 17 26 2 0
BITMAP
03FE00
1FFF00
3F0F00
7E0700
FC0700
FC0300
FC0000
FC0000
FC0000
7E0000
3F0000
1FFC00
07FC00
1FFC00
3F0000
7E0000
FC0000
FC0000
FC0000
FC0000
FC0380
FC0380
7E0780
3F0F80
1FFF80
07FC00
ENDCHAR
STARTCHAR uni0191
ENCODING 401
SWIDTH 551 0
DWIDTH 21 0
BBX 22 34 -2 -8
BITMAP
0FFFFC
07FFFC
03F07C
03F03C
03F01C
03F01C
03F000
03F000
03F000
03F060
03F0E0
03F0E0
03FFE0
03FFE0
03F0E0
03F0E0
03F060
03F000
03F000
03F000
03F000
03F000
03F000
03F000
03F000
03F000
03F000
03F000
03F000
C3E000
C3E000
E7C000
FF8000
FE0000
ENDCHAR
STARTCHAR florin
ENCODING 402
SWIDTH 326 0
DWIDTH 12 0
BBX 17 35 -3 -8
BITMAP
001F80
007F80
00FF80
01F380
03E380
03E000
03E000
03E000
07FE00
0FFE00
03E000
03E000
03E000
03E000
03E000
03E000
03E000
03E000
03E000
03E000
03E000
03E000
03E000
03E000
03E000
03E000
03E000
03E000
03E000
03E000
03E000
E3C000
E7C000
FF8000
FE0000
ENDCHAR
STARTCHAR uni0193
ENCODING 403
SWIDTH 646 0
DWIDTH 25 0
BBX 26 32 2 0
BITMAP
00000FC0
00001FC0
00003FC0
000079C0
000071C0
00007000
00FFF000
03FFF000
0FC1F000
1F80F000
3F00F000
3E007000
7E000000
7E000000
7C000000
FC000000
FC000000
FC000000
FC000000
FC000000
FC0FFC00
FC07F800
FC03F000
FC03F000
7C03F000
7E03F000
7E03F000
3E03F000
3F03F000
1F87F000
07FFF000
01FC7000
ENDCHAR
STARTCHAR uni0194
ENCODING 404
SWIDTH 637 0
DWIDTH 24 0
BBX 24 34 0 -8
BITMAP
FFC0FF
7F807E
3F003C
1F8078
1F8070
0F8070
0FC070
07C0E0
07E0E0
07E1C0
03E1C0
03F380
01F380
01FF00
00FF00
00FE00
007E00
007E00
003E00
003F00
003F00
007F00
007F80
00FF80
00E780
00E7C0
01C3C0
01C3C0
01C3C0
01C3C0
01C3C0
01E780
00FF00
007E00
ENDCHAR
STARTCHAR uni0195
ENCODING 405
SWIDTH 873 0
DWIDTH 33 0
BBX 30 27 1 0
BITMAP
FE000000
7E000000
3E000000
3E000000
3E000000
3E000000
3E000000
3E000000
3E3E01F0
3E7F81F8
3FFF80F8
3F8FC0F8
3F07C0FC
3E07C07C
3E07C07C
3E07C07C
3E07C07C
3E07C07C
3E07C07C
3E07C07C
3E07C078
3E07C0F8
3E07E0F8
3E03F1F0
3E03FFE0
7F01FFC0
FF807F00
ENDCHAR
STARTCHAR uni0196
ENCODING 406
SWIDTH 359 0
DWIDTH 14 0
BBX 13 26 2 0
BITMAP
FF00
7F00
3F00
3F00
3F00
3F00
3F00
3F00
3F00
3F00
3F00
3F00
3F00
3F00
3F00
3F00
3F00
3F00
3F00
3F00
3F00
3F00
3F80
1FF8
0FF8
07E0
ENDCHAR
STARTCHAR uni0197
ENCODING 407
SWIDTH 349 0
DWIDTH 13 0
BBX 12 26 1 0
BITMAP
7FE0
3FC0
1F80
1F80
1F80
1F80
1F80
1F80
1F80
1F80
1F80
FFF0
FFF0
1F80
1F80
1F80
1F80
1F80
1F80
1F80
1F80
1F80
1F80
1F80
3FC0
7FE0
ENDCHAR
STARTCHAR uni0198
ENCODING 408
SWIDTH 681 0
DWIDTH 26 0
BBX 24 26 2 0
BITMAP
FFC03F
7F807F
3F00FF
3F01E7
3F01C7
3F0380
3F0780
3F0700
3F0E00
3F0E00
3F1C00
3F3C00
3FFE00
3FFE00
3F3F00
3F3F80
3F1F80
3F0FC0
3F0FE0
3F07E0
3F07F0
3F03F0
3F01F8
3F01FC
7F81FE
FFC3FF
ENDCHAR
STARTCHAR uni0199
ENCODING 409
SWIDTH 591 0
DWIDTH 22 0
BBX 22 27 1 0
BITMAP
01F800
07F800
0FF800
1F3800
1E3800
3E0000
3E0000
3E0000
3E1FF0
3E0FE0
3E07C0
3E0780
3E0F00
3E1E00
3E3C00
3E7C00
3FFC00
3FFE00
3E7F00
3E3F00
3E1F80
3E0F80
3E0FC0
3E07E0
3E07F0
7F07F0
FF8FFC
ENDCHAR
STARTCHAR uni019A
ENCODING 410
SWIDTH 343 0
DWIDTH 13 0
BBX 13 27 0 0
BITMAP
3F80
1F80
0F80
0F80
0F80
0F80
0F80
0F80
0F80
0F80
0F80
0F80
FFF8
FFF8
FFF8
0F80
0F80
0F80
0F80
0F80
0F80
0F80
0F80
0F80
0F80
1FC0
3FE0
ENDCHAR
STARTCHAR uni019B
ENCODING 411
SWIDTH 527 0
DWIDTH 20 0
BBX 21 27 0 0
BITMAP
078000
1FC000
3FE600
21FF00
00FC00
00F000
03F000
0F7000
0C3800
007800
007800
00F800
00F800
01FC00
01FC00
03FC00
03FC00
07CE00
07CE00
0FCE00
0F8F00
1F8700
1F0780
3F07C0
7F03F8
7E03F0
FE01E0
ENDCHAR
STARTCHAR uni019C
ENCODING 412
SWIDTH 1010 0
DWIDTH 38 0
BBX 35 26 2 0
BITMAP
FFCFFC7FE0
7F87F83FC0
3F03F01F80
3F03F01F80
3F03F01F80
3F03F01F80
3F03F01F80
3F03F01F80
3F03F01F80
3F03F01F80
3F03F01F80
3F03F01F80
3F03F01F80
3F03F01F80
3F03F01F80
3F03F01F80
3F03F01F80
3F03F01F80
3F03F01F80
3F03F01F80
3F03F01F80
3F07F03F80
3F8FF87F80
1FFDFFFF80
1FF8FF9FC0
07E07E1FE0
ENDCHAR
STARTCHAR uni019D
ENCODING 413
SWIDTH 679 0
DWIDTH 26 0
BBX 26 34 -2 -8
BITMAP
0FF01FC0
07F00F80
03F80700
03F80700
03FC0700
03FC0700
03FE0700
03FE0700
03BF0700
03BF0700
039F8700
038FC700
038FC700
0387E700
0387E700
0383F700
0383F700
0381FF00
0381FF00
0380FF00
0380FF00
03807F00
03807F00
03803F00
03801F00
03801F00
03800000
03800000
03800000
C7800000
C7000000
FF000000
FE000000
FC000000
ENDCHAR
STARTCHAR uni019E
ENCODING 414
SWIDTH 599 0
DWIDTH 23 0
BBX 20 27 1 -8
BITMAP
FE3E00
7E7F80
3FFF80
3F8FC0
3F07C0
3E07C0
3E07C0
3E07C0
3E07C0
3E07C0
3E07C0
3E07C0
3E07C0
3E07C0
3E07C0
3E07C0
3E07C0
7F07C0
FF87C0
0007C0
0007C0
0007C0
0007C0
0007C0
0007C0
000FE0
001FF0
ENDCHAR
STARTCHAR uni019F
ENCODING 415
SWIDTH 695 0
DWIDTH 26 0
BBX 22 26 2 0
BITMAP
01FE00
07FF80
0F87E0
1F03F0
3E01F0
3E01F8
7E01F8
7C00F8
FC00FC
FC00FC
FC00FC
FFFFFC
FFFFFC
FFFFFC
FC00FC
FC00FC
FC00FC
FC00FC
7C00F8
7E01F8
7E01F0
3E01F0
3F03E0
1F87C0
07FF80
01FC00
ENDCHAR
STARTCHAR Ohorn
ENCODING 416
SWIDTH 790 0
DWIDTH 30 0
BBX 28 26 2 0
BITMAP
00FF00F0
07FFC0F0
0F87F0F0
1F01F0F0
3E01F8E0
3E00FDE0
7E00FF80
7C00FE00
FC007E00
FC007E00
FC007E00
FC007E00
FC007E00
FC007E00
FC007E00
FC007E00
FC007E00
FC007C00
7C007C00
7E00FC00
7E00F800
3F00F800
1F01F000
1FC3E000
07FF8000
01FE0000
ENDCHAR
STARTCHAR ohorn
ENCODING 417
SWIDTH 678 0
DWIDTH 26 0
BBX 23 19 2 0
BITMAP
03F80E
0FFE0E
3E1F0E
3C0F8E
7C0F8C
7807DC
F807F0
F807C0
F807C0
F807C0
F807C0
F807C0
F807C0
F80780
7C0F80
7C0F00
3E1F00
1FFC00
07F000
ENDCHAR
STARTCHAR uni01A2
ENCODING 418
SWIDTH 940 0
DWIDTH 36 0
BBX 32 33 2 -7
BITMAP
007FFFFF
03FFFFFE
0FC1F07C
1F81F07C
3F01F07C
3E01F07C
7E01F07C
7E01F07C
7C01F07C
FC01F07C
FC01F07C
FC01F07C
FC01F07C
FC01F07C
FC01F07C
FC01F07C
FC01F07C
FC01F07C
7E01F07C
7E01F07C
7E01F07C
3F01F07C
1F81F07C
0FE1F07C
07FFF07C
00FFF07C
0000007C
0000007C
0000007C
0000007C
0000007C
000000FE
000001FF
ENDCHAR
STARTCHAR uni01A3
ENCODING 419
SWIDTH 834 0
DWIDTH 32 0
BBX 28 27 2 -8
BITMAP
03F001C0
0FFF03C0
3E3FFFC0
3C1FFFC0
7C0F87C0
780F87C0
F80F87C0
F80F87C0
F80F87C0
F80F87C0
F80F87C0
F80F87C0
F80F87C0
F80F87C0
7C0F87C0
7C1F87C0
3E3F87C0
1FFE07C0
07F007C0
000007C0
000007C0
000007C0
000007C0
000007C0
000007C0
00000FE0
00001FF0
ENDCHAR
STARTCHAR uni01A4
ENCODING 420
SWIDTH 716 0
DWIDTH 27 0
BBX 25 26 1 0
BITMAP
1FFFF000
FFFFFC00
F1F87F00
F1F83F00
E1F81F80
E1F81F80
01F81F80
01F81F80
01F81F80
01F81F80
01F81F00
01F83F00
01F87E00
01FFFC00
01FFF000
01F80000
01F80000
01F80000
01F80000
01F80000
01F80000
01F80000
01F80000
01F80000
03FC0000
07FE0000
ENDCHAR
STARTCHAR uni01A5
ENCODING 421
SWIDTH 589 0
DWIDTH 22 0
BBX 19 35 1 -8
BITMAP
01F800
07F800
0FF800
1F3800
1E3800
3E0000
3E0000
3E0000
3E3E00
3E7F80
3EFFC0
3F8FC0
3F07C0
3E07E0
3E03E0
3E03E0
3E03E0
3E03E0
3E03E0
3E03E0
3E03E0
3E03C0
3E07C0
3F07C0
3F0F80
3FFF00
3FFC00
3E0000
3E0000
3E0000
3E0000
3E0000
3E0000
7F0000
FF8000
ENDCHAR
STARTCHAR uni01A6
ENCODING 422
SWIDTH 633 0
DWIDTH 24 0
BBX 22 30 2 -4
BITMAP
FFC000
7F8000
3F0000
3F0000
3FFE00
3FFFC0
3F0FE0
3F07E0
3F03F0
3F03F0
3F03F0
3F03F0
3F03F0
3F07E0
3F0FC0
3FFF80
3FFE00
3F3E00
3F1F00
3F1F00
3F1F80
3F0F80
3F0FC0
3F0FC0
7F87E0
FFE7E0
0003F0
0003F0
0001F8
0001FC
ENDCHAR
STARTCHAR uni01A7
ENCODING 423
SWIDTH 527 0
DWIDTH 20 0
BBX 17 26 1 0
BITMAP
1FF000
7FFC00
7C3F00
781F00
700F80
700F80
000F80
001F80
001F80
007F00
01FF00
07FE00
0FFC00
3FF000
7FC000
7F8000
FE0000
FC0000
F80000
F80000
F80380
F80380
7C0780
7E0F80
1FFF80
07FE00
ENDCHAR
STARTCHAR uni01A8
ENCODING 424
SWIDTH 467 0
DWIDTH 18 0
BBX 14 19 2 0
BITMAP
3FE0
7FF0
78F8
707C
607C
00FC
01FC
07F8
1FF8
3FE0
7FC0
FF00
FC00
F800
F81C
F81C
7C3C
3FFC
0FF0
ENDCHAR
STARTCHAR uni01A9
ENCODING 425
SWIDTH 590 0
DWIDTH 22 0
BBX 19 26 1 0
BITMAP
FFFFC0
FFFFC0
FE03C0
7E03C0
3F03C0
3F01C0
1F81C0
1F8000
0FC000
0FC000
07E000
07E000
03E000
03C000
03C000
038000
078000
0F0000
0E00E0
1E00E0
3C01E0
3FFFE0
7FFFE0
FFFFE0
FFFFE0
FFFFE0
ENDCHAR
STARTCHAR uni01AA
ENCODING 426
SWIDTH 371 0
DWIDTH 14 0
BBX 18 35 -1 -8
BITMAP
1F8000
7FC000
E3E000
C1E000
C1F000
E1F000
7FF000
3FF000
01F000
01F000
01F000
01F000
01F000
01F000
01F000
01F000
01F000
01F000
01F000
01F000
01F000
01F000
01F000
01F000
01F000
01F000
01F000
01F000
01F000
01F000
01F000
01F1C0
00F9C0
007FC0
003FC0
ENDCHAR
STARTCHAR uni01AB
ENCODING 427
SWIDTH 370 0
DWIDTH 14 0
BBX 13 32 1 -8
BITMAP
1E00
1E00
1E00
3E00
3E00
7FF0
FFF0
3E00
3E00
3E00
3E00
3E00
3E00
3E00
3E00
3E00
3E00
3E00
3E00
3E00
3F10
1FF8
1FF8
07D8
0018
0018
0018
0018
0718
0730
07F0
07E0
ENDCHAR
STARTCHAR uni01AC
ENCODING 428
SWIDTH 639 0
DWIDTH 24 0
BBX 23 26 0 0
BITMAP
07FFFE
1FFFFE
3C7E1E
787E0E
F07E0E
F07E0E
F07E00
007E00
007E00
007E00
007E00
007E00
007E00
007E00
007E00
007E00
007E00
007E00
007E00
007E00
007E00
007E00
007E00
007E00
00FF00
01FF80
ENDCHAR
STARTCHAR uni01AD
ENCODING 429
SWIDTH 372 0
DWIDTH 14 0
BBX 13 27 1 0
BITMAP
00F0
07F8
0FF8
1F38
1F00
3E00
3E00
3E00
3E00
FFF8
FFF8
3E00
3E00
3E00
3E00
3E00
3E00
3E00
3E00
3E00
3E00
3E00
3F00
3F00
1FF8
1FF0
0FE0
ENDCHAR
STARTCHAR uni01AE
ENCODING 430
SWIDTH 639 0
DWIDTH 24 0
BBX 22 34 1 -8
BITMAP
FFFFFC
FFFFFC
F0FC3C
E0FC1C
E0FC1C
E0FC1C
00FC00
00FC00
00FC00
00FC00
00FC00
00FC00
00FC00
00FC00
00FC00
00FC00
00FC00
00FC00
00FC00
00FC00
00FC00
00FC00
00FC00
00FC00
00FC00
00FC00
00FC00
00FC00
00FC00
00FC30
00FC30
007E70
003FF0
000FF0
ENDCHAR
STARTCHAR Uhorn
ENCODING 431
SWIDTH 813 0
DWIDTH 31 0
BBX 30 26 1 0
BITMAP
FFC1FE7C
3F80FC7C
3F007878
3F007878
3F007878
3F0078F0
3F007FC0
3F007800
3F007800
3F007800
3F007800
3F007800
3F007800
3F007800
3F007800
3F007800
3F007800
3F007800
3F007800
1F007800
1F007800
1F807800
0F80F000
0FC1E000
03FFC000
00FF0000
ENDCHAR
STARTCHAR uhorn
ENCODING 432
SWIDTH 702 0
DWIDTH 27 0
BBX 25 19 1 0
BITMAP
FE1FE380
7E0FE380
3E07E380
3E07E380
3E07E300
3E07E700
3E07FC00
3E07C000
3E07C000
3E07C000
3E07C000
3E07C000
3E07C000
3E07C000
3E0FC000
3F1FC000
1FFFC000
1FE7F000
07C7F000
ENDCHAR
STARTCHAR uni01B1
ENCODING 433
SWIDTH 702 0
DWIDTH 27 0
BBX 23 26 2 0
BITMAP
3FC7F8
0F83E0
0783C0
0701C0
0F01E0
1E01F0
3E00F8
3E00F8
7E00FC
7C007C
7C007C
FC007E
FC007E
FC007E
FC007E
FC007E
FC007E
FC007E
FC007C
7E00FC
7E00FC
3E00F8
3F01F0
1F83E0
07FF80
01FE00
ENDCHAR
STARTCHAR uni01B2
ENCODING 434
SWIDTH 697 0
DWIDTH 27 0
BBX 23 26 1 0
BITMAP
FFC1F8
7F81F8
3F00F8
3F00FC
3F007C
3F007C
3F007E
3F007E
3F003E
3F003E
3F003E
3F003E
3F003E
3F003E
3F003E
3F003E
3F003C
3F003C
3F007C
3F0078
3F0078
1F00F0
1F81E0
0FC3C0
07FF80
01FC00
ENDCHAR
STARTCHAR uni01B3
ENCODING 435
SWIDTH 682 0
DWIDTH 26 0
BBX 26 26 0 0
BITMAP
FFC00FC0
7F801FC0
3F003FC0
3F8079C0
1F8071C0
1F80E000
0FC0E000
0FC1C000
07E1C000
07E38000
07F38000
03F70000
03FF0000
01FE0000
01FE0000
00FC0000
00FC0000
00FC0000
00FC0000
00FC0000
00FC0000
00FC0000
00FC0000
00FC0000
01FE0000
03FF0000
ENDCHAR
STARTCHAR uni01B4
ENCODING 436
SWIDTH 667 0
DWIDTH 25 0
BBX 26 32 0 -8
BITMAP
00000FC0
00001FC0
00003FC0
000039C0
00007000
00007000
FFC0E000
3F00E000
3F01C000
1F01C000
1F018000
1F838000
0F830000
0F870000
0FC70000
07CE0000
07CE0000
07EC0000
03FC0000
03F80000
03F80000
01F00000
01F00000
01F00000
00E00000
00E00000
01C00000
61C00000
63800000
7F000000
7E000000
7C000000
ENDCHAR
STARTCHAR uni01B5
ENCODING 437
SWIDTH 566 0
DWIDTH 22 0
BBX 19 26 1 0
BITMAP
7FFFE0
7FFFE0
780FC0
700FC0
701F80
601F80
003F00
007F00
007E00
00FE00
00FC00
1FFF80
1FFF80
03F000
03F000
07E000
07E000
0FC000
0FC000
1FC0E0
1F80E0
3F80E0
3F01E0
7F03E0
7FFFE0
FFFFE0
ENDCHAR
STARTCHAR uni01B6
ENCODING 438
SWIDTH 479 0
DWIDTH 18 0
BBX 16 18 1 0
BITMAP
FFFF
FFFF
F07E
E0FC
E0FC
01F8
01F0
03F0
7FFE
7FFE
0FC0
1F80
1F83
3F07
3E07
7E0F
FFFF
FFFF
ENDCHAR
STARTCHAR uni01B7
ENCODING 439
SWIDTH 553 0
DWIDTH 21 0
BBX 18 26 1 0
BITMAP
FFFFC0
FFFF80
F81F80
F03F00
E03E00
E07E00
00FC00
00F800
01F800
01F000
03E000
07F800
03FE00
003F00
001F80
000FC0
000FC0
000FC0
000FC0
E00FC0
E00FC0
F01F80
F01F80
F83F00
FFFE00
3FF000
ENDCHAR
STARTCHAR uni01B8
ENCODING 440
SWIDTH 553 0
DWIDTH 21 0
BBX 18 26 2 0
BITMAP
FFFFC0
7FFFC0
7E07C0
3F03C0
1F01C0
1F81C0
0FC000
07C000
07E000
03E000
01F000
07F800
1FF000
3F0000
7E0000
7C0000
FC0000
FC0000
FC0000
FC01C0
FC01C0
FC03C0
7E03C0
3F07C0
1FFFC0
03FE00
ENDCHAR
STARTCHAR uni01B9
ENCODING 441
SWIDTH 492 0
DWIDTH 19 0
BBX 17 26 1 -8
BITMAP
7FFF00
7FFF00
3E0700
3F0700
1F8300
0F8000
0FC000
07E000
03E000
03F000
01F000
03F800
1FF000
3F0000
7C0000
FC0000
F80000
F80000
F80000
F80000
F80000
FC0380
7C0780
7E0780
3FFF80
0FFF00
ENDCHAR
STARTCHAR uni01BA
ENCODING 442
SWIDTH 486 0
DWIDTH 19 0
BBX 16 26 1 -8
BITMAP
FFFF
FFFE
F07E
E0FC
E0F8
01F0
03F0
03E0
07C0
0FC0
0FFC
007E
001F
001F
001F
003F
00FE
07F8
1FE0
3F00
3C00
7800
7806
780E
3F7E
0FFC
ENDCHAR
STARTCHAR uni01BB
ENCODING 443
SWIDTH 530 0
DWIDTH 20 0
BBX 18 26 1 0
BITMAP
07F800
7FFE00
FC7F00
F83F80
F01F80
F01F80
001F80
001F80
001F00
003F00
003E00
007C00
1FFF80
1FFF80
01E000
03C000
078000
078000
0F0000
1E0000
3C01C0
3C0180
7FFF80
7FFF80
FFFF80
FFFF80
ENDCHAR
STARTCHAR uni01BC
ENCODING 444
SWIDTH 560 0
DWIDTH 21 0
BBX 19 26 1 0
BITMAP
FFFF80
7FFF80
3E0F80
3E0780
3E0380
3E0380
3E0000
3E0000
3E0000
3E0000
3E0000
3FFC00
3FFF00
003F80
000FC0
000FE0
0007E0
0007E0
0007E0
7007E0
7007E0
780FC0
780FC0
7C1F80
7FFF00
1FF800
ENDCHAR
STARTCHAR uni01BD
ENCODING 445
SWIDTH 519 0
DWIDTH 20 0
BBX 17 18 1 0
BITMAP
FFFF00
7FFF00
3E0700
3E0700
3E0700
3E0000
3E0000
3FF800
3FFF00
183F80
001F80
000F80
000F80
700F80
781F80
7C1F80
7FFF00
3FFC00
ENDCHAR
STARTCHAR uni01BE
ENCODING 446
SWIDTH 445 0
DWIDTH 17 0
BBX 15 24 1 0
BITMAP
1E00
1E00
1E00
3E00
3E00
7FF0
FFF0
3E00
3E00
3E00
3F00
3F80
1FE0
0FF8
07FC
03FC
00FE
007E
003E
603E
703E
787C
7FF8
3FE0
ENDCHAR
STARTCHAR uni01BF
ENCODING 447
SWIDTH 590 0
DWIDTH 22 0
BBX 19 27 1 -8
BITMAP
FE3E00
7EFF80
3FFFC0
3F8FC0
3F07E0
3E03E0
3E03E0
3E03E0
3E03E0
3E03E0
3E03E0
3E03E0
3E03C0
3E07C0
3E0780
3E0F00
3E3E00
3EF800
3FE000
3F8000
3E0000
3E0000
3E0000
3E0000
3E0000
3E0000
3E0000
ENDCHAR
STARTCHAR uni01C0
ENCODING 448
SWIDTH 271 0
DWIDTH 10 0
BBX 4 27 3 0
BITMAP
F0
F0
F0
F0
F0
F0
F0
F0
F0
F0
F0
F0
F0
F0
F0
F0
F0
F0
F0
F0
F0
F0
F0
F0
F0
F0
F0
ENDCHAR
STARTCHAR uni01C1
ENCODING 449
SWIDTH 466 0
DWIDTH 18 0
BBX 12 27 3 0
BITMAP
F0F0
F0F0
F0F0
F0F0
F0F0
F0F0
F0F0
F0F0
F0F0
F0F0
F0F0
F0F0
F0F0
F0F0
F0F0
F0F0
F0F0
F0F0
F0F0
F0F0
F0F0
F0F0
F0F0
F0F0
F0F0
F0F0
F0F0
ENDCHAR
STARTCHAR uni01C2
ENCODING 450
SWIDTH 338 0
DWIDTH 13 0
BBX 12 27 1 0
BITMAP
0F00
0F00
0F00
0F00
0F00
0F00
0F00
0F00
0F00
0F00
FFF0
FFF0
0F00
0F00
0F00
FFF0
FFF0
0F00
0F00
0F00
0F00
0F00
0F00
0F00
0F00
0F00
0F00
ENDCHAR
STARTCHAR uni01C3
ENCODING 451
SWIDTH 298 0
DWIDTH 11 0
BBX 7 27 2 0
BITMAP
FE
FE
7C
7C
7C
7C
7C
7C
7C
7C
7C
7C
7C
7C
78
38
38
38
38
00
00
00
7C
7C
7C
7C
7C
ENDCHAR
STARTCHAR uni01C4
ENCODING 452
SWIDTH 1253 0
DWIDTH 48 0
BBX 44 34 2 0
BITMAP
000000030180
000000038380
00000001C700
00000000FE00
00000000FE00
000000007C00
000000000000
000000000000
FFFE007FFFF0
7FFFC07FFFF0
3F0FE07C07E0
3F03F0780FE0
3F01F8780FC0
3F00FC781FC0
3F00FC701F80
3F00FC003F80
3F007E003F00
3F007E007F00
3F007E007E00
3F007E00FE00
3F007E00FC00
3F007E01FC00
3F007E01F800
3F007E03F000
3F007E03F000
3F007C07E000
3F00FC07E000
3F00FC0FC070
3F00F81FC070
3F01F81F80F0
3F03F03F80F0
3F07E03F01F0
7FFF807FFFF0
FFFC007FFFF0
ENDCHAR
STARTCHAR uni01C5
ENCODING 453
SWIDTH 1183 0
DWIDTH 45 0
BBX 42 28 2 0
BITMAP
000000040200
000000060600
FFFE00070E00
7FFFC0039C00
3F0FE001F800
3F03F001F000
3F01F800F000
3F00FC000000
3F00FC000000
3F00FC3FFFC0
3F007E3FFFC0
3F007E3C1F80
3F007E381F00
3F007E303F00
3F007E307E00
3F007E007E00
3F007E00FC00
3F007E01F800
3F007E01F800
3F007C03F000
3F00FC03E000
3F00FC07E000
3F00F80FC0C0
3F01F80FC1C0
3F03F01F81C0
3F07E01F03C0
7FFF803FFFC0
FFFC003FFFC0
ENDCHAR
STARTCHAR uni01C6
ENCODING 454
SWIDTH 1076 0
DWIDTH 41 0
BBX 38 28 2 0
BITMAP
0000004060
003F8060E0
001F8071E0
000F803BC0
000F801F80
000F801F00
000F800F00
000F800000
000F800000
07FF83FFFC
1FFF83FFFC
3E1F83C1F8
7C1F8383F0
7C0F8303F0
780F8307E0
F80F8007C0
F80F800FC0
F80F801F80
F80F801F80
F80F803F00
F80F803E00
F80F807E00
FC0F80FC0C
7C1F80FC1C
7E3F81F81C
7FFF83F03C
3FCFC3FFFC
0F8FE3FFFC
ENDCHAR
STARTCHAR uni01C7
ENCODING 455
SWIDTH 876 0
DWIDTH 33 0
BBX 30 33 2 -7
BITMAP
FFC00FFC
7F8003F8
3F0003F8
3F0003F0
3F0003F0
3F0003F0
3F0003F0
3F0003F0
3F0003F0
3F0003F0
3F0003F0
3F0003F0
3F0003F0
3F0003F0
3F0003F0
3F0003F0
3F0003F0
3F0003F0
3F01C3F0
3F01C3F0
3F03C3F0
3F03C3F0
3F03C3F0
3F07C3F0
7FFFC3F0
FFFFC3F0
000003F0
000003F0
000003E0
000003E0
00000FC0
00000F00
00000C00
ENDCHAR
STARTCHAR uni01C8
ENCODING 456
SWIDTH 853 0
DWIDTH 32 0
BBX 27 34 2 -8
BITMAP
FFC003E0
7F8003E0
3F0003E0
3F0003E0
3F0003E0
3F000000
3F000000
3F000FE0
3F0007E0
3F0003E0
3F0003E0
3F0003E0
3F0003E0
3F0003E0
3F0003E0
3F0003E0
3F0003E0
3F0003E0
3F01C3E0
3F01C3E0
3F03C3E0
3F03C3E0
3F03C3E0
3F07C3E0
7FFFC3E0
FFFFC3E0
000003E0
000003E0
000003C0
000007C0
00000F80
00001F80
00001E00
00000800
ENDCHAR
STARTCHAR uni01C9
ENCODING 457
SWIDTH 610 0
DWIDTH 23 0
BBX 19 35 1 -8
BITMAP
FE0000
7E03E0
3E03E0
3E03E0
3E03E0
3E03E0
3E0000
3E0000
3E0FE0
3E07E0
3E03E0
3E03E0
3E03E0
3E03E0
3E03E0
3E03E0
3E03E0
3E03E0
3E03E0
3E03E0
3E03E0
3E03E0
3E03E0
3E03E0
3E03E0
7F03E0
FF83E0
0003E0
0003C0
0007C0
0007C0
000F80
001F00
001E00
001800
ENDCHAR
STARTCHAR uni01CA
ENCODING 458
SWIDTH 1020 0
DWIDTH 39 0
BBX 36 33 2 -7
BITMAP
FF01FC3FF0
7F00F81FE0
3F80700FC0
3F80700FC0
3FC0700FC0
3FC0700FC0
3FE0700FC0
3FF0700FC0
3BF0700FC0
3BF8700FC0
39F8700FC0
38FC700FC0
38FC700FC0
387E700FC0
387E700FC0
383F700FC0
383F700FC0
381FF00FC0
381FF00FC0
380FF00FC0
380FF00FC0
3807F00FC0
3807F00FC0
3803F00FC0
7C01F00FC0
FE01F00FC0
0000000FC0
0000000F80
0000000F80
0000001F00
0000003E00
0000007800
0000002000
ENDCHAR
STARTCHAR uni01CB
ENCODING 459
SWIDTH 981 0
DWIDTH 37 0
BBX 32 34 2 -8
BITMAP
FF01FC1F
7F00F81F
3F80701F
3F80701F
3FC0701F
3FC07000
3FE07000
3FF0707F
3BF0703F
3BF8701F
39F8701F
38FC701F
38FC701F
387E701F
387E701F
383F701F
383F701F
381FF01F
381FF01F
380FF01F
380FF01F
3807F01F
3807F01F
3803F01F
7C01F01F
FE01F01F
0000001F
0000001F
0000001E
0000003E
0000007C
000000F8
000000F0
00000040
ENDCHAR
STARTCHAR uni01CC
ENCODING 460
SWIDTH 905 0
DWIDTH 34 0
BBX 30 34 1 -8
BITMAP
0000007C
0000007C
0000007C
0000007C
0000007C
00000000
00000000
FF1F01FC
7F7F80FC
3FFF807C
3F8FC07C
3F07C07C
3E07C07C
3E07C07C
3E07C07C
3E07C07C
3E07C07C
3E07C07C
3E07C07C
3E07C07C
3E07C07C
3E07C07C
3E07C07C
3E07C07C
7F0FE07C
FF9FF07C
0000007C
0000007C
00000078
000000F8
000001F0
000003F0
000003C0
00000100
ENDCHAR
STARTCHAR uni01CD
ENCODING 461
SWIDTH 651 0
DWIDTH 25 0
BBX 25 34 0 0
BITMAP
00402000
00E0F000
0079E000
003FC000
001F8000
000F0000
00000000
00000000
001F0000
003F0000
003F8000
003F8000
007F8000
007FC000
006FC000
00E7C000
00E7C000
01C7E000
01C7E000
01C3E000
0383F000
0383F000
0381F000
0701F800
07FFF800
07FFF800
0E00F800
0E00FC00
1C00FC00
1C00FC00
1C007E00
3C007E00
7E00FF00
FF01FF80
ENDCHAR
STARTCHAR uni01CE
ENCODING 462
SWIDTH 535 0
DWIDTH 20 0
BBX 18 28 1 0
BITMAP
040400
0E0C00
071C00
07B800
03F000
03F000
01E000
000000
000000
03F800
1FFE00
7E3E00
7C1F00
781F00
781F00
001F00
001F00
01FF00
0FFF00
3F1F00
7C1F00
F81F00
F81F00
F83F00
FC7F00
FFEF00
7FCF80
1F1FC0
ENDCHAR
STARTCHAR uni01CF
ENCODING 463
SWIDTH 349 0
DWIDTH 13 0
BBX 12 34 1 0
BITMAP
4020
F070
79E0
3FC0
1F80
0F00
0000
0000
7FE0
3FC0
1F80
1F80
1F80
1F80
1F80
1F80
1F80
1F80
1F80
1F80
1F80
1F80
1F80
1F80
1F80
1F80
1F80
1F80
1F80
1F80
1F80
1F80
3FC0
7FE0
ENDCHAR
STARTCHAR uni01D0
ENCODING 464
SWIDTH 314 0
DWIDTH 12 0
BBX 10 28 1 0
BITMAP
C040
E0C0
F1C0
7B80
3F00
3F00
1E00
0000
0000
FE00
7E00
3E00
3E00
3E00
3E00
3E00
3E00
3E00
3E00
3E00
3E00
3E00
3E00
3E00
3E00
3E00
7F00
FF80
ENDCHAR
STARTCHAR uni01D1
ENCODING 465
SWIDTH 695 0
DWIDTH 26 0
BBX 22 34 2 0
BITMAP
010080
0383C0
01E780
00FF00
007E00
003C00
000000
000000
00FE00
07FF80
0F87E0
1F03E0
3E01F0
3E01F8
7E01F8
7C00F8
FC00FC
FC00FC
FC00FC
FC00FC
FC00FC
FC00FC
FC00FC
FC00FC
FC00FC
FC00FC
7C00F8
7E01F8
7E01F8
3E01F0
3F03E0
1F87C0
07FF80
01FC00
ENDCHAR
STARTCHAR uni01D2
ENCODING 466
SWIDTH 569 0
DWIDTH 22 0
BBX 18 28 2 0
BITMAP
080400
0C0C00
0E1C00
073800
03F000
03E000
01E000
000000
000000
03F800
0FFE00
3E1F00
3C0F80
7C0F80
7807C0
F807C0
F807C0
F807C0
F807C0
F807C0
F807C0
F807C0
F80780
7C0F80
7C0F00
3E1F00
1FFC00
07F000
ENDCHAR
STARTCHAR uni01D3
ENCODING 467
SWIDTH 676 0
DWIDTH 26 0
BBX 23 34 1 0
BITMAP
008040
01E1E0
00F3C0
007F80
003F00
001E00
000000
000000
FFC1FE
7F80FC
3F0078
3F0078
3F0078
3F0078
3F0078
3F0078
3F0078
3F0078
3F0078
3F0078
3F0078
3F0078
3F0078
3F0078
3F0078
3F0078
3F0078
3F0078
3F0078
1F80F0
1F80F0
0FC1E0
07FFC0
00FF00
ENDCHAR
STARTCHAR uni01D4
ENCODING 468
SWIDTH 597 0
DWIDTH 23 0
BBX 20 28 1 0
BITMAP
020200
070700
038E00
03DC00
01FC00
00F800
00F000
000000
000000
FE1FC0
7E0FC0
3E07C0
3E07C0
3E07C0
3E07C0
3E07C0
3E07C0
3E07C0
3E07C0
3E07C0
3E07C0
3E07C0
3E07C0
3E0FC0
3F1FC0
1FFFC0
1FE7E0
07C7F0
ENDCHAR
STARTCHAR uni01D5
ENCODING 469
SWIDTH 676 0
DWIDTH 26 0
BBX 23 36 1 0
BITMAP
01FFC0
01FFC0
01FFC0
000000
01E3C0
01E3C0
01E3C0
01E3C0
000000
000000
FFC1FE
7F80FC
3F0078
3F0078
3F0078
3F0078
3F0078
3F0078
3F0078
3F0078
3F0078
3F0078
3F0078
3F0078
3F0078
3F0078
3F0078
3F0078
3F0078
3F0078
3F0078
1F80F0
1F80F0
0FC1E0
07FFC0
00FF00
ENDCHAR
STARTCHAR uni01D6
ENCODING 470
SWIDTH 597 0
DWIDTH 23 0
BBX 20 30 1 0
BITMAP
07FE00
07FE00
07FE00
000000
000000
078F00
078F00
078F00
078F00
000000
000000
FE1FC0
7E0FC0
3E07C0
3E07C0
3E07C0
3E07C0
3E07C0
3E07C0
3E07C0
3E07C0
3E07C0
3E07C0
3E07C0
3E07C0
3E0FC0
3F1FC0
1FFFC0
1FE7E0
07C7F0
ENDCHAR
STARTCHAR uni01D7
ENCODING 471
SWIDTH 676 0
DWIDTH 26 0
BBX 23 39 1 0
BITMAP
0003E0
0007E0
000F80
001E00
003C00
001000
000000
01E3C0
01E3C0
01E3C0
01E3C0
000000
000000
FFC1FE
7F80FC
3F0078
3F0078
3F0078
3F0078
3F0078
3F0078
3F0078
3F0078
3F0078
3F0078
3F0078
3F0078
3F0078
3F0078
3F0078
3F0078
3F0078
3F0078
3F0078
1F80F0
1F80F0
0FC1E0
07FFC0
00FF00
ENDCHAR
STARTCHAR uni01D8
ENCODING 472
SWIDTH 597 0
DWIDTH 23 0
BBX 20 33 1 0
BITMAP
001F00
001E00
003C00
007800
00F000
00E000
00C000
000000
078F00
078F00
078F00
078F00
000000
000000
FE1FC0
7E0FC0
3E07C0
3E07C0
3E07C0
3E07C0
3E07C0
3E07C0
3E07C0
3E07C0
3E07C0
3E07C0
3E07C0
3E07C0
3E0FC0
3F1FC0
1FFFC0
1FE7E0
07C7F0
ENDCHAR
STARTCHAR uni01D9
ENCODING 473
SWIDTH 676 0
DWIDTH 26 0
BBX 23 39 1 0
BITMAP
008040
01E1E0
00F3C0
007F80
003F00
001E00
000000
01E3C0
01E3C0
01E3C0
01E3C0
000000
000000
FFC1FE
7F80FC
3F0078
3F0078
3F0078
3F0078
3F0078
3F0078
3F0078
3F0078
3F0078
3F0078
3F0078
3F0078
3F0078
3F0078
3F0078
3F0078
3F0078
3F0078
3F0078
1F80F0
1F80F0
0FC1E0
07FFC0
00FF00
ENDCHAR
STARTCHAR uni01DA
ENCODING 474
SWIDTH 597 0
DWIDTH 23 0
BBX 20 34 1 0
BITMAP
020200
070700
038E00
03DC00
01FC00
00F800
00F000
000000
000000
078F00
078F00
078F00
078F00
000000
000000
FE1FC0
7E0FC0
3E07C0
3E07C0
3E07C0
3E07C0
3E07C0
3E07C0
3E07C0
3E07C0
3E07C0
3E07C0
3E07C0
3E07C0
3E0FC0
3F1FC0
1FFFC0
1FE7E0
07C7F0
ENDCHAR
STARTCHAR uni01DB
ENCODING 475
SWIDTH 676 0
DWIDTH 26 0
BBX 23 39 1 0
BITMAP
03E000
03F000
00F800
003C00
001E00
000400
000000
01E3C0
01E3C0
01E3C0
01E3C0
000000
000000
FFC1FE
7F80FC
3F0078
3F0078
3F0078
3F0078
3F0078
3F0078
3F0078
3F0078
3F0078
3F0078
3F0078
3F0078
3F0078
3F0078
3F0078
3F0078
3F0078
3F0078
3F0078
1F80F0
1F80F0
0FC1E0
07FFC0
00FF00
ENDCHAR
STARTCHAR uni01DC
ENCODING 476
SWIDTH 597 0
DWIDTH 23 0
BBX 20 33 1 0
BITMAP
078000
07C000
03E000
00E000
007000
003800
001000
000000
078F00
078F00
078F00
078F00
000000
000000
FE1FC0
7E0FC0
3E07C0
3E07C0
3E07C0
3E07C0
3E07C0
3E07C0
3E07C0
3E07C0
3E07C0
3E07C0
3E07C0
3E07C0
3E0FC0
3F1FC0
1FFFC0
1FE7E0
07C7F0
ENDCHAR
STARTCHAR uni01DD
ENCODING 477
SWIDTH 537 0
DWIDTH 20 0
BBX 16 19 2 0
BITMAP
0FE0
7FF8
787C
703E
703E
001F
001F
001F
001F
FFFF
FFFF
F81F
F81F
F81E
783E
7C3C
3E7C
1FF0
07E0
ENDCHAR
STARTCHAR uni01DE
ENCODING 478
SWIDTH 651 0
DWIDTH 25 0
BBX 25 36 0 0
BITMAP
00FFE000
00FFE000
00FFE000
00000000
00F1E000
00F1E000
00F1E000
00F1E000
00000000
00000000
001F0000
003F0000
003F8000
003F8000
007F8000
007FC000
006FC000
00E7C000
00E7C000
01C7E000
01C7E000
01C3E000
0383F000
0383F000
0381F000
0701F800
07FFF800
07FFF800
0E00F800
0E00FC00
1C00FC00
1C00FC00
1C007E00
3C007E00
7E00FF00
FF01FF80
ENDCHAR
STARTCHAR uni01DF
ENCODING 479
SWIDTH 535 0
DWIDTH 20 0
BBX 18 30 1 0
BITMAP
0FFC00
0FFC00
0FFC00
000000
000000
0F1E00
0F1E00
0F1E00
0F1E00
000000
000000
03F800
1FFE00
7E3E00
7C1F00
781F00
781F00
001F00
001F00
01FF00
0FFF00
3F1F00
7C1F00
F81F00
F81F00
F83F00
FC7F00
FFEF00
7FCF80
1F1FC0
ENDCHAR
STARTCHAR uni01E0
ENCODING 480
SWIDTH 651 0
DWIDTH 25 0
BBX 25 37 0 0
BITMAP
00FFE000
00FFE000
00FFE000
00000000
001F0000
001F0000
001F0000
001F0000
001F0000
00000000
00000000
001F0000
003F0000
003F8000
003F8000
007F8000
007FC000
006FC000
00E7C000
00E7C000
01C7E000
01C7E000
01C3E000
0383F000
0383F000
0381F000
0701F800
07FFF800
07FFF800
0E00F800
0E00FC00
1C00FC00
1C00FC00
1C007E00
3C007E00
7E00FF00
FF01FF80
ENDCHAR
STARTCHAR uni01E1
ENCODING 481
SWIDTH 535 0
DWIDTH 20 0
BBX 18 30 1 0
BITMAP
0FFC00
0FFC00
0FFC00
000000
000000
01F000
01F000
01F000
01F000
01F000
000000
03F800
1FFE00
7E3E00
7C1F00
781F00
781F00
001F00
001F00
01FF00
0FFF00
3F1F00
7C1F00
F81F00
F81F00
F83F00
FC7F00
FFEF00
7FCF80
1F1FC0
ENDCHAR
STARTCHAR uni01E2
ENCODING 482
SWIDTH 880 0
DWIDTH 33 0
BBX 31 31 0 0
BITMAP
0000FFE0
0000FFE0
0000FFE0
00000000
00000000
0003FFFE
0007FFFE
0007F83E
000FF81E
000FF80E
001DF80E
001DF800
003DF800
0039F800
0079F830
0071F830
00F0F870
00E0FFF0
01E0FFF0
01C0F870
03C0F830
03FFFC30
07FFFC00
0700FC00
0F00FC0E
0E00FC0E
1E00FC1E
1E00FC1E
3E00FC3E
7E01FFFE
FF03FFFE
ENDCHAR
STARTCHAR uni01E3
ENCODING 483
SWIDTH 794 0
DWIDTH 30 0
BBX 27 25 1 0
BITMAP
007FE000
007FE000
007FE000
00000000
00000000
00000000
03F87C00
1FFDFF00
7E3FC780
7C1F87C0
781F83C0
781F03C0
001F03E0
001F03E0
01FFFFE0
0FFFFFE0
3F1F0000
7C1F0000
F81F0000
F81F8000
F83F8040
FC7FC1E0
FFE7FFC0
7FC3FF80
1F00FC00
ENDCHAR
STARTCHAR uni01E4
ENCODING 484
SWIDTH 659 0
DWIDTH 25 0
BBX 23 26 2 0
BITMAP
00FF80
03FFE0
0FC1E0
1F80E0
3F00E0
3E0060
7E0000
7E0000
7C0000
FC0000
FC0000
FC0000
FC0000
FC0000
FC0FFC
FC07F8
FC03F0
FC03F0
7C3FFE
7E3FFE
7E03F0
3E03F0
3F07F0
1F87F0
07FFF0
01FC70
ENDCHAR
STARTCHAR uni01E5
ENCODING 485
SWIDTH 520 0
DWIDTH 20 0
BBX 21 27 0 -8
BITMAP
01FFF0
0FFFF0
1F0FF0
1E0F80
3E07C0
3E07C0
3E07C0
3E07C0
3E07C0
1F0F80
1F0F80
0FFF00
0FFC00
1E0000
3E0000
3E0000
3FFF80
3FFFE0
1FFFF0
3FFFF0
7C01F0
FFFFF8
FFFFF8
7C03E0
3E07C0
3FFF80
07FE00
ENDCHAR
STARTCHAR Gcaron
ENCODING 486
SWIDTH 646 0
DWIDTH 25 0
BBX 22 34 2 0
BITMAP
030080
038380
01E700
00FF00
007E00
003C00
000000
000000
00FFC0
03FFF0
0FC1F0
1F80F0
3F00F0
3E0070
7E0000
7E0000
7C0000
FC0000
FC0000
FC0000
FC0000
FC0000
FC0FFC
FC07F8
FC03F0
FC03F0
7C03F0
7E03F0
7E03F0
3E03F0
3F03F0
1F87F0
07FFF0
01FC70
ENDCHAR
STARTCHAR gcaron
ENCODING 487
SWIDTH 520 0
DWIDTH 20 0
BBX 19 36 1 -8
BITMAP
080400
0C0C00
0E1C00
073800
03F000
03F000
01E000
000000
000000
03FFE0
1FFFE0
3E1F00
3C1F00
7C0F80
7C0F80
7C0F80
7C0F80
7C0F80
3E1F00
3E1F00
1FFE00
1FF800
380000
780000
780000
7FFF00
7FFFC0
3FFFE0
3FFFE0
7807E0
F003E0
F003E0
F003C0
FC0FC0
7FFF00
0FFC00
ENDCHAR
STARTCHAR uni01E8
ENCODING 488
SWIDTH 681 0
DWIDTH 26 0
BBX 24 34 2 0
BITMAP
010080
0383C0
01E780
00FF00
007E00
003C00
000000
000000
FFC3FE
7F81FC
3F01F8
3F01F0
3F01E0
3F03C0
3F03C0
3F0780
3F0F00
3F0E00
3F1E00
3F3C00
3FFE00
3FFF00
3F3F00
3F3F80
3F1F80
3F0FC0
3F0FE0
3F07E0
3F07F0
3F03F8
3F03F8
3F01FC
7F81FE
FFC3FF
ENDCHAR
STARTCHAR uni01E9
ENCODING 489
SWIDTH 591 0
DWIDTH 22 0
BBX 21 34 1 0
BITMAP
020100
070780
03CF00
01FE00
00FC00
007800
000000
FE0000
7E0000
3E0000
3E0000
3E0000
3E0000
3E0000
3E0000
3E1FF0
3E0FE0
3E0FC0
3E0F80
3E0F00
3E1E00
3E3C00
3E7800
3FFC00
3FFE00
3E7E00
3E3F00
3E3F00
3E1F80
3E0FC0
3E0FC0
3E07E0
7F07F0
FF8FF8
ENDCHAR
STARTCHAR uni01EA
ENCODING 490
SWIDTH 695 0
DWIDTH 26 0
BBX 22 34 2 -8
BITMAP
01FE00
07FF80
0F87E0
1F03E0
3E01F0
3E01F8
7E01F8
7C00F8
FC00FC
FC00FC
FC00FC
FC00FC
FC00FC
FC00FC
FC00FC
FC00FC
FC00FC
FC00FC
7C00F8
7E01F8
7E01F0
3E01F0
3F03E0
1F87C0
07FF80
01FE00
007000
006000
00E000
00E000
01E000
00E000
00FC00
007800
ENDCHAR
STARTCHAR uni01EB
ENCODING 491
SWIDTH 569 0
DWIDTH 22 0
BBX 18 27 2 -8
BITMAP
03F800
0FFE00
3E1F00
3C0F80
7C0F80
7807C0
F807C0
F807C0
F807C0
F807C0
F807C0
F807C0
F807C0
780780
7C0F80
7C0F80
3E1F00
0FFE00
03F800
00C000
01C000
038000
038000
038000
03F800
03F800
00F000
ENDCHAR
STARTCHAR uni01EC
ENCODING 492
SWIDTH 695 0
DWIDTH 26 0
BBX 22 39 2 -8
BITMAP
03FF80
03FF80
03FF80
000000
000000
01FE00
07FF80
0F87E0
1F03E0
3E01F0
3E01F8
7E01F8
7C00F8
FC00FC
FC00FC
FC00FC
FC00FC
FC00FC
FC00FC
FC00FC
FC00FC
FC00FC
FC00FC
7C00F8
7E01F8
7E01F0
3E01F0
3F03E0
1F87C0
07FF80
01FE00
007000
006000
00E000
00E000
01E000
00E000
00FC00
007800
ENDCHAR
STARTCHAR uni01ED
ENCODING 493
SWIDTH 569 0
DWIDTH 22 0
BBX 18 33 2 -8
BITMAP
1FF800
1FF800
1FF800
000000
000000
000000
03F800
0FFE00
3E1F00
3C0F80
7C0F80
7807C0
F807C0
F807C0
F807C0
F807C0
F807C0
F807C0
F807C0
780780
7C0F80
7C0F80
3E1F00
0FFE00
03F800
00C000
01C000
038000
038000
038000
03F800
03F800
00F000
ENDCHAR
STARTCHAR uni01EE
ENCODING 494
SWIDTH 553 0
DWIDTH 21 0
BBX 18 34 1 0
BITMAP
040200
0E0F00
079E00
03FC00
01F800
00F000
000000
000000
FFFFC0
FFFF80
F81F80
F03F00
E03E00
E07E00
00FC00
00F800
01F800
01F000
03E000
07F800
03FE00
003F00
001F80
000FC0
000FC0
000FC0
000FC0
E00FC0
E00FC0
F01F80
F01F80
F83F00
FFFE00
3FF000
ENDCHAR
STARTCHAR uni01EF
ENCODING 495
SWIDTH 482 0
DWIDTH 18 0
BBX 16 36 1 -8
BITMAP
1808
1C18
1E38
0F70
07E0
07E0
03C0
0000
0000
FFFE
FFFE
F07E
E07C
E0FC
E1F8
01F0
03F0
03E0
07E0
0FC0
0FC0
0FF0
07FC
00FE
003E
003F
001F
001F
001F
001F
001F
E03E
E03E
F07C
FFF8
7FE0
ENDCHAR
STARTCHAR uni01F0
ENCODING 496
SWIDTH 302 0
DWIDTH 11 0
BBX 11 36 0 -8
BITMAP
4040
E0E0
71C0
3BC0
3F80
1F00
0F00
0000
0000
7F00
3F00
1F00
1F00
1F00
1F00
1F00
1F00
1F00
1F00
1F00
1F00
1F00
1F00
1F00
1F00
1F00
1F00
1F00
1F00
1F00
1F00
3E00
7E00
FC00
7000
4000
ENDCHAR
STARTCHAR uni01F1
ENCODING 497
SWIDTH 1253 0
DWIDTH 48 0
BBX 44 26 2 0
BITMAP
FFFE007FFFF0
7FFFC07FFFF0
3F0FE07C07E0
3F03F0780FE0
3F01F8780FC0
3F00FC781FC0
3F00FC701F80
3F00FC003F80
3F007E003F00
3F007E007F00
3F007E007E00
3F007E00FE00
3F007E00FC00
3F007E01FC00
3F007E01F800
3F007E03F000
3F007E03F000
3F007C07E000
3F00FC07E000
3F00FC0FC070
3F00F81FC070
3F01F81F80F0
3F03F03F80F0
3F07E03F01F0
7FFF807FFFF0
FFFC007FFFF0
ENDCHAR
STARTCHAR uni01F2
ENCODING 498
SWIDTH 1183 0
DWIDTH 45 0
BBX 42 26 2 0
BITMAP
FFFE00000000
7FFFC0000000
3F0FE0000000
3F03F0000000
3F01F8000000
3F00FC000000
3F00FC000000
3F00FC3FFFC0
3F007E3FFFC0
3F007E3C1F80
3F007E381F00
3F007E303F00
3F007E307E00
3F007E007E00
3F007E00FC00
3F007E01F800
3F007E01F800
3F007C03F000
3F00FC03E000
3F00FC07E000
3F00F80FC0C0
3F01F80FC1C0
3F03F01F81C0
3F07E01F03C0
7FFF803FFFC0
FFFC003FFFC0
ENDCHAR
STARTCHAR uni01F3
ENCODING 499
SWIDTH 1076 0
DWIDTH 41 0
BBX 38 27 2 0
BITMAP
003F800000
001F800000
000F800000
000F800000
000F800000
000F800000
000F800000
000F800000
07FF83FFFC
1FFF83FFFC
3E1F83C1F8
7C1F8383F0
7C0F8303F0
780F8307E0
F80F8007C0
F80F800FC0
F80F801F80
F80F801F80
F80F803F00
F80F803E00
F80F807E00
FC0F80FC0C
7C1F80FC1C
7E3F81F81C
7FFF83F03C
3FCFC3FFFC
0F8FE3FFFC
ENDCHAR
STARTCHAR uni01F4
ENCODING 500
SWIDTH 646 0
DWIDTH 25 0
BBX 22 33 2 0
BITMAP
000F80
001F00
003C00
007800
00E000
00C000
000000
00FFC0
03FFF0
0FC1F0
1F80F0
3F00F0
3E0070
7E0000
7E0000
7C0000
FC0000
FC0000
FC0000
FC0000
FC0000
FC0FFC
FC07F8
FC03F0
FC03F0
7C03F0
7E03F0
7E03F0
3E03F0
3F03F0
1F87F0
07FFF0
01FC70
ENDCHAR
STARTCHAR uni01F5
ENCODING 501
SWIDTH 520 0
DWIDTH 20 0
BBX 19 35 1 -8
BITMAP
003C00
007C00
00F000
01E000
01C000
038000
010000
000000
03FFE0
1FFFE0
3E1F00
3C1F00
7C0F80
7C0F80
7C0F80
7C0F80
7C0F80
3E1F00
3E1F00
1FFE00
1FF800
380000
780000
780000
7FFF00
7FFFC0
3FFFE0
3FFFE0
7807E0
F003E0
F003E0
F003C0
FC0FC0
7FFF00
0FFC00
ENDCHAR
STARTCHAR uni01F6
ENCODING 502
SWIDTH 988 0
DWIDTH 38 0
BBX 34 26 2 0
BITMAP
FFC3FF0000
7F81FE0000
3F00FC0000
3F00FC0000
3F00FC0000
3F00FC0000
3F00FC0000
3F00FC1F00
3F00FC1F80
3F00FC1F80
3F00FC0F80
3FFFFC0FC0
3FFFFC0FC0
3F00FC07C0
3F00FC07C0
3F00FC07C0
3F00FC07C0
3F00FC07C0
3F00FC07C0
3F00FC0780
3F00FC0780
3F00FC0F00
3F007E0F00
3F007F1E00
7F803FFC00
FFC00FF000
ENDCHAR
STARTCHAR uni01F7
ENCODING 503
SWIDTH 684 0
DWIDTH 26 0
BBX 22 33 2 -7
BITMAP
FF0FC0
7F3FF0
3FFFF0
3FC3F8
3F81F8
3F00FC
3F00FC
3F00FC
3F00FC
3F00FC
3F00FC
3F00FC
3F00FC
3F00F8
3F00F8
3F01F8
3F01F0
3F01F0
3F03E0
3F03C0
3F0780
3F0F00
3F3E00
3F7800
3FE000
3F8000
3F0000
3F0000
3F0000
3F0000
3F0000
3F0000
3F0000
ENDCHAR
STARTCHAR uni01F8
ENCODING 504
SWIDTH 679 0
DWIDTH 26 0
BBX 22 33 2 0
BITMAP
03E000
01F000
00F800
003C00
001E00
000400
000000
FF01FC
7F00F8
3F8070
3F8070
3FC070
3FC070
3FE070
3FF070
3BF070
3BF870
39F870
38FC70
38FC70
387E70
387E70
383F70
383F70
381FF0
381FF0
380FF0
380FF0
3807F0
3807F0
3803F0
7C01F0
FE01F0
ENDCHAR
STARTCHAR uni01F9
ENCODING 505
SWIDTH 603 0
DWIDTH 23 0
BBX 20 27 1 0
BITMAP
07C000
03C000
01E000
00F000
007000
003800
001800
000000
FF1F00
7F7F80
3FFF80
3F8FC0
3F07C0
3E07C0
3E07C0
3E07C0
3E07C0
3E07C0
3E07C0
3E07C0
3E07C0
3E07C0
3E07C0
3E07C0
3E07C0
7F0FE0
FF9FF0
ENDCHAR
STARTCHAR Aringacute
ENCODING 506
SWIDTH 651 0
DWIDTH 25 0
BBX 25 36 0 0
BITMAP
0003E000
0007C000
001F0000
003C0000
00100000
001F0000
00318000
0060C000
0060C000
0060C000
0071C000
003F8000
003F8000
003F8000
007F8000
007FC000
006FC000
00E7C000
00E7C000
00C7E000
01C7E000
01C3E000
0383F000
0383F000
0381F000
0701F800
07FFF800
07FFF800
0E00F800
0E00FC00
1C00FC00
1C00FC00
1C007E00
3C007E00
7E00FF00
FF01FF80
ENDCHAR
STARTCHAR aringacute
ENCODING 507
SWIDTH 535 0
DWIDTH 20 0
BBX 18 35 1 0
BITMAP
003C00
007C00
00F800
00E000
01C000
038000
010000
01F000
071800
061800
060C00
060C00
061800
071800
01F000
000000
03F800
1FFE00
7E3E00
7C1F00
781F00
781F00
001F00
001F00
01FF00
0FFF00
3F1F00
7C1F00
F81F00
F81F00
F83F00
FC7F00
FFEF00
7FCF80
1F1FC0
ENDCHAR
STARTCHAR AEacute
ENCODING 508
SWIDTH 880 0
DWIDTH 33 0
BBX 31 33 0 0
BITMAP
000001E0
000003E0
00000780
00000F00
00001C00
00001800
00000000
0003FFFE
0007FFFE
0007F83E
000FF81E
000FF80E
001DF80E
001DF800
003DF800
0039F800
0079F830
0071F830
00F0F870
00E0FFF0
01E0FFF0
01C0F870
03C0F830
03FFFC30
07FFFC00
0700FC00
0F00FC0E
0E00FC0E
1E00FC1E
1E00FC1E
3E00FC3E
7E01FFFE
FF03FFFE
ENDCHAR
STARTCHAR aeacute
ENCODING 509
SWIDTH 794 0
DWIDTH 30 0
BBX 27 27 1 0
BITMAP
0001E000
0003E000
0003C000
00078000
000F0000
000E0000
00080000
00000000
03F87C00
1FFDFF00
7E3FC780
7C1F87C0
781F83C0
781F03C0
001F03E0
001F03E0
01FFFFE0
0FFFFFE0
3F1F0000
7C1F0000
F81F0000
F81F8000
F83F8040
FC7FC1E0
FFE7FFC0
7FC3FF80
1F00FC00
ENDCHAR
STARTCHAR Oslashacute
ENCODING 510
SWIDTH 695 0
DWIDTH 26 0
BBX 22 35 2 -2
BITMAP
000F80
001F80
003E00
007800
00F000
004038
000070
01FC70
07FFE0
0F87C0
1F03E0
3E03F0
7E03F8
7E07F8
7C06F8
FC0EFC
FC0CFC
FC1CFC
FC38FC
FC38FC
FC70FC
FC70FC
FCE0FC
FCC0FC
FDC0FC
7D80F8
7F81F8
7F01F8
3F01F0
1F03E0
0F87C0
1FFF80
39FE00
380000
700000
ENDCHAR
STARTCHAR oslashacute
ENCODING 511
SWIDTH 569 0
DWIDTH 22 0
BBX 18 29 2 -2
BITMAP
003C00
007C00
00F800
00E000
01C000
038000
0101C0
000380
03FB00
0FFF00
3E1F00
3C0F80
7C1F80
783FC0
F837C0
F877C0
F8E7C0
F8C7C0
F9C7C0
FB87C0
FB07C0
FF0780
7E0F80
7C0F00
3E1F00
3FFC00
37F000
700000
E00000
ENDCHAR
STARTCHAR uni0200
ENCODING 512
SWIDTH 651 0
DWIDTH 25 0
BBX 25 33 0 0
BITMAP
071E0000
07CF0000
01E78000
00F3C000
0078E000
00104000
00000000
001F0000
003F0000
003F8000
003F8000
007F8000
007FC000
006FC000
00E7C000
00E7C000
01C7E000
01C7E000
01C3E000
0383F000
0383F000
0381F000
0701F800
07FFF800
07FFF800
0E00F800
0E00FC00
1C00FC00
1C00FC00
1C007E00
3C007E00
7E00FF00
FF01FF80
ENDCHAR
STARTCHAR uni0201
ENCODING 513
SWIDTH 535 0
DWIDTH 20 0
BBX 18 27 1 0
BITMAP
79E000
38E000
1C7000
0E3800
071C00
038C00
010400
000000
03F800
1FFE00
7E3E00
7C1F00
781F00
781F00
001F00
001F00
01FF00
0FFF00
3F1F00
7C1F00
F81F00
F81F00
F83F00
FC7F00
FFEF00
7FCF80
1F1FC0
ENDCHAR
STARTCHAR uni0202
ENCODING 514
SWIDTH 651 0
DWIDTH 25 0
BBX 25 33 0 0
BITMAP
001F0000
007F8000
00FFC000
00E1E000
01C06000
01806000
00000000
001F0000
003F0000
003F8000
003F8000
007F8000
007FC000
006FC000
00E7C000
00E7C000
01C7E000
01C7E000
01C3E000
0383F000
0383F000
0381F000
0701F800
07FFF800
07FFF800
0E00F800
0E00FC00
1C00FC00
1C00FC00
1C007E00
3C007E00
7E00FF00
FF01FF80
ENDCHAR
STARTCHAR uni0203
ENCODING 515
SWIDTH 535 0
DWIDTH 20 0
BBX 18 27 1 0
BITMAP
01F000
07F800
0FFC00
0E1C00
0C0E00
180600
000000
000000
03F800
1FFE00
7E3E00
7C1F00
781F00
781F00
001F00
001F00
01FF00
0FFF00
3F1F00
7C1F00
F81F00
F81F00
F83F00
FC7F00
FFEF00
7FCF80
1F1FC0
ENDCHAR
STARTCHAR uni0204
ENCODING 516
SWIDTH 577 0
DWIDTH 22 0
BBX 18 33 2 0
BITMAP
71E000
7CF000
1E7800
0F3C00
078E00
010400
000000
FFFFC0
7FFFC0
3F07C0
3F03C0
3F01C0
3F01C0
3F0000
3F0000
3F0000
3F0600
3F0600
3F0E00
3FFE00
3FFE00
3F0E00
3F0600
3F0600
3F0000
3F0000
3F01C0
3F01C0
3F03C0
3F03C0
3F07C0
7FFFC0
FFFFC0
ENDCHAR
STARTCHAR uni0205
ENCODING 517
SWIDTH 530 0
DWIDTH 20 0
BBX 16 27 2 0
BITMAP
73C0
79E0
38E0
1C70
0E38
071C
0208
0000
07E0
1FF8
3E3C
3C3E
7C1E
781E
F81F
F81F
FFFF
FFFF
F800
F800
F800
FC00
7C02
7E0F
3FFE
1FFC
07F0
ENDCHAR
STARTCHAR uni0206
ENCODING 518
SWIDTH 577 0
DWIDTH 22 0
BBX 18 33 2 0
BITMAP
01F000
07F800
0FFC00
0E1E00
1C0600
180600
000000
FFFFC0
7FFFC0
3F07C0
3F03C0
3F01C0
3F01C0
3F0000
3F0000
3F0000
3F0600
3F0600
3F0E00
3FFE00
3FFE00
3F0E00
3F0600
3F0600
3F0000
3F0000
3F01C0
3F01C0
3F03C0
3F03C0
3F07C0
7FFFC0
FFFFC0
ENDCHAR
STARTCHAR uni0207
ENCODING 519
SWIDTH 530 0
DWIDTH 20 0
BBX 16 27 2 0
BITMAP
03E0
0FF0
0FF8
1C1C
180C
180C
0000
0000
07E0
1FF8
3E3C
3C3E
7C1E
781E
F81F
F81F
FFFF
FFFF
F800
F800
F800
FC00
7C02
7E0F
3FFE
1FFC
07F0
ENDCHAR
STARTCHAR uni0208
ENCODING 520
SWIDTH 349 0
DWIDTH 13 0
BBX 14 33 -2 0
BITMAP
F1C0
79E0
3CF0
0E38
071C
030C
0000
0FFC
07F8
03F0
03F0
03F0
03F0
03F0
03F0
03F0
03F0
03F0
03F0
03F0
03F0
03F0
03F0
03F0
03F0
03F0
03F0
03F0
03F0
03F0
03F0
07F8
0FFC
ENDCHAR
STARTCHAR uni0209
ENCODING 521
SWIDTH 314 0
DWIDTH 12 0
BBX 13 27 -2 0
BITMAP
F380
F3C0
39E0
1CF0
0E70
0638
0208
0000
1FC0
0FC0
07C0
07C0
07C0
07C0
07C0
07C0
07C0
07C0
07C0
07C0
07C0
07C0
07C0
07C0
07C0
0FE0
1FF0
ENDCHAR
STARTCHAR uni020A
ENCODING 522
SWIDTH 349 0
DWIDTH 13 0
BBX 12 33 1 0
BITMAP
1F00
3FC0
7FE0
E0E0
C060
C030
0000
7FE0
3FC0
1F80
1F80
1F80
1F80
1F80
1F80
1F80
1F80
1F80
1F80
1F80
1F80
1F80
1F80
1F80
1F80
1F80
1F80
1F80
1F80
1F80
1F80
3FC0
7FE0
ENDCHAR
STARTCHAR uni020B
ENCODING 523
SWIDTH 314 0
DWIDTH 12 0
BBX 12 27 0 0
BITMAP
0F80
3FC0
7FE0
70E0
E070
C030
0000
0000
7F00
3F00
1F00
1F00
1F00
1F00
1F00
1F00
1F00
1F00
1F00
1F00
1F00
1F00
1F00
1F00
1F00
3F80
7FC0
ENDCHAR
STARTCHAR uni020C
ENCODING 524
SWIDTH 695 0
DWIDTH 26 0
BBX 22 33 2 0
BITMAP
1E7800
1F3C00
079E00
03CF00
00E380
004100
000000
00FE00
07FF80
0F87E0
1F03E0
3E01F0
3E01F8
7E01F8
7C00F8
FC00FC
FC00FC
FC00FC
FC00FC
FC00FC
FC00FC
FC00FC
FC00FC
FC00FC
FC00FC
7C00F8
7E01F8
7E01F8
3E01F0
3F03E0
1F87C0
07FF80
01FC00
ENDCHAR
STARTCHAR uni020D
ENCODING 525
SWIDTH 569 0
DWIDTH 22 0
BBX 18 27 2 0
BITMAP
71C000
79E000
3CF000
1E7800
0E3800
071C00
010800
000000
03F800
0FFE00
3E1F00
3C0F80
7C0F80
7807C0
F807C0
F807C0
F807C0
F807C0
F807C0
F807C0
F807C0
F80780
7C0F80
7C0F00
3E1F00
1FFC00
07F000
ENDCHAR
STARTCHAR uni020E
ENCODING 526
SWIDTH 695 0
DWIDTH 26 0
BBX 22 33 2 0
BITMAP
007C00
01FE00
03FF00
038780
070180
060180
000000
00FE00
07FF80
0F87E0
1F03E0
3E01F0
3E01F8
7E01F8
7C00F8
FC00FC
FC00FC
FC00FC
FC00FC
FC00FC
FC00FC
FC00FC
FC00FC
FC00FC
FC00FC
7C00F8
7E01F8
7E01F8
3E01F0
3F03E0
1F87C0
07FF80
01FC00
ENDCHAR
STARTCHAR uni020F
ENCODING 527
SWIDTH 569 0
DWIDTH 22 0
BBX 18 27 2 0
BITMAP
03E000
07F800
0FFC00
0E1C00
1C0C00
180600
000000
000000
03F800
0FFE00
3E1F00
3C0F80
7C0F80
7807C0
F807C0
F807C0
F807C0
F807C0
F807C0
F807C0
F807C0
F80780
7C0F80
7C0F00
3E1F00
1FFC00
07F000
ENDCHAR
STARTCHAR uni0210
ENCODING 528
SWIDTH 661 0
DWIDTH 25 0
BBX 23 33 2 0
BITMAP
3C7000
3E7800
0F3C00
078E00
01C700
00C300
000000
FFFE00
7FFF80
3F0FE0
3F07E0
3F03F0
3F03F0
3F03F0
3F03F0
3F03F0
3F03F0
3F03E0
3F07E0
3F0FC0
3FFF00
3FFE00
3F1F80
3F1FC0
3F0FC0
3F0FE0
3F07E0
3F07E0
3F03F0
3F03F0
3F03F8
7F81FC
FFC0FE
ENDCHAR
STARTCHAR uni0211
ENCODING 529
SWIDTH 461 0
DWIDTH 18 0
BBX 16 27 1 0
BITMAP
E380
F3C0
79E0
3CF0
1C70
0E38
0610
0000
FE1F
7E7F
3FFF
3F8F
3F07
3E00
3E00
3E00
3E00
3E00
3E00
3E00
3E00
3E00
3E00
3E00
3E00
7F00
FF80
ENDCHAR
STARTCHAR uni0212
ENCODING 530
SWIDTH 661 0
DWIDTH 25 0
BBX 23 33 2 0
BITMAP
00F800
03FE00
03FE00
070700
060300
040100
000000
FFFE00
7FFF80
3F0FE0
3F07E0
3F03F0
3F03F0
3F03F0
3F03F0
3F03F0
3F03F0
3F03E0
3F07E0
3F0FC0
3FFF00
3FFE00
3F1F80
3F1FC0
3F0FC0
3F0FE0
3F07E0
3F07E0
3F03F0
3F03F0
3F03F8
7F81FC
FFC0FE
ENDCHAR
STARTCHAR uni0213
ENCODING 531
SWIDTH 461 0
DWIDTH 18 0
BBX 16 27 1 0
BITMAP
07C0
0FF0
1FF8
1C38
3818
300C
0000
0000
FE1F
7E7F
3FFF
3F8F
3F07
3E00
3E00
3E00
3E00
3E00
3E00
3E00
3E00
3E00
3E00
3E00
3E00
7F00
FF80
ENDCHAR
STARTCHAR uni0214
ENCODING 532
SWIDTH 676 0
DWIDTH 26 0
BBX 23 33 1 0
BITMAP
0F3C00
0F9E00
03CF00
01E380
0071C0
002080
000000
FFC1FE
7F80FC
3F0078
3F0078
3F0078
3F0078
3F0078
3F0078
3F0078
3F0078
3F0078
3F0078
3F0078
3F0078
3F0078
3F0078
3F0078
3F0078
3F0078
3F0078
3F0078
1F80F0
1F80F0
0FC1E0
07FFC0
00FF00
ENDCHAR
STARTCHAR uni0215
ENCODING 533
SWIDTH 597 0
DWIDTH 23 0
BBX 20 27 1 0
BITMAP
1CF000
1E7800
0E3800
071C00
038E00
01C700
008200
000000
FE1FC0
7E0FC0
3E07C0
3E07C0
3E07C0
3E07C0
3E07C0
3E07C0
3E07C0
3E07C0
3E07C0
3E07C0
3E07C0
3E07C0
3E0FC0
3F1FC0
1FFFC0
1FE7E0
07C7F0
ENDCHAR
STARTCHAR uni0216
ENCODING 534
SWIDTH 676 0
DWIDTH 26 0
BBX 23 33 1 0
BITMAP
003E00
00FF80
00FF80
01C1C0
0180C0
0300C0
000000
FFC1FE
7F80FC
3F0078
3F0078
3F0078
3F0078
3F0078
3F0078
3F0078
3F0078
3F0078
3F0078
3F0078
3F0078
3F0078
3F0078
3F0078
3F0078
3F0078
3F0078
3F0078
1F80F0
1F80F0
0FC1E0
07FFC0
00FF00
ENDCHAR
STARTCHAR uni0217
ENCODING 535
SWIDTH 597 0
DWIDTH 23 0
BBX 20 27 1 0
BITMAP
00F800
03FC00
03FE00
070700
060300
060300
000000
000000
FE1FC0
7E0FC0
3E07C0
3E07C0
3E07C0
3E07C0
3E07C0
3E07C0
3E07C0
3E07C0
3E07C0
3E07C0
3E07C0
3E07C0
3E0FC0
3F1FC0
1FFFC0
1FE7E0
07C7F0
ENDCHAR
STARTCHAR uni0218
ENCODING 536
SWIDTH 513 0
DWIDTH 20 0
BBX 16 34 2 -8
BITMAP
07FE
1FFF
3E1F
7C0F
F807
F807
F800
FC00
FC00
FF00
7FC0
3FE0
1FF8
0FFC
03FE
01FE
007F
003F
001F
E01F
E01F
F01E
F03E
F87C
FFF8
3FE0
0000
0000
03C0
03C0
03C0
07C0
1F80
0E00
ENDCHAR
STARTCHAR uni0219
ENCODING 537
SWIDTH 458 0
DWIDTH 17 0
BBX 14 27 2 -8
BITMAP
0FF8
3FFC
7C3C
F81C
F80C
F800
FE00
7F80
7FE0
1FF0
07F8
01FC
00FC
007C
C07C
E07C
F0F8
FFF0
7FC0
0000
0000
03C0
03C0
03C0
07C0
1F80
0E00
ENDCHAR
STARTCHAR uni021A
ENCODING 538
SWIDTH 639 0
DWIDTH 24 0
BBX 22 34 1 -8
BITMAP
FFFFFC
FFFFFC
F8FC7C
F0FC3C
F0FC3C
E0FC1C
E0FC1C
00FC00
00FC00
00FC00
00FC00
00FC00
00FC00
00FC00
00FC00
00FC00
00FC00
00FC00
00FC00
00FC00
00FC00
00FC00
00FC00
00FC00
01FE00
03FF00
000000
000000
007800
007800
007800
00F800
01F000
01C000
ENDCHAR
STARTCHAR uni021B
ENCODING 539
SWIDTH 365 0
DWIDTH 14 0
BBX 13 32 1 -8
BITMAP
1E00
1E00
1E00
1E00
3E00
7FF0
FFF0
3E00
3E00
3E00
3E00
3E00
3E00
3E00
3E00
3E00
3E00
3E00
3E00
3E00
3F10
1FF8
1FF0
07C0
0000
0000
0780
0780
0780
0F80
3F00
3C00
ENDCHAR
STARTCHAR uni021C
ENCODING 540
SWIDTH 539 0
DWIDTH 20 0
BBX 17 26 2 0
BITMAP
1FF000
FFFE00
F87F00
F03F80
F01F80
E01F80
001F80
001F80
001F00
003F00
007E00
1FF800
1FE000
1FFC00
007E00
003F00
001F80
001F80
001F80
E01F80
E01F80
F01F00
F03F00
F87E00
FFFC00
3FE000
ENDCHAR
STARTCHAR uni021D
ENCODING 541
SWIDTH 499 0
DWIDTH 19 0
BBX 16 27 1 -8
BITMAP
0FE0
FFF8
FFFC
F87E
F07E
E03E
003E
003E
003C
007C
00F8
1FE0
1FF0
00FC
007E
003E
003F
001F
001F
001F
001F
001F
E03E
E03E
F07C
FFF8
7FE0
ENDCHAR
STARTCHAR uni021E
ENCODING 542
SWIDTH 721 0
DWIDTH 27 0
BBX 24 34 2 0
BITMAP
0100C0
01C1C0
01E780
00FF00
007E00
003C00
000000
000000
FFC3FF
7F81FE
3F00FC
3F00FC
3F00FC
3F00FC
3F00FC
3F00FC
3F00FC
3F00FC
3F00FC
3F00FC
3FFFFC
3FFFFC
3F00FC
3F00FC
3F00FC
3F00FC
3F00FC
3F00FC
3F00FC
3F00FC
3F00FC
3F00FC
7F81FE
FFC3FF
ENDCHAR
STARTCHAR uni021F
ENCODING 543
SWIDTH 596 0
DWIDTH 23 0
BBX 20 34 1 0
BITMAP
020100
070780
03CF00
01FE00
00FC00
007800
000000
FE0000
7E0000
3E0000
3E0000
3E0000
3E0000
3E0000
3E0000
3E3E00
3E7F80
3FFF80
3F8FC0
3F07C0
3E07C0
3E07C0
3E07C0
3E07C0
3E07C0
3E07C0
3E07C0
3E07C0
3E07C0
3E07C0
3E07C0
3E07C0
7F0FE0
FF9FF0
ENDCHAR
STARTCHAR uni0220
ENCODING 544
SWIDTH 692 0
DWIDTH 26 0
BBX 23 33 2 -7
BITMAP
FF0FC0
7F3FE0
3F7FF0
3FC3F0
3F81F8
3F01F8
3F01F8
3F01F8
3F01F8
3F01F8
3F01F8
3F01F8
3F01F8
3F01F8
3F01F8
3F01F8
3F01F8
3F01F8
3F01F8
3F01F8
3F01F8
3F01F8
3F01F8
3F01F8
7F81F8
FFC1F8
0001F8
0001F8
0001F8
0001F8
0001F8
0003FC
0007FE
ENDCHAR
STARTCHAR uni0221
ENCODING 545
SWIDTH 766 0
DWIDTH 29 0
BBX 27 30 2 -3
BITMAP
003F8000
001F8000
000F8000
000F8000
000F8000
000F8000
000F8000
000F8000
07FF8000
1FFF8000
3E1F8000
7C1F8000
7C0F8000
780F8000
F80F8000
F80F8000
F80F8000
F80F8000
F80F8780
F80F9FC0
F80FB8C0
FC0FF0E0
7C1FE0C0
7E3FC1C0
7FF7FF80
3FC3FF00
0F81FE00
00038000
00030000
00030000
ENDCHAR
STARTCHAR uni0222
ENCODING 546
SWIDTH 623 0
DWIDTH 24 0
BBX 20 26 2 0
BITMAP
030E00
1F0F80
3E07E0
7E07E0
7C03F0
FC03F0
FC03F0
FC03F0
FC03F0
FC03E0
7E07E0
3F0FC0
1FFF00
0FFF80
3F0FC0
7E07E0
FC03F0
FC03F0
FC03F0
FC03F0
FC03F0
FC03E0
7E07E0
3F0FC0
1FFF80
03FC00
ENDCHAR
STARTCHAR uni0223
ENCODING 547
SWIDTH 561 0
DWIDTH 21 0
BBX 17 27 2 0
BITMAP
063800
1E3E00
3E3F00
7C1F00
FC1F80
F80F80
F80F80
F80F80
F80F80
F80F00
7C1F00
3E3E00
1FF800
0FFC00
3FFE00
7E3F00
FC1F00
F80F80
F80F80
F80F80
F80F80
F80F80
FC1F00
7E3F00
3FFE00
1FFC00
07F000
ENDCHAR
STARTCHAR uni0224
ENCODING 548
SWIDTH 566 0
DWIDTH 22 0
BBX 20 30 1 -4
BITMAP
7FFFE0
7FFFE0
780FC0
700FC0
701F80
601F80
003F00
003F00
007E00
00FE00
00FC00
01FC00
01F800
03F800
03F000
07F000
07E000
0FE000
0FC000
1FC000
1F8000
3F8000
3F0000
7F0000
7FFF80
FFFFF0
0001F0
0000F0
000070
000070
ENDCHAR
STARTCHAR uni0225
ENCODING 549
SWIDTH 479 0
DWIDTH 18 0
BBX 16 22 1 -3
BITMAP
FFFF
FFFF
F07E
F07E
E0FC
E0F8
01F8
03F0
03F0
07E0
07C0
0FC0
1F80
1F80
3F00
3E00
7E00
FFFC
FFFF
000F
0007
0003
ENDCHAR
STARTCHAR uni0226
ENCODING 550
SWIDTH 651 0
DWIDTH 25 0
BBX 25 33 0 0
BITMAP
001F0000
001F0000
001F0000
001F0000
001F0000
00000000
00000000
001F0000
003F0000
003F8000
003F8000
007F8000
007FC000
006FC000
00E7C000
00E7C000
01C7E000
01C7E000
01C3E000
0383F000
0383F000
0381F000
0701F800
07FFF800
07FFF800
0E00F800
0E00FC00
1C00FC00
1C00FC00
1C007E00
3C007E00
7E00FF00
FF01FF80
ENDCHAR
STARTCHAR uni0227
ENCODING 551
SWIDTH 535 0
DWIDTH 20 0
BBX 18 26 1 0
BITMAP
01F000
01F000
01F000
01F000
01F000
000000
000000
03F800
1FFE00
7E3E00
7C1F00
781F00
781F00
001F00
001F00
01FF00
0FFF00
3F1F00
7C1F00
F81F00
F81F00
F83F00
FC7F00
FFEF00
7FCF80
1F1FC0
ENDCHAR
STARTCHAR uni0228
ENCODING 552
SWIDTH 577 0
DWIDTH 22 0
BBX 19 34 2 -8
BITMAP
FFFFE0
7FFFE0
3F03E0
3F01E0
3F00E0
3F00E0
3F0000
3F0000
3F0600
3F0600
3F0E00
3FFE00
3FFE00
3F0E00
3F0600
3F0600
3F0000
3F0000
3F0000
3F00E0
3F00E0
3F01E0
3F01E0
3F03E0
7FFFE0
FFFFE0
003000
00E000
00F000
00F000
00F000
01E000
07E000
070000
ENDCHAR
STARTCHAR uni0229
ENCODING 553
SWIDTH 530 0
DWIDTH 20 0
BBX 16 27 2 -8
BITMAP
07E0
1FF8
3E3C
3C3E
781E
781E
F81F
F81F
FFFF
FFFF
F800
F800
F800
FC00
7C02
7E0F
3FFE
1FF8
07F0
0060
01C0
01E0
01E0
01E0
03C0
0F80
0E00
ENDCHAR
STARTCHAR uni022A
ENCODING 554
SWIDTH 695 0
DWIDTH 26 0
BBX 22 36 2 0
BITMAP
03FF80
03FF80
03FF80
000000
03C780
03C780
03C780
03C780
000000
000000
00FE00
07FF80
0F87E0
1F03E0
3E01F0
3E01F8
7E01F8
7C00F8
FC00FC
FC00FC
FC00FC
FC00FC
FC00FC
FC00FC
FC00FC
FC00FC
FC00FC
FC00FC
7C00F8
7E01F8
7E01F8
3E01F0
3F03E0
1F87C0
07FF80
01FC00
ENDCHAR
STARTCHAR uni022B
ENCODING 555
SWIDTH 569 0
DWIDTH 22 0
BBX 18 30 2 0
BITMAP
1FF800
1FF800
1FF800
000000
000000
1E3C00
1E3C00
1E3C00
1E3C00
000000
000000
03F800
0FFE00
3E1F00
3C0F80
7C0F80
7807C0
F807C0
F807C0
F807C0
F807C0
F807C0
F807C0
F807C0
F80780
7C0F80
7C0F00
3E1F00
1FFC00
07F000
ENDCHAR
STARTCHAR uni022C
ENCODING 556
SWIDTH 695 0
DWIDTH 26 0
BBX 22 37 2 0
BITMAP
03FF80
03FF80
03FF80
000000
01E080
03F180
03FF80
073F00
060E00
000000
000000
00FE00
07FF80
0F87E0
1F03E0
3E01F0
3E01F8
7E01F8
7C00F8
FC00FC
FC00FC
FC00FC
FC00FC
FC00FC
FC00FC
FC00FC
FC00FC
FC00FC
FC00FC
7C00F8
7E01F8
7E01F8
3E01F0
3F03E0
1F87C0
07FF80
01FC00
ENDCHAR
STARTCHAR uni022D
ENCODING 557
SWIDTH 569 0
DWIDTH 22 0
BBX 18 30 2 0
BITMAP
1FF800
1FF800
1FF800
000000
000000
070600
0FC600
1FFC00
18FC00
107800
000000
03F800
0FFE00
3E1F00
3C0F80
7C0F80
7807C0
F807C0
F807C0
F807C0
F807C0
F807C0
F807C0
F807C0
F80780
7C0F80
7C0F00
3E1F00
1FFC00
07F000
ENDCHAR
STARTCHAR uni022E
ENCODING 558
SWIDTH 695 0
DWIDTH 26 0
BBX 22 33 2 0
BITMAP
007C00
007C00
007C00
007C00
007C00
000000
000000
00FE00
07FF80
0F87E0
1F03E0
3E01F0
3E01F8
7E01F8
7C00F8
FC00FC
FC00FC
FC00FC
FC00FC
FC00FC
FC00FC
FC00FC
FC00FC
FC00FC
FC00FC
7C00F8
7E01F8
7E01F8
3E01F0
3F03E0
1F87C0
07FF80
01FC00
ENDCHAR
STARTCHAR uni022F
ENCODING 559
SWIDTH 569 0
DWIDTH 22 0
BBX 18 26 2 0
BITMAP
03E000
03E000
03E000
03E000
03E000
000000
000000
03F800
0FFE00
3E1F00
3C0F80
7C0F80
7807C0
F807C0
F807C0
F807C0
F807C0
F807C0
F807C0
F807C0
F80780
7C0F80
7C0F00
3E1F00
1FFC00
07F000
ENDCHAR
STARTCHAR uni0230
ENCODING 560
SWIDTH 695 0
DWIDTH 26 0
BBX 22 37 2 0
BITMAP
03FF80
03FF80
03FF80
000000
007C00
007C00
007C00
007C00
007C00
000000
000000
00FE00
07FF80
0F87E0
1F03E0
3E01F0
3E01F8
7E01F8
7C00F8
FC00FC
FC00FC
FC00FC
FC00FC
FC00FC
FC00FC
FC00FC
FC00FC
FC00FC
FC00FC
7C00F8
7E01F8
7E01F8
3E01F0
3F03E0
1F87C0
07FF80
01FC00
ENDCHAR
STARTCHAR uni0231
ENCODING 561
SWIDTH 569 0
DWIDTH 22 0
BBX 18 30 2 0
BITMAP
1FF800
1FF800
1FF800
000000
000000
03E000
03E000
03E000
03E000
03E000
000000
03F800
0FFE00
3E1F00
3C0F80
7C0F80
7807C0
F807C0
F807C0
F807C0
F807C0
F807C0
F807C0
F807C0
F80780
7C0F80
7C0F00
3E1F00
1FFC00
07F000
ENDCHAR
STARTCHAR uni0232
ENCODING 562
SWIDTH 604 0
DWIDTH 23 0
BBX 23 31 0 0
BITMAP
01FFC0
01FFC0
01FFC0
000000
000000
FFC0FE
7F807C
3F0078
3F8070
1F8070
1F80E0
0FC0E0
0FC1C0
07E1C0
07E380
03F380
03F700
03FF00
01FE00
01FE00
00FC00
00FC00
00FC00
00FC00
00FC00
00FC00
00FC00
00FC00
00FC00
01FE00
03FF00
ENDCHAR
STARTCHAR uni0233
ENCODING 563
SWIDTH 530 0
DWIDTH 20 0
BBX 20 33 0 -8
BITMAP
07FE00
07FE00
07FE00
000000
000000
000000
FF87F0
7F03E0
3F03C0
3F03C0
3F0380
1F0380
1F0300
1F8700
0F8700
0F8E00
0FCE00
07CC00
07DC00
07F800
03F800
03F800
03F000
01F000
01E000
00E000
00C000
01C000
C38000
E78000
FF0000
FE0000
F80000
ENDCHAR
STARTCHAR uni0234
ENCODING 564
SWIDTH 477 0
DWIDTH 18 0
BBX 17 30 1 -3
BITMAP
FE0000
7E0000
3E0000
3E0000
3E0000
3E0000
3E0000
3E0000
3E0000
3E0000
3E0000
3E0000
3E0000
3E0000
3E0000
3E0000
3E0000
3E0000
3E1E00
3E7F00
3EE300
3FC380
3F8300
3F8700
1FFE00
0FFC00
07F800
0E0000
0C0000
0C0000
ENDCHAR
STARTCHAR uni0235
ENCODING 565
SWIDTH 775 0
DWIDTH 29 0
BBX 28 22 1 -3
BITMAP
FE3E0000
7EFF8000
3FFF8000
3F8FC000
3F07C000
3E07C000
3E07C000
3E07C000
3E07C000
3E07C000
3E07C3C0
3E07CFE0
3E07DC60
3E07F870
3E07F060
3E07E0E0
3E03FFC0
7F01FF80
FF80FF00
0001C000
00018000
00018000
ENDCHAR
STARTCHAR uni0236
ENCODING 566
SWIDTH 472 0
DWIDTH 18 0
BBX 17 27 1 -3
BITMAP
1E0000
1E0000
1E0000
3E0000
3E0000
7FF000
FFF000
3E0000
3E0000
3E0000
3E0000
3E0000
3E0000
3E0000
3E0000
3E1E00
3E7F00
3EE300
3FC380
3F8300
3F8700
1FFE00
0FFC00
07F800
0E0000
0C0000
0C0000
ENDCHAR
STARTCHAR uni0237
ENCODING 567
SWIDTH 302 0
DWIDTH 11 0
BBX 8 27 0 -8
BITMAP
7F
3F
1F
1F
1F
1F
1F
1F
1F
1F
1F
1F
1F
1F
1F
1F
1F
1F
1F
1F
1F
1F
3E
7E
FC
70
40
ENDCHAR
STARTCHAR uni0238
ENCODING 568
SWIDTH 864 0
DWIDTH 33 0
BBX 29 27 2 0
BITMAP
003F8000
001F8000
000F8000
000F8000
000F8000
000F8000
000F8000
000F8000
07FFBF80
1FFFFFE0
3E3FE3E0
7C1FC1F0
7C0F81F0
780F80F8
F80F80F8
F80F80F8
F80F80F8
F80F80F8
F80F80F8
F80F80F8
F80F80F8
F80F80F0
7C0F81F0
7C1F81F0
3E3FE3E0
3FFDFFC0
0FE07F00
ENDCHAR
STARTCHAR uni0239
ENCODING 569
SWIDTH 864 0
DWIDTH 33 0
BBX 29 27 2 -8
BITMAP
07F39F80
1FFFFFE0
3E3FE3E0
7C1FC1F0
7C0F81F0
780F80F8
F80F80F8
F80F80F8
F80F80F8
F80F80F8
F80F80F8
F80F80F8
F80F80F8
F80F80F0
7C0F81F0
7C1F81F0
3E3FE3E0
3FFFFFC0
0FEFFF00
000F8000
000F8000
000F8000
000F8000
000F8000
000F8000
001FC000
003FE000
ENDCHAR
STARTCHAR uni023A
ENCODING 570
SWIDTH 651 0
DWIDTH 25 0
BBX 24 32 0 -4
BITMAP
000060
0000E0
003FC0
003FC0
003FC0
007F80
007F80
006F80
00EF80
00EFC0
00CFC0
01CFC0
01CFE0
038FE0
039FE0
039BE0
071BF0
073BF0
07FFF0
0FFFF8
0E61F8
0E61F8
1CE0F8
1CC0FC
3DC0FC
3DC0FC
7D81FE
FF83FF
030000
030000
070000
060000
ENDCHAR
STARTCHAR uni023B
ENCODING 571
SWIDTH 573 0
DWIDTH 22 0
BBX 18 31 2 -3
BITMAP
000180
000380
00FF80
03FFC0
0FC7C0
1F07C0
3F0FC0
3E0CC0
7E0C00
7E1C00
7C1800
FC3800
FC3000
FC3000
FC7000
FC6000
FCE000
FCE000
FCC000
FDC000
7D8000
7F8000
7F80C0
3F01C0
3F01C0
1F83C0
0FFFC0
0FFF00
0C0000
1C0000
180000
ENDCHAR
STARTCHAR uni023C
ENCODING 572
SWIDTH 478 0
DWIDTH 18 0
BBX 16 23 2 -2
BITMAP
0003
0007
03FE
0FFE
1E3E
3C3E
7C3E
7870
F8E0
F8E0
F9C0
F980
FB80
FF00
FE00
FE00
7C04
7E1E
3FFC
3FF8
77E0
6000
E000
ENDCHAR
STARTCHAR uni023D
ENCODING 573
SWIDTH 555 0
DWIDTH 21 0
BBX 19 26 1 0
BITMAP
7FE000
3FC000
1F8000
1F8000
1F8000
1F8000
1F8000
1F8000
1F8000
1F8000
1F8000
1F8000
FFFC00
FFFC00
1F8000
1F8000
1F8000
1F8000
1F8000
1F8060
1F80E0
1F80E0
1F80E0
1F81E0
3FFFE0
7FFFE0
ENDCHAR
STARTCHAR uni023E
ENCODING 574
SWIDTH 639 0
DWIDTH 24 0
BBX 22 32 1 -3
BITMAP
000070
000070
000060
FFFFFC
FFFFFC
F0FCFC
E0FDFC
E0FD9C
E0FD9C
00FF00
00FF00
00FF00
00FE00
00FE00
00FE00
00FC00
00FC00
00FC00
00FC00
00FC00
00FC00
00FC00
01FC00
01FC00
01FC00
03FC00
03FC00
07FE00
07FF00
060000
0E0000
0C0000
ENDCHAR
STARTCHAR uni023F
ENCODING 575
SWIDTH 458 0
DWIDTH 17 0
BBX 17 27 2 -8
BITMAP
0FF800
3FFC00
7C3C00
F81C00
F81C00
F80000
FE0000
FF8000
7FE000
3FF000
0FF800
03FC00
00FC00
007C00
C07C00
E07C00
F0F800
FFF000
7FC000
1C0000
0E0000
070000
070000
038380
01C380
00FF80
007F80
ENDCHAR
STARTCHAR uni0240
ENCODING 576
SWIDTH 478 0
DWIDTH 18 0
BBX 18 27 1 -8
BITMAP
FFFF00
FFFF00
F07E00
F07E00
E0FC00
E0F800
01F800
03F000
03F000
07E000
07C000
0FC000
1F8000
1F8000
3F0000
3E0000
7E0000
FC0000
FC0000
1E0000
070000
038000
01C000
01E0C0
00F1C0
007FC0
001FC0
ENDCHAR
STARTCHAR uni0241
ENCODING 577
SWIDTH 513 0
DWIDTH 20 0
BBX 17 26 2 0
BITMAP
1FF800
FFFE00
F87F00
F03F80
E01F80
E01F80
001F80
001F80
001F80
003F00
003F00
007E00
00FC00
03F000
0FC000
0FC000
0FC000
0FC000
0FC000
0FC000
0FC000
0FC000
0FC000
0FC000
1FE000
3FF000
ENDCHAR
STARTCHAR uni0242
ENCODING 578
SWIDTH 432 0
DWIDTH 16 0
BBX 14 19 1 0
BITMAP
1FE0
FFF8
F0F8
E07C
E07C
007C
007C
00F8
00F0
03F0
0FC0
0F80
0F80
0F80
0F80
0F80
0F80
1FC0
3FE0
ENDCHAR
STARTCHAR uni0243
ENCODING 579
SWIDTH 656 0
DWIDTH 25 0
BBX 22 26 1 0
BITMAP
7FFFC0
3FFFF0
1F83F8
1F80FC
1F80FC
1F80FC
1F80FC
1F80FC
1F80F8
1F81F0
1F83E0
1FFF80
1FFFC0
1F83F0
1F81F8
1F80FC
1F80FC
1F80FC
FFF87C
FFF8FC
1F80FC
1F80FC
1F81F8
1F83F8
3FFFE0
7FFF80
ENDCHAR
STARTCHAR uni0244
ENCODING 580
SWIDTH 676 0
DWIDTH 26 0
BBX 25 26 0 0
BITMAP
7FE0FF00
3FC07E00
1F803C00
1F803C00
1F803C00
1F803C00
1F803C00
1F803C00
1F803C00
1F803C00
1F803C00
FFFFFF80
FFFFFF80
1F803C00
1F803C00
1F803C00
1F803C00
1F803C00
1F803C00
1F803C00
1F803C00
0FC03800
0FC07800
07E0F000
03FFE000
007F8000
ENDCHAR
STARTCHAR uni0245
ENCODING 581
SWIDTH 652 0
DWIDTH 25 0
BBX 25 26 0 0
BITMAP
001F0000
003F0000
003F8000
003F8000
007F8000
007FC000
006FC000
00E7C000
00E7C000
01C7E000
01C7E000
01C3E000
0383F000
0383F000
0383F000
0701F800
0701F800
0601F800
0E00F800
0E00FC00
1C00FC00
1C00FC00
1C007E00
3C007E00
7E00FF00
FF01FF80
ENDCHAR
STARTCHAR uni0246
ENCODING 582
SWIDTH 577 0
DWIDTH 22 0
BBX 19 32 2 -3
BITMAP
000380
000380
000300
FFFFE0
7FFFE0
3F07E0
3F0FE0
3F0CE0
3F0CE0
3F1C00
3F1800
3F3800
3F3B00
3F3700
3F7700
3FFF00
3FFF00
3FE700
3FC700
3FC300
3F8000
3F8000
3F80E0
3F00E0
3F00E0
3F01E0
3F03E0
7FFFE0
FFFFE0
1C0000
180000
380000
ENDCHAR
STARTCHAR uni0247
ENCODING 583
SWIDTH 529 0
DWIDTH 20 0
BBX 16 23 2 -2
BITMAP
0006
000E
07FC
1FF8
3E3C
3C3E
787E
78FF
F8DF
FFFF
FFFF
FB00
FE00
FE00
FC00
F800
7C06
7E0E
3FFE
7FF8
67E0
E000
C000
ENDCHAR
STARTCHAR uni0248
ENCODING 584
SWIDTH 340 0
DWIDTH 13 0
BBX 12 33 1 -7
BITMAP
7FE0
3FC0
1F80
1F80
1F80
1F80
1F80
1F80
1F80
1F80
1F80
FFF0
FFF0
1F80
1F80
1F80
1F80
1F80
1F80
1F80
1F80
1F80
1F80
1F80
1F80
1F80
1F80
1F00
1F00
3E00
7C00
F800
4000
ENDCHAR
STARTCHAR uni0249
ENCODING 585
SWIDTH 331 0
DWIDTH 13 0
BBX 13 34 0 -8
BITMAP
0F80
0F80
0F80
0F80
0F80
0000
0000
3F80
1F80
0F80
0F80
0F80
0F80
0F80
0F80
FFF8
FFF8
0F80
0F80
0F80
0F80
0F80
0F80
0F80
0F80
0F80
0F80
0F80
0F00
1F00
3F00
7E00
3800
2000
ENDCHAR
STARTCHAR uni024A
ENCODING 586
SWIDTH 701 0
DWIDTH 27 0
BBX 28 34 2 -8
BITMAP
00FE1800
07FFF800
0F87F800
1F03F800
3E01F800
3E01F800
7E01F800
7C01F800
7C01F800
FC01F800
FC01F800
FC01F800
FC01F800
FC01F800
FC01F800
FC01F800
FC01F800
FC01F800
FC01F800
7E01F800
7E01F800
7F03F800
3F87F800
1FFFF800
0FFDF800
07E1F800
0001F800
0001F800
0001F800
0000F870
0000F870
0000FCF0
00007FF0
00001FE0
ENDCHAR
STARTCHAR uni024B
ENCODING 587
SWIDTH 591 0
DWIDTH 22 0
BBX 23 27 2 -8
BITMAP
07F380
1FFF80
3E1F80
7C1F80
7C0F80
780F80
F80F80
F80F80
F80F80
F80F80
F80F80
F80F80
F80F80
FC0F80
7C1F80
7E3F80
7FFF80
3FEF80
0F8F80
000F80
000F80
000F80
000F80
000F8E
0007CE
0003FE
0001FE
ENDCHAR
STARTCHAR uni024C
ENCODING 588
SWIDTH 666 0
DWIDTH 25 0
BBX 24 26 1 0
BITMAP
7FFF00
3FFFC0
1F87F0
1F83F0
1F81F8
1F81F8
1F81F8
1F81F8
1F81F8
1F81F8
1F81F0
1F83E0
1F87C0
FFFF80
FFFF00
1F1F80
1F0FC0
1F07E0
1F07E0
1F03F0
1F03F0
1F03F8
1F81F8
1F81FC
3F80FE
7FC0FF
ENDCHAR
STARTCHAR uni024D
ENCODING 589
SWIDTH 476 0
DWIDTH 18 0
BBX 17 19 0 0
BITMAP
3F8F80
1F9F80
0FFF80
0FC780
0FC380
0F8000
0F8000
0F8000
FFF800
FFF800
0F8000
0F8000
0F8000
0F8000
0F8000
0F8000
0F8000
1FC000
3FE000
ENDCHAR
STARTCHAR uni024E
ENCODING 590
SWIDTH 604 0
DWIDTH 23 0
BBX 23 26 0 0
BITMAP
FFC0FE
7F807C
3F0078
3F8070
1F8070
1F80E0
FFFFFC
FFFFFC
07E1C0
07F380
03F380
03F700
01FF00
01FE00
01FE00
00FC00
00FC00
00FC00
00FC00
00FC00
00FC00
00FC00
00FC00
00FC00
01FE00
03FF00
ENDCHAR
STARTCHAR uni024F
ENCODING 591
SWIDTH 530 0
DWIDTH 20 0
BBX 20 27 0 -8
BITMAP
FFC7F0
7F03E0
3F01E0
3F01C0
1F01C0
1F8380
1F8380
0F8300
7FFFF0
7FFFF0
07CE00
07CE00
03FC00
03FC00
03F800
01F800
01F000
01F000
00E000
00E000
00E000
01C000
61C000
638000
7F0000
7E0000
7C0000
ENDCHAR
STARTCHAR uni0250
ENCODING 592
SWIDTH 536 0
DWIDTH 20 0
BBX 18 19 1 0
BITMAP
FE3E00
7EFF80
3FFFC0
3F8FC0
3F07C0
3E07C0
3E07C0
3E0F80
3E1F00
3FFC00
3FE000
3E0000
3E0000
3E0780
3E0780
3E0F80
1F0F80
1FFE00
07F000
ENDCHAR
STARTCHAR uni0251
ENCODING 593
SWIDTH 596 0
DWIDTH 23 0
BBX 19 19 2 0
BITMAP
07F380
1FFF80
3E1F80
7C1F80
7C0F80
780F80
F80F80
F80F80
F80F80
F80F80
F80F80
F80F80
F80F80
FC0F80
7C1F80
7E3F80
7FFF80
3FEFC0
0F8FE0
ENDCHAR
STARTCHAR uni0252
ENCODING 594
SWIDTH 596 0
DWIDTH 23 0
BBX 19 19 1 0
BITMAP
FE3E00
7EFF80
3FFFC0
3F8FC0
3F07C0
3E07E0
3E03E0
3E03E0
3E03E0
3E03E0
3E03E0
3E03E0
3E03E0
3E03C0
3E07C0
3F07C0
3F0F80
3FFF00
39FC00
ENDCHAR
STARTCHAR uni0253
ENCODING 595
SWIDTH 589 0
DWIDTH 22 0
BBX 17 27 3 0
BITMAP
07E000
1FE000
3FE000
7CE000
78E000
F80000
F80000
F80000
F8F800
FBFE00
FFFF00
FE3F00
FC1F00
F81F80
F80F80
F80F80
F80F80
F80F80
F80F80
F80F80
F80F80
F80F00
F81F00
FC1F00
FC3E00
FFFC00
E7F000
ENDCHAR
STARTCHAR uni0254
ENCODING 596
SWIDTH 472 0
DWIDTH 18 0
BBX 15 19 1 0
BITMAP
1FE0
7FF0
78F8
707C
707C
003E
003E
003E
003E
003E
003E
003E
003E
003C
F07C
F078
F8F8
FFF0
3FC0
ENDCHAR
STARTCHAR uni0255
ENCODING 597
SWIDTH 485 0
DWIDTH 18 0
BBX 16 23 2 -4
BITMAP
07F8
1FFE
3E3E
3C3E
7C1E
7800
F800
F800
F800
F800
F800
F83E
FCFF
FDC7
7F87
7F0F
3FFE
1FFC
0FF0
1C00
1800
1800
0800
ENDCHAR
STARTCHAR uni0256
ENCODING 598
SWIDTH 597 0
DWIDTH 23 0
BBX 23 35 2 -8
BITMAP
003F80
001F80
000F80
000F80
000F80
000F80
000F80
000F80
07FF80
1FFF80
3E1F80
7C1F80
7C0F80
780F80
F80F80
F80F80
F80F80
F80F80
F80F80
F80F80
F80F80
FC0F80
7C1F80
7E3F80
7FFF80
3FEF80
0F8F80
000F80
000F80
000F80
000F80
00078E
0007CE
0003FE
0001FC
ENDCHAR
STARTCHAR uni0257
ENCODING 599
SWIDTH 603 0
DWIDTH 23 0
BBX 23 27 2 0
BITMAP
00007E
0001FE
0003FE
0007CE
00078E
000F80
000F80
000F80
07FF80
1FFF80
3E1F80
7C1F80
7C0F80
780F80
F80F80
F80F80
F80F80
F80F80
F80F80
F80F80
F80F80
FC0F80
7C1F80
7E3F80
7FFF80
3FEFC0
0F8FE0
ENDCHAR
STARTCHAR uni0258
ENCODING 600
SWIDTH 533 0
DWIDTH 20 0
BBX 17 19 1 0
BITMAP
07F000
1FFC00
3F3E00
3E1F00
7E0F00
7C0F00
FC0F80
FC0F80
FFFF80
FFFF80
000F80
000F80
000F80
001F00
601F00
F07E00
7FFE00
1FFC00
07F000
ENDCHAR
STARTCHAR uni0259
ENCODING 601
SWIDTH 537 0
DWIDTH 20 0
BBX 16 19 2 0
BITMAP
0FE0
7FF8
787C
703E
703E
001F
001F
001F
001F
FFFF
FFFF
F81F
F81F
F81E
783E
7C3C
3E7C
1FF0
07E0
ENDCHAR
STARTCHAR uni025A
ENCODING 602
SWIDTH 773 0
DWIDTH 29 0
BBX 28 19 2 0
BITMAP
0FE00000
7FF80000
787C0000
703E0C00
603F3C00
001F7800
001FF820
001F1830
007F1C60
03FF0FC0
0F1F0780
7C1F0000
F81F0000
F81E0000
F83E0000
7C3C0000
7C7C0000
3FF80000
0FE00000
ENDCHAR
STARTCHAR uni025B
ENCODING 603
SWIDTH 485 0
DWIDTH 18 0
BBX 15 19 1 0
BITMAP
0FF0
3FFC
7FFC
FC3C
F81C
F81C
F800
7C00
3FE0
1FE0
7FE0
7C00
F800
F80E
F81E
FC3E
7FFE
7FFE
1FF0
ENDCHAR
STARTCHAR uni025C
ENCODING 604
SWIDTH 479 0
DWIDTH 18 0
BBX 15 19 1 0
BITMAP
1FF0
FFFC
F87C
F03E
E03E
003E
003E
007C
1FF8
1FE0
1FF8
007C
003E
003E
E03E
F03E
F87C
FFF8
3FE0
ENDCHAR
STARTCHAR uni025D
ENCODING 605
SWIDTH 727 0
DWIDTH 28 0
BBX 28 19 1 0
BITMAP
0FF00000
7FFC0000
7FFE0000
7C7E1C00
783E7C00
703FF800
003FD830
007F1820
0FFC1C60
0FF00FC0
007C0780
003C0000
003E0000
F03E0000
F03E0000
F87E0000
FFFC0000
FFF80000
1FE00000
ENDCHAR
STARTCHAR uni025E
ENCODING 606
SWIDTH 561 0
DWIDTH 21 0
BBX 18 19 2 0
BITMAP
03FC00
0FFF00
3E1F00
3C1F80
7C0F80
780F80
F81F80
F81F00
F9FC00
F9FE00
F81F00
F80F80
F80F80
F80FC0
7C0F80
7C0F80
3E1F80
1FFE00
07F800
ENDCHAR
STARTCHAR uni025F
ENCODING 607
SWIDTH 331 0
DWIDTH 13 0
BBX 13 27 0 -8
BITMAP
3F80
1F80
0F80
0F80
0F80
0F80
0F80
0F80
FFF8
FFF8
0F80
0F80
0F80
0F80
0F80
0F80
0F80
0F80
0F80
0F80
0F80
0F00
1F00
3F00
7E00
3800
2000
ENDCHAR
STARTCHAR uni0260
ENCODING 608
SWIDTH 588 0
DWIDTH 22 0
BBX 23 35 2 -8
BITMAP
00007E
0001FE
0003FE
0007CE
00078E
000F80
000F80
000F80
07FF80
1FFF80
3E1F80
7C1F80
7C0F80
780F80
F80F80
F80F80
F80F80
F80F80
F80F80
F80F80
F80F80
FC0F80
7C1F80
7E3F80
7FFF80
3FEF80
0F8F80
000F80
000F80
700F80
781F80
7C3F00
7FFE00
7FFC00
1FF000
ENDCHAR
STARTCHAR uni0261
ENCODING 609
SWIDTH 591 0
DWIDTH 22 0
BBX 17 27 2 -8
BITMAP
07F380
1FFF80
3E1F80
7C1F80
7C0F80
780F80
F80F80
F80F80
F80F80
F80F80
F80F80
F80F80
F80F80
FC0F80
7C1F80
7E3F80
7FFF80
3FCF80
0F8F80
000F80
000F80
700F80
781F80
7C3F00
7FFE00
7FFC00
1FF000
ENDCHAR
STARTCHAR uni0262
ENCODING 610
SWIDTH 543 0
DWIDTH 21 0
BBX 18 19 2 0
BITMAP
03FE00
0FFF00
1F0F00
3C0700
7C0700
780000
F80000
F80000
F80000
F80000
F87FC0
F83F80
F81F00
F81F00
7C1F00
7C1F00
3E3F00
1FFF00
07F700
ENDCHAR
STARTCHAR uni0263
ENCODING 611
SWIDTH 530 0
DWIDTH 20 0
BBX 19 27 1 -8
BITMAP
FF8FE0
7F07E0
7E03C0
3E0380
3F0380
1F0700
1F0700
1F8E00
0F8E00
0F8C00
0FDC00
07D800
07F800
03F000
03F000
03F000
01F000
01F800
03F800
037800
037C00
073C00
063C00
063C00
073C00
03F800
01E000
ENDCHAR
STARTCHAR uni0264
ENCODING 612
SWIDTH 587 0
DWIDTH 22 0
BBX 22 19 1 0
BITMAP
FC007C
FF01FC
FF87FC
FFEF1C
C7FE1C
03F800
00F800
00FC00
01FC00
01BE00
033E00
031F00
061F00
061F00
061F00
073F00
07FE00
03FC00
01F000
ENDCHAR
STARTCHAR uni0265
ENCODING 613
SWIDTH 591 0
DWIDTH 22 0
BBX 20 27 1 -8
BITMAP
FE1FC0
7E0FC0
3E07C0
3E07C0
3E07C0
3E07C0
3E07C0
3E07C0
3E07C0
3E07C0
3E07C0
3E07C0
3E07C0
3E07C0
3E0FC0
3F1FC0
1FFFC0
1FE7C0
0787C0
0007C0
0007C0
0007C0
0007C0
0007C0
0007C0
0007E0
0007F0
ENDCHAR
STARTCHAR uni0266
ENCODING 614
SWIDTH 595 0
DWIDTH 23 0
BBX 20 27 1 0
BITMAP
01F800
07F800
0FF800
1F3800
1E3800
3E0000
3E0000
3E0000
3E1E00
3E7F80
3EFF80
3FDFC0
3F0FC0
3E07C0
3E07C0
3E07C0
3E07C0
3E07C0
3E07C0
3E07C0
3E07C0
3E07C0
3E07C0
3E07C0
3E07C0
7F0FE0
FF9FF0
ENDCHAR
STARTCHAR uni0267
ENCODING 615
SWIDTH 591 0
DWIDTH 22 0
BBX 18 35 1 -8
BITMAP
01F800
07F800
0FF800
1F3800
1E3800
3E0000
3E0000
3E0000
3E3E00
3E7F80
3EFF80
3FDFC0
3F0FC0
3E07C0
3E07C0
3E07C0
3E07C0
3E07C0
3E07C0
3E07C0
3E07C0
3E07C0
3E07C0
3E07C0
3E07C0
7F07C0
FF87C0
0007C0
0007C0
0007C0
0007C0
01C780
01CF80
01FF00
01FC00
ENDCHAR
STARTCHAR uni0268
ENCODING 616
SWIDTH 343 0
DWIDTH 13 0
BBX 13 27 0 0
BITMAP
0F80
0F80
0F80
0F80
0F80
0000
0000
0000
3F80
1F80
0F80
0F80
0F80
0F80
0F80
0F80
FFF8
FFF8
FFF8
0F80
0F80
0F80
0F80
0F80
0F80
1FC0
3FE0
ENDCHAR
STARTCHAR uni0269
ENCODING 617
SWIDTH 327 0
DWIDTH 12 0
BBX 12 19 1 0
BITMAP
FE00
7E00
3E00
3E00
3E00
3E00
3E00
3E00
3E00
3E00
3E00
3E00
3E00
3E00
3E00
3E00
1F00
1FF0
0FC0
ENDCHAR
STARTCHAR uni026A
ENCODING 618
SWIDTH 317 0
DWIDTH 12 0
BBX 9 19 1 0
BITMAP
FF80
7F00
3E00
3E00
3E00
3E00
3E00
3E00
3E00
3E00
3E00
3E00
3E00
3E00
3E00
3E00
3E00
7F00
FF80
ENDCHAR
STARTCHAR uni026B
ENCODING 619
SWIDTH 414 0
DWIDTH 16 0
BBX 15 27 0 0
BITMAP
1FC0
0FC0
07C0
07C0
07C0
07C0
07C0
07C0
07C0
07C0
07C0
3FC6
7FC6
FFFC
C7FC
C7F8
07C0
07C0
07C0
07C0
07C0
07C0
07C0
07C0
07C0
0FE0
1FF0
ENDCHAR
STARTCHAR uni026C
ENCODING 620
SWIDTH 376 0
DWIDTH 14 0
BBX 15 27 0 0
BITMAP
1F80
0F80
0F80
0F80
0F80
0F80
0F80
0F80
3FC0
7FC0
EFC0
CFC0
CFC0
CFCE
CFDE
EFF8
7FF0
3FC0
0FC0
0FC0
0F80
0F80
0F80
0F80
0F80
1FC0
3FE0
ENDCHAR
STARTCHAR uni026D
ENCODING 621
SWIDTH 299 0
DWIDTH 11 0
BBX 13 35 1 -8
BITMAP
FE00
7E00
3E00
3E00
3E00
3E00
3E00
3E00
3E00
3E00
3E00
3E00
3E00
3E00
3E00
3E00
3E00
3E00
3E00
3E00
3E00
3E00
3E00
3E00
3E00
3E00
3E00
3E00
3E00
3E00
3E00
3E38
1F38
0FF8
07F8
ENDCHAR
STARTCHAR uni026E
ENCODING 622
SWIDTH 643 0
DWIDTH 24 0
BBX 24 35 0 -8
BITMAP
7E0000
3E0000
3E0000
3E0000
3E0000
3E0000
3E0000
3E0000
3FFFFE
3FFFFE
3E007C
3E00FC
3E01F8
3E01F8
3E03F0
3E03E0
3E07E0
3E0FC0
3E0F80
3E1F80
3E1FE0
3E0FF8
3E00FC
3E007E
3E003F
7F003F
FF803F
00003F
00003F
00003F
01C07E
01C07E
01E0FC
01FFF0
00FFC0
ENDCHAR
STARTCHAR uni026F
ENCODING 623
SWIDTH 884 0
DWIDTH 34 0
BBX 31 19 1 0
BITMAP
FE1FC3F8
7E0FC1F8
3E07C0F8
3E07C0F8
3E07C0F8
3E07C0F8
3E07C0F8
3E07C0F8
3E07C0F8
3E07C0F8
3E07C0F8
3E07C0F8
3E07C0F8
3E07C0F8
3E0FC1F8
3F1FE3F8
1FFBFEF8
1FE3FCFC
07C0F0FE
ENDCHAR
STARTCHAR uni0270
ENCODING 624
SWIDTH 877 0
DWIDTH 33 0
BBX 31 27 1 -8
BITMAP
FE1FC3F8
7E0FC1F8
3E07C0F8
3E07C0F8
3E07C0F8
3E07C0F8
3E07C0F8
3E07C0F8
3E07C0F8
3E07C0F8
3E07C0F8
3E07C0F8
3E07C0F8
3E07C0F8
3E0FC1F8
3F1FE3F8
1FFBFEF8
1FE3FCF8
07C0F8F8
000000F8
000000F8
000000F8
000000F8
000000F8
000000F8
000000FC
000000FE
ENDCHAR
STARTCHAR uni0271
ENCODING 625
SWIDTH 886 0
DWIDTH 34 0
BBX 30 27 1 -8
BITMAP
FE1F03E0
7E7FC7F8
3FFFDFF8
3F87F8FC
3F03F07C
3E03E07C
3E03E07C
3E03E07C
3E03E07C
3E03E07C
3E03E07C
3E03E07C
3E03E07C
3E03E07C
3E03E07C
3E03E07C
3E03E07C
7F07F07C
FF8FF87C
0000007C
0000007C
0000007C
0000007C
00001C78
00001CF8
00001FF0
00001FC0
ENDCHAR
STARTCHAR uni0272
ENCODING 626
SWIDTH 603 0
DWIDTH 23 0
BBX 24 27 -3 -8
BITMAP
0FE3E0
07E7F8
03FFF8
03F8FC
03F07C
03E07C
03E07C
03E07C
03E07C
03E07C
03E07C
03E07C
03E07C
03E07C
03E07C
03E07C
03E07C
03E0FE
03E1FF
03E000
03E000
03E000
03E000
E3C000
E7C000
FF8000
FE0000
ENDCHAR
STARTCHAR uni0273
ENCODING 627
SWIDTH 602 0
DWIDTH 23 0
BBX 25 27 1 -8
BITMAP
FE3F0000
7E7FC000
3FFFC000
3F87E000
3F03E000
3E03E000
3E03E000
3E03E000
3E03E000
3E03E000
3E03E000
3E03E000
3E03E000
3E03E000
3E03E000
3E03E000
3E03E000
7F03E000
FF83E000
0003E000
0003E000
0003E000
0003E000
0003E380
0001F380
0000FF80
00007F80
ENDCHAR
STARTCHAR uni0274
ENCODING 628
SWIDTH 573 0
DWIDTH 22 0
BBX 20 19 1 0
BITMAP
FF07F0
7F03E0
3F81C0
3F81C0
3FC1C0
3FE1C0
3FE1C0
3BF1C0
39F9C0
39F9C0
38FDC0
387DC0
387FC0
383FC0
381FC0
381FC0
380FC0
7C0FC0
FE07C0
ENDCHAR
STARTCHAR uni0275
ENCODING 629
SWIDTH 569 0
DWIDTH 22 0
BBX 17 19 2 0
BITMAP
07F000
1FFC00
3E3E00
3C1F00
781F00
780F80
F80F80
F80F80
FFFF80
FFFF80
FFFF80
F80F80
F80F80
F80F00
7C0F00
7C1E00
3E3E00
1FFC00
07F000
ENDCHAR
STARTCHAR uni0276
ENCODING 630
SWIDTH 786 0
DWIDTH 30 0
BBX 27 19 2 0
BITMAP
03F3FFC0
0FFFFFC0
3E1FC1C0
3C0FC1C0
7C0FC0C0
7807C000
F807C600
F807C600
F807FE00
F807FE00
F807C600
F807C600
F807C000
7807C000
7C0FC0E0
7C0FC0E0
3E1FC1E0
1FFFFFE0
03F3FFE0
ENDCHAR
STARTCHAR uni0277
ENCODING 631
SWIDTH 799 0
DWIDTH 30 0
BBX 27 19 2 0
BITMAP
007FC000
03FFF800
07E0FE00
1F803F00
3F001F80
3E000F80
7E000FC0
7C3E07C0
FC3E07E0
FC3E07E0
FC3E07E0
FC3E07E0
FC3E07E0
FC3E07E0
7C3E07C0
7E3F0FC0
3E771F80
1FE3FF00
0FC0FC00
ENDCHAR
STARTCHAR uni0278
ENCODING 632
SWIDTH 766 0
DWIDTH 29 0
BBX 25 35 2 -8
BITMAP
00FE0000
007E0000
003E0000
003E0000
003E0000
003E0000
003E0000
003E0000
01FFC000
07FFF800
1FFFFC00
3F3E7E00
7E3E3F00
7C3E1F00
FC3E1F80
F83E0F80
F83E0F80
F83E0F80
F83E0F80
F83E0F80
F83E1F00
7C3E1F00
7E3E3F00
3F3E7E00
1FFFFC00
0FFFF800
01FFC000
003E0000
003E0000
003E0000
003E0000
003E0000
003E0000
007F0000
00FF8000
ENDCHAR
STARTCHAR uni0279
ENCODING 633
SWIDTH 455 0
DWIDTH 17 0
BBX 15 19 1 0
BITMAP
03F8
01F8
00F8
00F8
00F8
00F8
00F8
00F8
00F8
00F8
00F8
00F8
00F8
00F8
E1F8
F1F8
FFF8
FEFC
F8FE
ENDCHAR
STARTCHAR uni027A
ENCODING 634
SWIDTH 455 0
DWIDTH 17 0
BBX 15 27 1 0
BITMAP
03F8
01F8
00F8
00F8
00F8
00F8
00F8
00F8
00F8
00F8
00F8
00F8
00F8
00F8
00F8
00F8
00F8
00F8
00F8
00F8
00F8
00F8
E1F8
F1F8
FFF8
FEFC
F8FE
ENDCHAR
STARTCHAR uni027B
ENCODING 635
SWIDTH 451 0
DWIDTH 17 0
BBX 19 27 1 -8
BITMAP
03F800
01F800
00F800
00F800
00F800
00F800
00F800
00F800
00F800
00F800
00F800
00F800
00F800
00F800
E1F800
F1F800
FEF800
FCF800
F8F800
00F800
00F800
00F800
00F800
00F8E0
007CE0
003FE0
001FE0
ENDCHAR
STARTCHAR uni027C
ENCODING 636
SWIDTH 455 0
DWIDTH 17 0
BBX 15 27 1 -8
BITMAP
FE3E
7E7E
3FFE
3F1E
3F0E
3E00
3E00
3E00
3E00
3E00
3E00
3E00
3E00
3E00
3E00
3E00
3E00
3E00
3E00
3E00
3E00
3E00
3E00
3E00
3E00
7F00
FF80
ENDCHAR
STARTCHAR uni027D
ENCODING 637
SWIDTH 461 0
DWIDTH 18 0
BBX 15 27 2 -8
BITMAP
FE3E
7E7E
3FFE
3F1E
3E0E
3E00
3E00
3E00
3E00
3E00
3E00
3E00
3E00
3E00
3E00
3E00
3E00
3E00
3E00
3E00
3E00
3E00
3E00
3E38
1F38
0FF8
07F0
ENDCHAR
STARTCHAR uni027E
ENCODING 638
SWIDTH 414 0
DWIDTH 16 0
BBX 14 19 1 0
BITMAP
01FC
07FC
0F3C
1E3C
1E1C
3E00
3E00
3E00
3E00
3E00
3E00
3E00
3E00
3E00
3E00
3E00
3E00
7F00
FF80
ENDCHAR
STARTCHAR uni027F
ENCODING 639
SWIDTH 416 0
DWIDTH 16 0
BBX 14 19 1 0
BITMAP
3F80
FFE0
F3E0
E1F0
E1F0
01F0
01F0
01F0
01F0
01F0
01F0
01F0
01F0
01F0
01F0
01F0
01F0
03F8
07FC
ENDCHAR
STARTCHAR uni0280
ENCODING 640
SWIDTH 575 0
DWIDTH 22 0
BBX 21 19 1 0
BITMAP
FFFC00
7FFF00
3E1F80
3E0FC0
3E07C0
3E07C0
3E07C0
3E07C0
3E0F80
3E1F00
3FFE00
3FFE00
3E3F00
3E1F80
3E1FC0
3E0FC0
3E07E0
7F07F0
FF83F8
ENDCHAR
STARTCHAR uni0281
ENCODING 641
SWIDTH 575 0
DWIDTH 22 0
BBX 20 19 1 0
BITMAP
FF83F0
7F07E0
3E0FC0
3E0FC0
3E1F80
3E3F00
3E3F00
3FFC00
3FFC00
3E1F00
3E0F80
3E07C0
3E07C0
3E07C0
3E07C0
3E0FC0
3E1F80
7FFF00
FFFC00
ENDCHAR
STARTCHAR uni0282
ENCODING 642
SWIDTH 458 0
DWIDTH 17 0
BBX 15 27 1 -8
BITMAP
07FC
1FFE
3E1E
7C0E
7C0E
7C00
7F00
7FC0
3FF0
1FF8
07FC
01FE
007E
003E
E03E
E03E
F87C
FFF8
FFE0
C000
C000
C000
C000
CC00
EC00
7C00
3C00
ENDCHAR
STARTCHAR uni0283
ENCODING 643
SWIDTH 311 0
DWIDTH 12 0
BBX 17 35 -3 -8
BITMAP
001F80
007F80
00FF80
01F380
01E380
03E000
03E000
03E000
03E000
03E000
03E000
03E000
03E000
03E000
03E000
03E000
03E000
03E000
03E000
03E000
03E000
03E000
03E000
03E000
03E000
03E000
03E000
03E000
03E000
03E000
03E000
E3C000
E7C000
FF8000
FE0000
ENDCHAR
STARTCHAR uni0284
ENCODING 644
SWIDTH 331 0
DWIDTH 13 0
BBX 17 35 -2 -8
BITMAP
001F80
007F80
00FF80
01F380
01E380
03E000
03E000
03E000
03E000
03E000
03E000
03E000
03E000
03E000
03E000
03E000
3FFE00
3FFE00
3FFE00
03E000
03E000
03E000
03E000
03E000
03E000
03E000
03E000
03E000
03E000
03E000
03E000
E3C000
E7C000
FF8000
FE0000
ENDCHAR
STARTCHAR uni0285
ENCODING 645
SWIDTH 412 0
DWIDTH 16 0
BBX 18 27 1 -8
BITMAP
3F8000
FFE000
F3E000
E1F000
E1F000
01F000
01F000
01F000
01F000
01F000
01F000
01F000
01F000
01F000
01F000
01F000
01F000
01F000
01F000
01F000
01F000
01F000
01F000
01F1C0
00F9C0
007FC0
003FC0
ENDCHAR
STARTCHAR uni0286
ENCODING 646
SWIDTH 324 0
DWIDTH 12 0
BBX 17 35 -3 -8
BITMAP
001F80
007F80
00FF80
01F380
01E380
03E000
03E000
03E000
03E000
03E000
03E000
03E000
03E000
03E000
03E000
03E000
03E000
03E000
03E000
03E000
03E000
03E000
03E000
03E000
03E000
03E000
1FE000
7FE000
7FF000
E3FC00
C3DE00
C3C400
FF8000
7F0000
3E0000
ENDCHAR
STARTCHAR uni0287
ENCODING 647
SWIDTH 365 0
DWIDTH 14 0
BBX 13 24 0 -5
BITMAP
1F00
7FC0
FFC0
47E0
03E0
03E0
03E0
03E0
03E0
03E0
03E0
03E0
03E0
03E0
03E0
03E0
03E0
7FF8
7FF0
03E0
03E0
03E0
03E0
03E0
ENDCHAR
STARTCHAR uni0288
ENCODING 648
SWIDTH 365 0
DWIDTH 14 0
BBX 13 32 1 -8
BITMAP
1E00
1E00
1E00
3E00
3E00
7FF0
FFF0
3E00
3E00
3E00
3E00
3E00
3E00
3E00
3E00
3E00
3E00
3E00
3E00
3E00
3E00
3E00
3E00
3E00
3E00
3E00
3E00
3E00
3E38
1F38
0FF8
07F0
ENDCHAR
STARTCHAR uni0289
ENCODING 649
SWIDTH 626 0
DWIDTH 24 0
BBX 24 19 0 0
BITMAP
3F87F0
1F83F0
0F81F0
0F81F0
0F81F0
0F81F0
0F81F0
0F81F0
FFFFFF
FFFFFF
FFFFFF
0F81F0
0F81F0
0F81F0
0F83F0
0FC7F0
0FFFF0
07F9F8
03F1FC
ENDCHAR
STARTCHAR uni028A
ENCODING 650
SWIDTH 573 0
DWIDTH 22 0
BBX 18 19 2 0
BITMAP
7E1F80
1E1E00
0C0C00
1C0E00
3C0F00
780F80
780780
7807C0
F807C0
F807C0
F807C0
F807C0
F807C0
F807C0
7C0F80
7C0F00
3E1F00
1FFC00
07F000
ENDCHAR
STARTCHAR uni028B
ENCODING 651
SWIDTH 577 0
DWIDTH 22 0
BBX 19 19 1 0
BITMAP
FE0F80
7E0FC0
3E07C0
3E07C0
3E07E0
3E03E0
3E03E0
3E03E0
3E03E0
3E03E0
3E03E0
3E03E0
3E03C0
3E07C0
3F07C0
1F8F80
1FFF00
0FFE00
03F800
ENDCHAR
STARTCHAR uni028C
ENCODING 652
SWIDTH 530 0
DWIDTH 20 0
BBX 20 19 0 0
BITMAP
007800
00F800
00F800
01FC00
01FC00
01FC00
03FE00
033E00
073E00
063F00
0E1F00
0E1F00
0C1F80
1C0F80
1C0F80
380FC0
380FC0
7C0FE0
FE1FF0
ENDCHAR
STARTCHAR uni028D
ENCODING 653
SWIDTH 798 0
DWIDTH 30 0
BBX 30 19 0 0
BITMAP
00F01E00
01F01F00
01F03F00
01F83F00
03F83F00
03F87F80
037C7F80
077C6F80
077CEFC0
0E7CE7C0
0E3EC7C0
0C3FC7E0
1C3FC3E0
1C3F83E0
181F83F0
381F83F0
381F03F0
7C0F03F8
FE0F07FC
ENDCHAR
STARTCHAR uni028E
ENCODING 654
SWIDTH 530 0
DWIDTH 20 0
BBX 20 27 -1 0
BITMAP
0003C0
000FC0
000FC0
001CC0
001800
003000
003000
007000
007000
00F800
00F800
00F800
01FC00
01FC00
03BC00
03BE00
033E00
073E00
061F00
0E1F00
0E1F00
0C1F80
1C0F80
1C0F80
3C0FC0
7E0FE0
FE3FF0
ENDCHAR
STARTCHAR uni028F
ENCODING 655
SWIDTH 517 0
DWIDTH 20 0
BBX 19 19 0 0
BITMAP
FF87E0
7F03C0
3F03C0
1F0380
1F8700
0F8700
0FCE00
07CE00
07FC00
03F800
03F800
01F000
01F000
01F000
01F000
01F000
01F000
03F800
07FC00
ENDCHAR
STARTCHAR uni0290
ENCODING 656
SWIDTH 479 0
DWIDTH 18 0
BBX 19 27 1 -8
BITMAP
FFFE00
FFFE00
F07C00
E0FC00
E0F800
C1F800
03F000
03E000
07E000
07C000
0FC000
1F8000
1F8000
3F0600
3E0600
7E0E00
FC1E00
FFFE00
FFFE00
000600
000600
000600
000600
000660
000760
0003E0
0001E0
ENDCHAR
STARTCHAR uni0291
ENCODING 657
SWIDTH 551 0
DWIDTH 21 0
BBX 19 23 2 -4
BITMAP
FFFE00
FFFE00
F07E00
E0FC00
E0FC00
C1F800
03F000
03F000
07E000
07E000
0FC780
1F8FC0
1F98E0
3F30E0
3F60E0
7E61E0
FCC3C0
FFFF80
FFFE00
018000
038000
030000
010000
ENDCHAR
STARTCHAR uni0292
ENCODING 658
SWIDTH 482 0
DWIDTH 18 0
BBX 16 27 1 -8
BITMAP
FFFE
FFFE
F07E
E07C
E0FC
E1F8
01F0
03F0
03E0
07E0
0FC0
0FC0
0FF0
07FC
00FE
003E
003F
001F
001F
001F
001F
001F
E03E
E03E
F07C
FFF8
7FE0
ENDCHAR
STARTCHAR uni0293
ENCODING 659
SWIDTH 482 0
DWIDTH 18 0
BBX 17 27 1 -8
BITMAP
FFFF00
FFFE00
F07E00
E0FC00
E0FC00
C1F800
01F000
03F000
07E000
07E000
0FC000
0F8000
1FF000
0FFC00
00FE00
003E00
003F00
001F00
1F1F00
7FDF00
FFFF00
E0FF00
C03E00
C03F00
707F00
7FF180
1FC100
ENDCHAR
STARTCHAR uni0294
ENCODING 660
SWIDTH 415 0
DWIDTH 16 0
BBX 16 27 0 0
BITMAP
0FF0
7FFC
F87E
F07F
F03F
F03F
003F
003F
003E
007E
00FC
01F8
03F0
07C0
07C0
07C0
07C0
07C0
07C0
07C0
07C0
07C0
07C0
07C0
07C0
0FE0
1FF0
ENDCHAR
STARTCHAR uni0295
ENCODING 661
SWIDTH 407 0
DWIDTH 15 0
BBX 16 27 0 0
BITMAP
07FC
1FFF
3F1F
7E0F
FC0F
FC00
FC00
FC00
FC00
7E00
3E00
3F00
0FC0
07E0
03E0
03E0
03E0
03E0
03E0
03E0
03E0
03E0
03E0
03E0
03E0
07F0
0FF8
ENDCHAR
STARTCHAR uni0296
ENCODING 662
SWIDTH 426 0
DWIDTH 16 0
BBX 16 27 0 0
BITMAP
1FC0
0FC0
07C0
07C0
07C0
07C0
07C0
07C0
07C0
07C0
07C0
07C0
07C0
07C0
03F0
01F8
00FC
007E
003F
003F
003F
003F
F03F
F07E
F8FC
FFF8
3FC0
ENDCHAR
STARTCHAR uni0297
ENCODING 663
SWIDTH 480 0
DWIDTH 18 0
BBX 15 27 2 -8
BITMAP
03FC
0FFE
1E3E
3C1E
3C1E
7C00
7800
7800
F800
F800
F800
F800
F800
F800
F800
F800
F800
F800
F800
F800
7C00
7C00
7C04
3E0E
3FFC
1FF8
07E0
ENDCHAR
STARTCHAR uni0298
ENCODING 664
SWIDTH 768 0
DWIDTH 29 0
BBX 27 27 1 0
BITMAP
003F8000
01FFF000
07FFFC00
0FFFFE00
1FE0FF00
3F803F80
3F001F80
7E000FC0
7C0007C0
7C0007C0
F80003E0
F81F03E0
F81F03E0
F81F03E0
F81F03E0
F80003E0
F80003E0
7C0007C0
7C0007C0
7E000FC0
3F001F80
3F803F80
1FE0FF00
0FFFFE00
07FFFC00
01FFF000
003F8000
ENDCHAR
STARTCHAR uni0299
ENCODING 665
SWIDTH 556 0
DWIDTH 21 0
BBX 18 19 1 0
BITMAP
FFFE00
7FFF80
3E0FC0
3E07C0
3E07C0
3E07C0
3E0780
3E0F00
3FFC00
3FFE00
3E0F80
3E0780
3E07C0
3E07C0
3E07C0
3E07C0
3E1F80
7FFF00
FFFC00
ENDCHAR
STARTCHAR uni029A
ENCODING 666
SWIDTH 569 0
DWIDTH 22 0
BBX 19 19 1 0
BITMAP
07F800
1FFF00
3F0F80
7E07C0
7C07C0
7C03C0
7E03E0
3E03E0
0FF3E0
1FF3E0
3E03E0
7C03E0
7C03E0
FC03C0
7C07C0
7E0780
7F0F00
3FFE00
07F800
ENDCHAR
STARTCHAR uni029B
ENCODING 667
SWIDTH 599 0
DWIDTH 23 0
BBX 20 24 2 0
BITMAP
0000F0
0001F0
0003B0
000330
000300
03FF00
0FFF00
1F0F00
3C0700
7C0700
780000
F80000
F80000
F80000
F80000
F87FC0
F83F80
F81F00
F81F00
7C1F00
7C1F00
3E3F00
1FFF00
07F700
ENDCHAR
STARTCHAR uni029C
ENCODING 668
SWIDTH 619 0
DWIDTH 24 0
BBX 21 19 1 0
BITMAP
FF8FF8
7F07F0
3E03E0
3E03E0
3E03E0
3E03E0
3E03E0
3E03E0
3FFFE0
3FFFE0
3FFFE0
3E03E0
3E03E0
3E03E0
3E03E0
3E03E0
3E03E0
7F07F0
FF8FF8
ENDCHAR
STARTCHAR uni029D
ENCODING 669
SWIDTH 312 0
DWIDTH 12 0
BBX 16 34 -3 -8
BITMAP
01F0
01F0
01F0
01F0
0000
0000
0000
07F0
03F0
01F0
01F0
01F0
01F0
01F0
01F0
01F0
01F0
01F0
01F0
01F0
01F0
01F0
01F0
01F0
01F0
1FF0
7FF0
7FF8
E1FE
C1EF
E3E2
FFC0
7F80
3F00
ENDCHAR
STARTCHAR uni029E
ENCODING 670
SWIDTH 585 0
DWIDTH 22 0
BBX 21 27 -1 -8
BITMAP
FF87E0
7F83E0
3F81E0
1F81E0
0FC1E0
0FC1E0
07E1E0
03E3E0
03F3E0
01FFE0
00FFE0
00F3E0
00E3E0
01C3E0
03C3E0
0783E0
0F83E0
1F83E0
7FC3E0
0001E0
0001E0
0001E0
0001E0
0001E0
0001E0
0001F0
0001F8
ENDCHAR
STARTCHAR uni029F
ENCODING 671
SWIDTH 465 0
DWIDTH 18 0
BBX 15 19 1 0
BITMAP
FF80
7F00
3E00
3E00
3E00
3E00
3E00
3E00
3E00
3E00
3E00
3E00
3E00
3E06
3E06
3E0E
3E1E
7FFE
FFFE
ENDCHAR
STARTCHAR uni02A0
ENCODING 672
SWIDTH 596 0
DWIDTH 23 0
BBX 23 35 2 -8
BITMAP
00007E
0001FE
0003FE
0007CE
00078E
000F80
000F80
000F80
07FF80
1FFF80
3E1F80
7C1F80
7C0F80
780F80
F80F80
F80F80
F80F80
F80F80
F80F80
F80F80
F80F80
FC0F80
7C1F80
7E3F80
7FFF80
3FEF80
0F8F80
000F80
000F80
000F80
000F80
000F80
000F80
001FC0
003FE0
ENDCHAR
STARTCHAR uni02A1
ENCODING 673
SWIDTH 415 0
DWIDTH 16 0
BBX 16 27 0 0
BITMAP
0FF0
7FFC
F87E
F07F
F03F
F03F
003F
003F
003E
007E
00FC
01F8
03E0
07C0
07C0
07C0
7FFC
7FFC
7FFC
07C0
07C0
07C0
07C0
07C0
07C0
0FE0
1FF0
ENDCHAR
STARTCHAR uni02A2
ENCODING 674
SWIDTH 407 0
DWIDTH 15 0
BBX 16 27 0 0
BITMAP
07FC
1FFF
3F1F
7E0F
FC0F
FC00
FC00
FC00
FC00
7E00
3F00
1F80
0FC0
03E0
03E0
03E0
3FFE
3FFE
3FFE
03E0
03E0
03E0
03E0
03E0
03E0
07F0
0FF8
ENDCHAR
STARTCHAR uni02A3
ENCODING 675
SWIDTH 921 0
DWIDTH 35 0
BBX 31 27 2 0
BITMAP
003F8000
001F8000
000F8000
000F8000
000F8000
000F8000
000F8000
000F8000
07FFFFFE
1FFFFFFE
3E1F807E
7C1F80FC
7C0F80F8
780F81F8
F80F83F0
F80F83F0
F80F87E0
F80F87C0
F80F8FC0
F80F9F80
F80F9F00
FC0FBF06
7C1FBE06
7E3FFE0E
7FFFFC1E
3FEFFFFE
0F8FFFFE
ENDCHAR
STARTCHAR uni02A4
ENCODING 676
SWIDTH 936 0
DWIDTH 36 0
BBX 34 35 2 -8
BITMAP
003F800000
001F800000
000F800000
000F800000
000F800000
000F800000
000F800000
000F800000
07FFFFFF80
1FFFFFFF80
3E1F801F00
7C1F803F00
7C0F807E00
780F807C00
F80F80FC00
F80F80F800
F80F81F800
F80F83F000
F80F83E000
F80F87E000
F80F87F800
FC0F83FE00
7C1F803F00
7E3F801F80
7FFF800FC0
3FCFE00FC0
0F8FE00FC0
0000000FC0
0000000FC0
0000000FC0
0000701F80
0000701F80
0000783F00
00007FFC00
00003FF000
ENDCHAR
STARTCHAR uni02A5
ENCODING 677
SWIDTH 994 0
DWIDTH 38 0
BBX 36 31 2 -4
BITMAP
003F800000
001F800000
000F800000
000F800000
000F800000
000F800000
000F800000
000F800000
07FFFFFF00
1FFFFFFF00
3E1F807F00
7C1F80FE00
7C0F81FC00
780F81FC00
F80F83F800
F80F83F800
F80F87F000
F80F8FE000
F80F8FE3C0
F80F9FC7E0
F80FBFCC70
FC0FBF9870
7C1FFF3870
7E3FFF30F0
7FFFFE71E0
3FCFFFFFC0
0F8FFFFF00
000000C000
000001C000
0000018000
0000008000
ENDCHAR
STARTCHAR uni02A6
ENCODING 678
SWIDTH 726 0
DWIDTH 28 0
BBX 25 23 1 0
BITMAP
3E000000
3E000000
3E000000
3E000000
7FF1FF00
FFFFFF80
3E0F8F80
3E1F0780
3E1F0380
3E1F0000
3E1FC000
3E0FF000
3E0FFC00
3E07FF00
3E01FF00
3E007F80
3E001F80
3E000F80
3E000F80
1F001F00
1FC07E00
07FFFC00
00FFE000
ENDCHAR
STARTCHAR uni02A7
ENCODING 679
SWIDTH 611 0
DWIDTH 23 0
BBX 24 35 1 -8
BITMAP
00003F
0000FF
0001FF
3E03E7
3E07C7
3E07C0
3E07C0
3E07C0
7FFFC0
FFFFC0
3E07C0
3E07C0
3E07C0
3E07C0
3E07C0
3E07C0
3E07C0
3E07C0
3E07C0
3E07C0
3E07C0
3E07C0
3E07C0
3F0FC0
1FFFC0
1FFFC0
07C7C0
0007C0
0007C0
0007C0
0007C0
01C780
01CF80
01FF00
01FC00
ENDCHAR
STARTCHAR uni02A8
ENCODING 680
SWIDTH 756 0
DWIDTH 29 0
BBX 28 23 1 0
BITMAP
3E000000
3E000000
3E000000
3E000000
7FF07F00
FFF3FFC0
3E07C7C0
3E0787C0
3E0F83C0
3E0F0000
3E1F0000
3E1F0000
3E1F0000
3E1F0000
3E1F07C0
3E1F1FE0
3E1FFFF0
3E0FF070
3E0FC070
3F1FE0F0
1FFFFFE0
1FF1FFC0
07C07F00
ENDCHAR
STARTCHAR uni02A9
ENCODING 681
SWIDTH 913 0
DWIDTH 35 0
BBX 31 35 1 -8
BITMAP
01F80000
07F80000
0FF80000
1F380000
3E380000
3E000000
3E000000
3E000000
7FFFE3F0
FFFFE7FC
3E07FFFC
3E03F87E
3E03F03E
3E03E03E
3E03E03E
3E03E03E
3E03E03E
3E03E03E
3E03E03E
3E03E03E
3E03E03E
3E03E03E
3E03E03E
3E03E03E
3E03E03E
7F07F03E
FF8FF83E
0000003E
0000003E
0000003E
0000003E
00001C3C
00001C78
00001FF0
00001FC0
ENDCHAR
STARTCHAR uni02AA
ENCODING 682
SWIDTH 676 0
DWIDTH 26 0
BBX 24 27 0 0
BITMAP
7E0000
3E0000
3E0000
3E0000
3E0000
3E0000
3F0000
3F0000
3F03FE
3F0FFF
3F1F1F
3F3E0F
3F3E07
3F3E00
3F3F80
3F1FE0
3F1FF8
3F8FFC
3F83FE
3F80FF
3F803F
3F801F
3F801F
3FC01F
3FF03E
7FFFFC
FF0FF0
ENDCHAR
STARTCHAR uni02AB
ENCODING 683
SWIDTH 632 0
DWIDTH 24 0
BBX 21 27 0 0
BITMAP
7E0000
3E0000
3E0000
3E0000
3E0000
3E0000
3E0000
3E0000
3FFFF8
3FFFF8
3E01F8
3E03F0
3E03E0
3E07E0
3E0FC0
3E0FC0
3E1F80
3E1F00
3E3F00
3E7E00
3E7C00
3EFC18
3EF818
3FF838
3FF078
7FFFF8
FFFFF8
ENDCHAR
STARTCHAR uni02AC
ENCODING 684
SWIDTH 590 0
DWIDTH 22 0
BBX 21 26 1 0
BITMAP
FE38F8
787870
787860
3C7C60
3CFCC0
3CFCC0
1E9FC0
1F9F80
1F9F80
0F0F00
0F0F00
0F0E00
000000
000000
FE38F8
787870
787860
3C7C60
3CFCC0
3CFCC0
1E9FC0
1F9F80
1F9F80
0F0F00
0F0F00
0F0E00
ENDCHAR
STARTCHAR uni02AD
ENCODING 685
SWIDTH 551 0
DWIDTH 21 0
BBX 15 27 3 0
BITMAP
FFFE
FFFE
FFFE
FFFE
E00E
E00E
E00E
E00E
E00E
E00E
E00E
E00E
0000
0000
0000
FFFE
FFFE
FFFE
FFFE
E00E
E00E
E00E
E00E
E00E
E00E
E00E
E00E
ENDCHAR
STARTCHAR uni02AE
ENCODING 686
SWIDTH 706 0
DWIDTH 27 0
BBX 26 27 0 -8
BITMAP
3F807F00
FFE03F00
F3E01F00
E1F01F00
E1F01F00
01F01F00
01F01F00
01F01F00
01F01F00
01F01F00
01F01F00
01F01F00
01F01F00
01F01F00
01F03F00
01F87F00
00FFFF00
00FF3F00
007E3F00
00003F00
00003F00
00003F00
00003F00
00003F00
00003F00
00003F80
00003FC0
ENDCHAR
STARTCHAR uni02AF
ENCODING 687
SWIDTH 706 0
DWIDTH 27 0
BBX 30 27 0 -8
BITMAP
3F807F00
FFE03F00
F3E01F00
E1F01F00
E1F01F00
01F01F00
01F01F00
01F01F00
01F01F00
01F01F00
01F01F00
01F01F00
01F01F00
01F01F00
01F03F00
01F87F00
00FFFF00
00FF3F00
007E3F00
00003F00
00003F00
00003F00
00003F00
00001F1C
00001F9C
00000FFC
000003FC
ENDCHAR
STARTCHAR uni02B0
ENCODING 688
SWIDTH 442 0
DWIDTH 17 0
BBX 14 17 2 15
BITMAP
F800
7800
7800
7800
7800
79E0
7FF0
7C78
7878
7878
7878
7878
7878
7878
7878
7878
FCFC
ENDCHAR
STARTCHAR uni02B1
ENCODING 689
SWIDTH 442 0
DWIDTH 17 0
BBX 13 17 2 15
BITMAP
0F80
3F80
3980
7800
7800
79E0
7FE0
7CF0
78F0
78F0
78F0
78F0
78F0
78F0
78F0
78F0
FDF8
ENDCHAR
STARTCHAR uni02B2
ENCODING 690
SWIDTH 236 0
DWIDTH 9 0
BBX 6 22 1 10
BITMAP
3C
3C
3C
00
00
7C
3C
3C
3C
3C
3C
3C
3C
3C
3C
3C
3C
3C
3C
78
F0
C0
ENDCHAR
STARTCHAR uni02B3
ENCODING 691
SWIDTH 348 0
DWIDTH 13 0
BBX 10 12 2 15
BITMAP
FBC0
7FC0
79C0
79C0
7800
7800
7800
7800
7800
7800
7800
FC00
ENDCHAR
STARTCHAR uni02B4
ENCODING 692
SWIDTH 345 0
DWIDTH 13 0
BBX 11 12 0 15
BITMAP
07C0
03C0
03C0
03C0
03C0
03C0
03C0
03C0
03C0
E7C0
FFC0
F3E0
ENDCHAR
STARTCHAR uni02B5
ENCODING 693
SWIDTH 378 0
DWIDTH 14 0
BBX 14 17 0 10
BITMAP
07C0
03C0
03C0
03C0
03C0
03C0
03C0
03C0
03C0
E7C0
FFC0
F3C0
03C0
03C0
03C4
01CC
00FC
ENDCHAR
STARTCHAR uni02B6
ENCODING 694
SWIDTH 419 0
DWIDTH 16 0
BBX 14 12 0 15
BITMAP
F8F8
3C78
3C78
1E78
1E78
0FF8
1FF8
3C78
3C78
3C78
3FFC
0FFC
ENDCHAR
STARTCHAR uni02B7
ENCODING 695
SWIDTH 590 0
DWIDTH 22 0
BBX 21 12 1 15
BITMAP
FE38F8
787870
787860
3C7C60
3CFCE0
3CDCC0
1EDEC0
1F9F80
1F8F80
0F0F00
0F0F00
070F00
ENDCHAR
STARTCHAR uni02B8
ENCODING 696
SWIDTH 403 0
DWIDTH 15 0
BBX 14 17 1 10
BITMAP
FE7C
7C38
7C30
3C30
3C60
1E60
1EC0
1EC0
0F80
0F80
0F00
0700
0600
0600
CC00
F800
F000
ENDCHAR
STARTCHAR uni02B9
ENCODING 697
SWIDTH 251 0
DWIDTH 10 0
BBX 5 9 2 18
BITMAP
F8
F8
F8
F0
F0
70
70
70
70
ENDCHAR
STARTCHAR uni02BA
ENCODING 698
SWIDTH 422 0
DWIDTH 16 0
BBX 12 9 2 18
BITMAP
F9F0
F9F0
F9F0
F1E0
F1E0
F1E0
70E0
70E0
70E0
ENDCHAR
STARTCHAR uni02BB
ENCODING 699
SWIDTH 234 0
DWIDTH 9 0
BBX 7 10 2 17
BITMAP
0C
1E
3C
7C
78
F8
F8
F8
F8
F8
ENDCHAR
STARTCHAR uni02BC
ENCODING 700
SWIDTH 234 0
DWIDTH 9 0
BBX 7 10 1 17
BITMAP
3E
3E
3E
3E
3E
3C
7C
78
F0
60
ENDCHAR
STARTCHAR uni02BD
ENCODING 701
SWIDTH 234 0
DWIDTH 9 0
BBX 6 10 2 17
BITMAP
F0
F0
F0
F0
F0
F0
78
38
3C
08
ENDCHAR
STARTCHAR uni02BE
ENCODING 702
SWIDTH 250 0
DWIDTH 10 0
BBX 7 10 1 17
BITMAP
F0
FC
1C
0E
0E
0E
0E
1C
FC
F0
ENDCHAR
STARTCHAR uni02BF
ENCODING 703
SWIDTH 250 0
DWIDTH 10 0
BBX 7 10 1 17
BITMAP
1E
7E
70
E0
E0
E0
E0
70
7E
1E
ENDCHAR
STARTCHAR uni02C0
ENCODING 704
SWIDTH 291 0
DWIDTH 11 0
BBX 11 12 0 20
BITMAP
3F80
FFC0
E3E0
E1E0
01E0
01C0
0380
0F00
1E00
1E00
1E00
1E00
ENDCHAR
STARTCHAR uni02C1
ENCODING 705
SWIDTH 291 0
DWIDTH 11 0
BBX 11 12 0 20
BITMAP
1FC0
7FE0
F8E0
F0E0
F000
F000
7800
3E00
0F00
0F00
0F00
0F00
ENDCHAR
STARTCHAR uni02C2
ENCODING 706
SWIDTH 592 0
DWIDTH 23 0
BBX 19 17 2 0
BITMAP
0000E0
0003E0
001FE0
00FFE0
07FF00
1FF800
FFC000
FE0000
F00000
FE0000
FFC000
1FF800
07FF00
00FFE0
001FE0
0003E0
0000E0
ENDCHAR
STARTCHAR uni02C3
ENCODING 707
SWIDTH 592 0
DWIDTH 23 0
BBX 19 17 2 0
BITMAP
E00000
F80000
FF0000
FFE000
1FFC00
03FF00
007FE0
000FE0
0001E0
000FE0
007FE0
03FF00
1FFC00
FFE000
FF0000
F80000
E00000
ENDCHAR
STARTCHAR uni02C4
ENCODING 708
SWIDTH 587 0
DWIDTH 22 0
BBX 18 19 2 0
BITMAP
01E000
01F000
03F000
03F800
07F800
07B800
073C00
0F3C00
0F1C00
1E1E00
1E0E00
1E0F00
3C0F00
3C0700
380780
780780
7803C0
F003C0
F003C0
ENDCHAR
STARTCHAR uni02C5
ENCODING 709
SWIDTH 587 0
DWIDTH 22 0
BBX 18 19 2 0
BITMAP
F003C0
F003C0
7803C0
780780
380780
3C0700
3C0F00
1C0F00
1E1E00
1E1E00
0F1C00
0F3C00
073C00
07B800
07F800
03F800
03F000
01F000
01E000
ENDCHAR
STARTCHAR circumflex
ENCODING 710
SWIDTH 284 0
DWIDTH 11 0
BBX 11 7 0 20
BITMAP
0F00
1F00
3F80
3BC0
71C0
E0E0
4040
ENDCHAR
STARTCHAR caron
ENCODING 711
SWIDTH 284 0
DWIDTH 11 0
BBX 11 7 0 21
BITMAP
4040
E0E0
71C0
7B80
3F80
1F00
1E00
ENDCHAR
STARTCHAR uni02C8
ENCODING 712
SWIDTH 202 0
DWIDTH 8 0
BBX 3 9 2 18
BITMAP
E0
E0
E0
E0
E0
E0
E0
E0
E0
ENDCHAR
STARTCHAR macron.dup6
ENCODING 713
SWIDTH 284 0
DWIDTH 11 0
BBX 10 3 0 22
BITMAP
FFC0
FFC0
FFC0
ENDCHAR
STARTCHAR uni02CA
ENCODING 714
SWIDTH 276 0
DWIDTH 11 0
BBX 9 8 1 19
BITMAP
0F80
0F00
1E00
3C00
7800
7000
E000
4000
ENDCHAR
STARTCHAR uni02CB
ENCODING 715
SWIDTH 276 0
DWIDTH 11 0
BBX 8 8 1 19
BITMAP
F0
F8
7C
3C
1E
0F
03
01
ENDCHAR
STARTCHAR uni02CC
ENCODING 716
SWIDTH 202 0
DWIDTH 8 0
BBX 3 9 2 -7
BITMAP
E0
E0
E0
E0
E0
E0
E0
E0
E0
ENDCHAR
STARTCHAR uni02CD
ENCODING 717
SWIDTH 294 0
DWIDTH 11 0
BBX 11 3 0 -3
BITMAP
FFE0
FFE0
FFE0
ENDCHAR
STARTCHAR uni02CE
ENCODING 718
SWIDTH 276 0
DWIDTH 11 0
BBX 9 8 0 -6
BITMAP
0F80
0F00
1E00
3C00
3800
7000
E000
4000
ENDCHAR
STARTCHAR uni02CF
ENCODING 719
SWIDTH 276 0
DWIDTH 11 0
BBX 8 8 2 -6
BITMAP
F0
F8
7C
3C
1E
0F
03
01
ENDCHAR
STARTCHAR uni02D0
ENCODING 720
SWIDTH 295 0
DWIDTH 11 0
BBX 7 19 2 0
BITMAP
FE
FE
7C
7C
38
38
10
00
00
00
00
00
10
18
38
3C
7C
FE
FE
ENDCHAR
STARTCHAR uni02D1
ENCODING 721
SWIDTH 276 0
DWIDTH 11 0
BBX 8 8 1 11
BITMAP
FF
7F
7E
3E
3C
1C
18
08
ENDCHAR
STARTCHAR uni02D2
ENCODING 722
SWIDTH 279 0
DWIDTH 11 0
BBX 7 10 2 5
BITMAP
F0
F8
3C
1C
0E
0E
1C
3C
F8
F0
ENDCHAR
STARTCHAR uni02D3
ENCODING 723
SWIDTH 279 0
DWIDTH 11 0
BBX 7 10 1 5
BITMAP
1E
3E
78
70
F0
E0
70
78
3E
1E
ENDCHAR
STARTCHAR uni02D4
ENCODING 724
SWIDTH 295 0
DWIDTH 11 0
BBX 11 9 0 5
BITMAP
0E00
0E00
0E00
0E00
0E00
0E00
FFE0
FFE0
FFE0
ENDCHAR
STARTCHAR uni02D5
ENCODING 725
SWIDTH 295 0
DWIDTH 11 0
BBX 11 9 0 5
BITMAP
FFE0
FFE0
FFE0
0E00
0E00
0E00
0E00
0E00
0E00
ENDCHAR
STARTCHAR uni02D6
ENCODING 726
SWIDTH 295 0
DWIDTH 11 0
BBX 11 11 0 4
BITMAP
0E00
0E00
0E00
0E00
FFE0
FFE0
FFE0
0E00
0E00
0E00
0E00
ENDCHAR
STARTCHAR uni02D7
ENCODING 727
SWIDTH 295 0
DWIDTH 11 0
BBX 10 3 1 8
BITMAP
FFC0
FFC0
FFC0
ENDCHAR
STARTCHAR breve
ENCODING 728
SWIDTH 284 0
DWIDTH 11 0
BBX 12 6 0 21
BITMAP
C030
E070
70E0
7FE0
3FC0
1F00
ENDCHAR
STARTCHAR dotaccent
ENCODING 729
SWIDTH 284 0
DWIDTH 11 0
BBX 5 5 3 21
BITMAP
F8
F8
F8
F8
F8
ENDCHAR
STARTCHAR ring
ENCODING 730
SWIDTH 284 0
DWIDTH 11 0
BBX 9 8 1 20
BITMAP
3E00
6300
C180
C180
C180
C180
6300
3E00
ENDCHAR
STARTCHAR ogonek
ENCODING 731
SWIDTH 284 0
DWIDTH 11 0
BBX 7 8 3 -8
BITMAP
38
70
60
E0
E0
E2
FE
3C
ENDCHAR
STARTCHAR tilde
ENCODING 732
SWIDTH 284 0
DWIDTH 11 0
BBX 13 5 -1 21
BITMAP
1C10
3F38
7FF0
E7E0
41C0
ENDCHAR
STARTCHAR hungarumlaut
ENCODING 733
SWIDTH 284 0
DWIDTH 11 0
BBX 13 7 -1 20
BITMAP
0E38
1E78
3CF0
38E0
71C0
E380
4100
ENDCHAR
STARTCHAR uni02DE
ENCODING 734
SWIDTH 235 0
DWIDTH 9 0
BBX 14 8 -4 8
BITMAP
0300
0F00
7E00
F60C
C608
0718
03F0
01E0
ENDCHAR
STARTCHAR uni02DF
ENCODING 735
SWIDTH 385 0
DWIDTH 15 0
BBX 13 14 1 14
BITMAP
4020
E070
F0F8
79F0
3FE0
1FC0
0F80
0F80
1FC0
3FE0
79F0
F0F8
E070
4020
ENDCHAR
STARTCHAR uni02E0
ENCODING 736
SWIDTH 403 0
DWIDTH 15 0
BBX 15 17 0 10
BITMAP
FE3E
7C1C
3C18
3E38
1E30
1E70
0F60
0FE0
0FC0
07C0
07C0
07C0
0FE0
0CE0
0CE0
0FE0
0780
ENDCHAR
STARTCHAR uni02E1
ENCODING 737
SWIDTH 240 0
DWIDTH 9 0
BBX 6 17 2 15
BITMAP
F8
78
78
78
78
78
78
78
78
78
78
78
78
78
78
78
FC
ENDCHAR
STARTCHAR uni02E2
ENCODING 738
SWIDTH 346 0
DWIDTH 13 0
BBX 11 12 1 15
BITMAP
1FE0
7FE0
F0E0
F000
FC00
7F80
1FC0
07E0
C1E0
E1E0
FFC0
7F80
ENDCHAR
STARTCHAR uni02E3
ENCODING 739
SWIDTH 392 0
DWIDTH 15 0
BBX 14 12 0 15
BITMAP
FC7C
7C38
3C70
1EE0
0FC0
0F80
0780
0FC0
1DE0
38F0
70F8
F9FC
ENDCHAR
STARTCHAR uni02E4
ENCODING 740
SWIDTH 296 0
DWIDTH 11 0
BBX 11 17 0 15
BITMAP
1FC0
7FE0
F8E0
F0E0
F000
F000
7800
3C00
1F00
0F00
0F00
0F00
0F00
0F00
0F00
0F00
1F80
ENDCHAR
STARTCHAR uni02E5
ENCODING 741
SWIDTH 415 0
DWIDTH 16 0
BBX 10 27 2 0
BITMAP
FFC0
FFC0
FFC0
01C0
01C0
01C0
01C0
01C0
01C0
01C0
01C0
01C0
01C0
01C0
01C0
01C0
01C0
01C0
01C0
01C0
01C0
01C0
01C0
01C0
01C0
01C0
01C0
ENDCHAR
STARTCHAR uni02E6
ENCODING 742
SWIDTH 415 0
DWIDTH 16 0
BBX 10 27 2 0
BITMAP
01C0
01C0
01C0
01C0
01C0
01C0
01C0
FFC0
FFC0
FFC0
01C0
01C0
01C0
01C0
01C0
01C0
01C0
01C0
01C0
01C0
01C0
01C0
01C0
01C0
01C0
01C0
01C0
ENDCHAR
STARTCHAR uni02E7
ENCODING 743
SWIDTH 415 0
DWIDTH 16 0
BBX 10 27 2 0
BITMAP
01C0
01C0
01C0
01C0
01C0
01C0
01C0
01C0
01C0
01C0
01C0
01C0
FFC0
FFC0
FFC0
01C0
01C0
01C0
01C0
01C0
01C0
01C0
01C0
01C0
01C0
01C0
01C0
ENDCHAR
STARTCHAR uni02E8
ENCODING 744
SWIDTH 415 0
DWIDTH 16 0
BBX 10 27 2 0
BITMAP
01C0
01C0
01C0
01C0
01C0
01C0
01C0
01C0
01C0
01C0
01C0
01C0
01C0
01C0
01C0
01C0
01C0
01C0
FFC0
FFC0
FFC0
01C0
01C0
01C0
01C0
01C0
01C0
ENDCHAR
STARTCHAR uni02E9
ENCODING 745
SWIDTH 415 0
DWIDTH 16 0
BBX 10 27 2 0
BITMAP
01C0
01C0
01C0
01C0
01C0
01C0
01C0
01C0
01C0
01C0
01C0
01C0
01C0
01C0
01C0
01C0
01C0
01C0
01C0
01C0
01C0
01C0
01C0
01C0
FFC0
FFC0
FFC0
ENDCHAR
STARTCHAR uni02EA
ENCODING 746
SWIDTH 396 0
DWIDTH 15 0
BBX 11 19 3 0
BITMAP
E000
E000
E000
E000
E000
E000
E000
E000
E000
E000
E000
E000
E000
E000
E000
E000
FFE0
FFE0
FFE0
ENDCHAR
STARTCHAR uni02EB
ENCODING 747
SWIDTH 396 0
DWIDTH 15 0
BBX 11 19 3 0
BITMAP
E000
E000
E000
E000
E000
E000
E000
E000
FFE0
FFE0
FFE0
E000
E000
E000
E000
E000
E000
E000
E000
ENDCHAR
STARTCHAR uni02EC
ENCODING 748
SWIDTH 352 0
DWIDTH 13 0
BBX 11 9 1 -7
BITMAP
4040
E0E0
70E0
71C0
3BC0
3F80
1F00
0F00
0E00
ENDCHAR
STARTCHAR uni02ED
ENCODING 749
SWIDTH 437 0
DWIDTH 17 0
BBX 13 9 2 18
BITMAP
FFF8
FFF8
FFF8
0000
0000
0000
FFF8
FFF8
FFF8
ENDCHAR
STARTCHAR uni02EE
ENCODING 750
SWIDTH 397 0
DWIDTH 15 0
BBX 13 9 1 18
BITMAP
3C78
3C78
3C78
3C78
3C78
3870
78F0
E1C0
4080
ENDCHAR
STARTCHAR uni02EF
ENCODING 751
SWIDTH 352 0
DWIDTH 13 0
BBX 11 9 1 -7
BITMAP
4040
E0E0
70E0
71C0
3BC0
3F80
1F00
0F00
0E00
ENDCHAR
STARTCHAR uni02F0
ENCODING 752
SWIDTH 317 0
DWIDTH 12 0
BBX 12 9 0 -7
BITMAP
0F00
0F00
1F80
1F80
39C0
79E0
70E0
E070
6020
ENDCHAR
STARTCHAR uni02F1
ENCODING 753
SWIDTH 287 0
DWIDTH 11 0
BBX 9 12 1 -9
BITMAP
0100
0780
0F00
3E00
FC00
F000
F000
F800
3E00
1F00
0780
0100
ENDCHAR
STARTCHAR uni02F2
ENCODING 754
SWIDTH 287 0
DWIDTH 11 0
BBX 9 12 1 -9
BITMAP
4000
F000
7800
3E00
1F80
0780
0780
1F80
3E00
7800
F000
4000
ENDCHAR
STARTCHAR uni02F3
ENCODING 755
SWIDTH 284 0
DWIDTH 11 0
BBX 9 7 1 -6
BITMAP
3E00
6300
C180
C180
C180
6300
3E00
ENDCHAR
STARTCHAR uni02F4
ENCODING 756
SWIDTH 271 0
DWIDTH 10 0
BBX 9 9 1 5
BITMAP
F000
F800
7800
3C00
1E00
0E00
0700
0380
0100
ENDCHAR
STARTCHAR uni02F5
ENCODING 757
SWIDTH 457 0
DWIDTH 17 0
BBX 16 9 1 5
BITMAP
F1E0
F9F0
78F0
3C78
1E3C
0E1C
070E
0387
0102
ENDCHAR
STARTCHAR uni02F6
ENCODING 758
SWIDTH 459 0
DWIDTH 17 0
BBX 15 9 1 5
BITMAP
0F1E
0F1E
1E3C
3C78
3870
70F0
F1E0
E1C0
4080
ENDCHAR
STARTCHAR uni02F7
ENCODING 759
SWIDTH 344 0
DWIDTH 13 0
BBX 13 5 0 -4
BITMAP
1C18
3F38
7FF0
E7E0
41C0
ENDCHAR
STARTCHAR uni02F8
ENCODING 760
SWIDTH 201 0
DWIDTH 8 0
BBX 4 12 2 15
BITMAP
F0
F0
F0
F0
00
00
00
00
F0
F0
F0
F0
ENDCHAR
STARTCHAR uni02F9
ENCODING 761
SWIDTH 316 0
DWIDTH 12 0
BBX 7 11 3 15
BITMAP
FE
FE
FE
E0
E0
E0
E0
E0
E0
E0
E0
ENDCHAR
STARTCHAR uni02FA
ENCODING 762
SWIDTH 316 0
DWIDTH 12 0
BBX 8 11 2 15
BITMAP
FF
FF
FF
07
07
07
07
07
07
07
07
ENDCHAR
STARTCHAR uni02FB
ENCODING 763
SWIDTH 316 0
DWIDTH 12 0
BBX 7 10 3 0
BITMAP
E0
E0
E0
E0
E0
E0
E0
FE
FE
FE
ENDCHAR
STARTCHAR uni02FC
ENCODING 764
SWIDTH 316 0
DWIDTH 12 0
BBX 8 10 2 0
BITMAP
07
07
07
07
07
07
07
FF
FF
FF
ENDCHAR
STARTCHAR uni02FD
ENCODING 765
SWIDTH 438 0
DWIDTH 17 0
BBX 14 7 1 -8
BITMAP
C00C
C00C
C00C
C00C
C00C
FFFC
FFFC
ENDCHAR
STARTCHAR uni02FE
ENCODING 766
SWIDTH 428 0
DWIDTH 16 0
BBX 14 6 1 -8
BITMAP
C000
C000
C000
C000
FFFC
FFFC
ENDCHAR
STARTCHAR uni02FF
ENCODING 767
SWIDTH 462 0
DWIDTH 18 0
BBX 16 12 1 -9
BITMAP
0100
0780
0F00
3E00
F800
FFFF
FFFF
F800
3E00
1F00
0780
0100
ENDCHAR
STARTCHAR gravecomb
ENCODING 768
SWIDTH 0 0
DWIDTH 0 0
BBX 8 7 -11 20
BITMAP
F0
F8
7C
1C
0E
07
02
ENDCHAR
STARTCHAR acutecomb
ENCODING 769
SWIDTH 0 0
DWIDTH 0 0
BBX 8 7 -9 20
BITMAP
0F
1F
1E
3C
78
E0
40
ENDCHAR
STARTCHAR uni0302
ENCODING 770
SWIDTH 0 0
DWIDTH 0 0
BBX 10 7 -11 20
BITMAP
1E00
1F00
3F80
7B80
71C0
E0C0
C040
ENDCHAR
STARTCHAR tildecomb
ENCODING 771
SWIDTH 0 0
DWIDTH 0 0
BBX 12 5 -12 21
BITMAP
3C10
7E30
7FF0
C7E0
C1C0
ENDCHAR
STARTCHAR uni0304
ENCODING 772
SWIDTH 0 0
DWIDTH 0 0
BBX 10 3 -11 22
BITMAP
FFC0
FFC0
FFC0
ENDCHAR
STARTCHAR uni0305
ENCODING 773
SWIDTH 0 0
DWIDTH 0 0
BBX 14 2 -13 22
BITMAP
FFFC
FFFC
ENDCHAR
STARTCHAR uni0306
ENCODING 774
SWIDTH 0 0
DWIDTH 0 0
BBX 11 6 -11 21
BITMAP
C060
C060
E0E0
7FC0
3FC0
1F00
ENDCHAR
STARTCHAR uni0307
ENCODING 775
SWIDTH 0 0
DWIDTH 0 0
BBX 5 5 -8 21
BITMAP
F8
F8
F8
F8
F8
ENDCHAR
STARTCHAR uni0308
ENCODING 776
SWIDTH 0 0
DWIDTH 0 0
BBX 11 4 -11 22
BITMAP
F1E0
F1E0
F1E0
F1E0
ENDCHAR
STARTCHAR hookabovecomb
ENCODING 777
SWIDTH 0 0
DWIDTH 0 0
BBX 8 7 -10 21
BITMAP
3E
E7
C7
07
0E
1C
18
ENDCHAR
STARTCHAR uni030A
ENCODING 778
SWIDTH 0 0
DWIDTH 0 0
BBX 9 8 -10 20
BITMAP
3E00
E300
C300
C180
C180
C300
E300
7E00
ENDCHAR
STARTCHAR uni030B
ENCODING 779
SWIDTH 0 0
DWIDTH 0 0
BBX 13 7 -12 20
BITMAP
0E38
1E78
3C70
38E0
71C0
E380
4100
ENDCHAR
STARTCHAR uni030C
ENCODING 780
SWIDTH 0 0
DWIDTH 0 0
BBX 10 7 -11 21
BITMAP
C040
E0C0
F1C0
7B80
3F00
3F00
1E00
ENDCHAR
STARTCHAR uni030D
ENCODING 781
SWIDTH 0 0
DWIDTH 0 0
BBX 4 7 -8 20
BITMAP
F0
F0
F0
F0
70
70
60
ENDCHAR
STARTCHAR uni030E
ENCODING 782
SWIDTH 0 0
DWIDTH 0 0
BBX 8 7 -10 20
BITMAP
E7
E7
E7
E7
E7
E7
E7
ENDCHAR
STARTCHAR uni030F
ENCODING 783
SWIDTH 0 0
DWIDTH 0 0
BBX 13 7 -14 20
BITMAP
F380
73C0
39E0
1CF0
0E38
0618
0208
ENDCHAR
STARTCHAR uni0310
ENCODING 784
SWIDTH 0 0
DWIDTH 0 0
BBX 13 8 -12 20
BITMAP
0F00
CF18
CF38
E030
F0F0
7FE0
3FC0
1F80
ENDCHAR
STARTCHAR uni0311
ENCODING 785
SWIDTH 0 0
DWIDTH 0 0
BBX 12 6 -12 21
BITMAP
0F80
3FC0
7FE0
70E0
E070
C030
ENDCHAR
STARTCHAR uni0312
ENCODING 786
SWIDTH 0 0
DWIDTH 0 0
BBX 5 8 -8 21
BITMAP
08
38
70
70
F0
F0
F0
F0
ENDCHAR
STARTCHAR uni0313
ENCODING 787
SWIDTH 0 0
DWIDTH 0 0
BBX 6 8 -9 20
BITMAP
38
3C
3C
3C
38
70
E0
40
ENDCHAR
STARTCHAR uni0314
ENCODING 788
SWIDTH 0 0
DWIDTH 0 0
BBX 5 8 -9 20
BITMAP
80
F0
F0
F0
F0
70
38
18
ENDCHAR
STARTCHAR uni0315
ENCODING 789
SWIDTH 284 0
DWIDTH 11 0
BBX 5 8 3 19
BITMAP
78
78
78
78
78
70
E0
40
ENDCHAR
STARTCHAR uni0316
ENCODING 790
SWIDTH 284 0
DWIDTH 11 0
BBX 8 7 -10 -9
BITMAP
F0
F8
78
3C
1E
0E
07
ENDCHAR
STARTCHAR uni0317
ENCODING 791
SWIDTH 284 0
DWIDTH 11 0
BBX 8 7 -10 -9
BITMAP
0F
1F
1E
3C
78
70
E0
ENDCHAR
STARTCHAR uni0318
ENCODING 792
SWIDTH 0 0
DWIDTH 0 0
BBX 9 8 -10 -10
BITMAP
0380
0380
0380
FF80
FF80
0380
0380
0380
ENDCHAR
STARTCHAR uni0319
ENCODING 793
SWIDTH 0 0
DWIDTH 0 0
BBX 9 8 -10 -10
BITMAP
E000
E000
E000
FF80
FF80
E000
E000
E000
ENDCHAR
STARTCHAR uni031A
ENCODING 794
SWIDTH 0 0
DWIDTH 0 0
BBX 9 7 -10 20
BITMAP
FF80
FF80
0380
0380
0380
0380
0380
ENDCHAR
STARTCHAR uni031B
ENCODING 795
SWIDTH 0 0
DWIDTH 0 0
BBX 7 7 -3 11
BITMAP
1E
1E
1E
1E
1C
3C
F0
ENDCHAR
STARTCHAR uni031C
ENCODING 796
SWIDTH 0 0
DWIDTH 0 0
BBX 6 8 -9 -10
BITMAP
3C
7C
E0
E0
E0
E0
7C
3C
ENDCHAR
STARTCHAR uni031D
ENCODING 797
SWIDTH 0 0
DWIDTH 0 0
BBX 11 7 -11 -10
BITMAP
0E00
0E00
0E00
0E00
0E00
FFE0
FFE0
ENDCHAR
STARTCHAR uni031E
ENCODING 798
SWIDTH 0 0
DWIDTH 0 0
BBX 11 7 -11 -10
BITMAP
FFE0
FFE0
0E00
0E00
0E00
0E00
0E00
ENDCHAR
STARTCHAR uni031F
ENCODING 799
SWIDTH 0 0
DWIDTH 0 0
BBX 9 9 -10 -11
BITMAP
1C00
1C00
1C00
FF80
FF80
FF80
1C00
1C00
1C00
ENDCHAR
STARTCHAR uni0320
ENCODING 800
SWIDTH 0 0
DWIDTH 0 0
BBX 10 3 -11 -8
BITMAP
FFC0
FFC0
FFC0
ENDCHAR
STARTCHAR uni0321
ENCODING 801
SWIDTH 0 0
DWIDTH 0 0
BBX 11 8 -15 -8
BITMAP
03E0
03E0
03E0
03E0
E3E0
E7C0
FF80
FE00
ENDCHAR
STARTCHAR uni0322
ENCODING 802
SWIDTH 0 0
DWIDTH 0 0
BBX 11 8 -9 -8
BITMAP
F800
F800
F800
F800
F8E0
7CE0
7FE0
1FE0
ENDCHAR
STARTCHAR dotbelowcomb
ENCODING 803
SWIDTH 0 0
DWIDTH 0 0
BBX 5 5 -9 -8
BITMAP
F8
F8
F8
F8
F8
ENDCHAR
STARTCHAR uni0324
ENCODING 804
SWIDTH 0 0
DWIDTH 0 0
BBX 11 4 -11 -8
BITMAP
F1E0
F1E0
F1E0
F1E0
ENDCHAR
STARTCHAR uni0325
ENCODING 805
SWIDTH 0 0
DWIDTH 0 0
BBX 8 7 -10 -10
BITMAP
3E
E7
C3
C3
C3
E7
7E
ENDCHAR
STARTCHAR uni0326
ENCODING 806
SWIDTH 0 0
DWIDTH 0 0
BBX 7 6 -10 -8
BITMAP
1E
1E
1E
3E
FC
E0
ENDCHAR
STARTCHAR uni0327
ENCODING 807
SWIDTH 0 0
DWIDTH 0 0
BBX 9 10 -10 -8
BITMAP
0180
0300
0E00
1E00
1E00
1E00
1E00
3C00
FC00
E000
ENDCHAR
STARTCHAR uni0328
ENCODING 808
SWIDTH 0 0
DWIDTH 0 0
BBX 7 8 -8 -8
BITMAP
30
60
E0
E0
E0
E4
FE
78
ENDCHAR
STARTCHAR uni0329
ENCODING 809
SWIDTH 0 0
DWIDTH 0 0
BBX 4 7 -8 -10
BITMAP
F0
F0
F0
F0
70
70
60
ENDCHAR
STARTCHAR uni032A
ENCODING 810
SWIDTH 0 0
DWIDTH 0 0
BBX 10 6 -11 -9
BITMAP
FFC0
FFC0
E0C0
E0C0
E0C0
E0C0
ENDCHAR
STARTCHAR uni032B
ENCODING 811
SWIDTH 0 0
DWIDTH 0 0
BBX 13 6 -12 -9
BITMAP
C618
C630
CF30
FFF0
FFF0
79E0
ENDCHAR
STARTCHAR uni032C
ENCODING 812
SWIDTH 0 0
DWIDTH 0 0
BBX 10 7 -11 -9
BITMAP
8040
C0C0
E1C0
7380
3F00
3F00
1E00
ENDCHAR
STARTCHAR uni032D
ENCODING 813
SWIDTH 0 0
DWIDTH 0 0
BBX 10 7 -11 -10
BITMAP
1E00
3F00
3F00
7380
E1C0
C0C0
8040
ENDCHAR
STARTCHAR uni032E
ENCODING 814
SWIDTH 0 0
DWIDTH 0 0
BBX 12 6 -12 -9
BITMAP
C030
E070
70E0
7FE0
3FC0
0F80
ENDCHAR
STARTCHAR uni032F
ENCODING 815
SWIDTH 0 0
DWIDTH 0 0
BBX 12 6 -12 -9
BITMAP
1F80
3FC0
7FE0
F0E0
C070
C030
ENDCHAR
STARTCHAR uni0330
ENCODING 816
SWIDTH 0 0
DWIDTH 0 0
BBX 12 6 -12 -9
BITMAP
3810
7C30
7E30
C7E0
C3E0
81C0
ENDCHAR
STARTCHAR uni0331
ENCODING 817
SWIDTH 0 0
DWIDTH 0 0
BBX 10 3 -11 -7
BITMAP
FFC0
FFC0
FFC0
ENDCHAR
STARTCHAR uni0332
ENCODING 818
SWIDTH 0 0
DWIDTH 0 0
BBX 14 2 -13 -7
BITMAP
FFFC
FFFC
ENDCHAR
STARTCHAR uni0333
ENCODING 819
SWIDTH 0 0
DWIDTH 0 0
BBX 14 6 -13 -10
BITMAP
FFFC
FFFC
0000
0000
FFFC
FFFC
ENDCHAR
STARTCHAR uni0334
ENCODING 820
SWIDTH 0 0
DWIDTH 0 0
BBX 16 5 -14 7
BITMAP
1C03
7FC7
7FFE
E3FE
C03C
ENDCHAR
STARTCHAR uni0335
ENCODING 821
SWIDTH 0 0
DWIDTH 0 0
BBX 12 2 -12 9
BITMAP
FFF0
FFF0
ENDCHAR
STARTCHAR uni0336
ENCODING 822
SWIDTH 0 0
DWIDTH 0 0
BBX 20 2 -16 9
BITMAP
FFFFF0
FFFFF0
ENDCHAR
STARTCHAR uni0337
ENCODING 823
SWIDTH 0 0
DWIDTH 0 0
BBX 12 9 -12 5
BITMAP
0020
0070
01E0
03C0
0F00
1C00
7800
E000
4000
ENDCHAR
STARTCHAR uni0338
ENCODING 824
SWIDTH 0 0
DWIDTH 0 0
BBX 16 24 -14 -3
BITMAP
0003
0007
0006
000E
001C
0018
0038
0070
0070
00E0
00C0
01C0
0380
0300
0700
0600
0E00
1C00
1800
3800
7000
7000
E000
C000
ENDCHAR
STARTCHAR uni0339
ENCODING 825
SWIDTH 0 0
DWIDTH 0 0
BBX 6 8 -8 -10
BITMAP
E0
F8
38
1C
1C
38
F8
E0
ENDCHAR
STARTCHAR uni033A
ENCODING 826
SWIDTH 0 0
DWIDTH 0 0
BBX 10 6 -11 -9
BITMAP
E0C0
E0C0
E0C0
E0C0
FFC0
FFC0
ENDCHAR
STARTCHAR uni033B
ENCODING 827
SWIDTH 0 0
DWIDTH 0 0
BBX 8 8 -10 -11
BITMAP
FF
FF
C3
C3
C3
C3
FF
FF
ENDCHAR
STARTCHAR uni033C
ENCODING 828
SWIDTH 0 0
DWIDTH 0 0
BBX 14 7 -13 -10
BITMAP
1CE0
3FF0
3FF8
6798
E31C
4308
0100
ENDCHAR
STARTCHAR uni033D
ENCODING 829
SWIDTH 0 0
DWIDTH 0 0
BBX 9 9 -10 20
BITMAP
4200
E700
FF00
7E00
3C00
7E00
FF00
E780
4300
ENDCHAR
STARTCHAR uni033E
ENCODING 830
SWIDTH 0 0
DWIDTH 0 0
BBX 6 12 -9 20
BITMAP
1C
7C
70
E0
70
70
38
3C
1C
3C
F8
E0
ENDCHAR
STARTCHAR uni033F
ENCODING 831
SWIDTH 0 0
DWIDTH 0 0
BBX 14 6 -13 22
BITMAP
FFFC
FFFC
0000
0000
FFFC
FFFC
ENDCHAR
STARTCHAR uni0340
ENCODING 832
SWIDTH 0 0
DWIDTH 0 0
BBX 7 7 -10 20
BITMAP
F0
F8
78
3C
1E
0E
02
ENDCHAR
STARTCHAR uni0341
ENCODING 833
SWIDTH 0 0
DWIDTH 0 0
BBX 8 7 -9 20
BITMAP
1F
1E
3C
78
70
E0
C0
ENDCHAR
STARTCHAR uni0342
ENCODING 834
SWIDTH 0 0
DWIDTH 0 0
BBX 14 5 -13 21
BITMAP
3C0C
7F8C
7FFC
E3F8
C0F0
ENDCHAR
STARTCHAR uni0343
ENCODING 835
SWIDTH 0 0
DWIDTH 0 0
BBX 6 9 -8 20
BITMAP
3C
3C
3C
3C
3C
38
70
E0
40
ENDCHAR
STARTCHAR uni0344
ENCODING 836
SWIDTH 0 0
DWIDTH 0 0
BBX 15 10 -14 20
BITMAP
03E0
03E0
03C0
03C0
0380
F71E
F71E
F61E
F61E
0400
ENDCHAR
STARTCHAR uni0345
ENCODING 837
SWIDTH 0 0
DWIDTH 0 0
BBX 7 7 -8 -9
BITMAP
F0
F0
F0
F0
F2
FE
7C
ENDCHAR
STARTCHAR uni0346
ENCODING 838
SWIDTH 0 0
DWIDTH 0 0
BBX 10 6 -11 21
BITMAP
FFC0
FFC0
E0C0
E0C0
E0C0
E0C0
ENDCHAR
STARTCHAR uni0347
ENCODING 839
SWIDTH 0 0
DWIDTH 0 0
BBX 10 6 -11 -9
BITMAP
FFC0
FFC0
0000
0000
FFC0
FFC0
ENDCHAR
STARTCHAR uni0348
ENCODING 840
SWIDTH 0 0
DWIDTH 0 0
BBX 8 7 -10 -10
BITMAP
E7
E7
E7
E7
E7
E7
E7
ENDCHAR
STARTCHAR uni0349
ENCODING 841
SWIDTH 0 0
DWIDTH 0 0
BBX 9 7 -10 -10
BITMAP
FF80
FF80
0380
0380
0380
0380
0380
ENDCHAR
STARTCHAR uni034A
ENCODING 842
SWIDTH 0 0
DWIDTH 0 0
BBX 14 10 -13 20
BITMAP
00C0
00C0
01C0
1F8C
3F98
7FF8
63F0
E7E0
0600
0600
ENDCHAR
STARTCHAR uni034B
ENCODING 843
SWIDTH 0 0
DWIDTH 0 0
BBX 14 13 -13 20
BITMAP
0180
0380
0180
0000
1C0C
3F18
7FF8
63F0
E0E0
0000
0700
0700
0700
ENDCHAR
STARTCHAR uni034C
ENCODING 844
SWIDTH 0 0
DWIDTH 0 0
BBX 12 13 -12 20
BITMAP
3810
7C30
7E30
E7E0
C3E0
C1C0
0000
3810
7C30
7E30
E7E0
C3E0
C1C0
ENDCHAR
STARTCHAR uni034D
ENCODING 845
SWIDTH 0 0
DWIDTH 0 0
BBX 16 10 -14 -12
BITMAP
0810
1C38
381C
700E
FFFF
FFFF
700E
381C
1C38
0410
ENDCHAR
STARTCHAR uni034E
ENCODING 846
SWIDTH 0 0
DWIDTH 0 0
BBX 10 10 -11 -12
BITMAP
0C00
1E00
3F00
7F80
EDC0
4C80
0C00
0C00
0C00
0C00
ENDCHAR
STARTCHAR uni034F
ENCODING 847
SWIDTH 0 0
DWIDTH 0 0
BBX 1 1 0 0
BITMAP
00
ENDCHAR
STARTCHAR uni0350
ENCODING 848
SWIDTH 0 0
DWIDTH 0 0
BBX 6 10 -9 20
BITMAP
80
E0
70
38
1C
1C
38
70
E0
80
ENDCHAR
STARTCHAR uni0351
ENCODING 849
SWIDTH 0 0
DWIDTH 0 0
BBX 6 8 -9 20
BITMAP
3C
7C
E0
E0
E0
E0
7C
3C
ENDCHAR
STARTCHAR uni0352
ENCODING 850
SWIDTH 0 0
DWIDTH 0 0
BBX 13 8 -12 21
BITMAP
1F80
3FC0
7FE0
F070
C030
CF38
0F00
0F00
ENDCHAR
STARTCHAR uni0353
ENCODING 851
SWIDTH 0 0
DWIDTH 0 0
BBX 9 9 -10 -11
BITMAP
4200
E700
FF00
7E00
3C00
7E00
FF00
E780
4300
ENDCHAR
STARTCHAR uni0354
ENCODING 852
SWIDTH 0 0
DWIDTH 0 0
BBX 6 10 -9 -12
BITMAP
04
1C
38
70
E0
E0
70
38
0C
04
ENDCHAR
STARTCHAR uni0355
ENCODING 853
SWIDTH 0 0
DWIDTH 0 0
BBX 6 10 -9 -12
BITMAP
80
E0
70
38
1C
1C
38
70
E0
80
ENDCHAR
STARTCHAR uni0356
ENCODING 854
SWIDTH 0 0
DWIDTH 0 0
BBX 15 10 -13 -12
BITMAP
8000
E030
7078
38F8
1CDC
1D8E
3B86
7102
E000
8000
ENDCHAR
STARTCHAR uni0357
ENCODING 855
SWIDTH 0 0
DWIDTH 0 0
BBX 6 8 -8 20
BITMAP
E0
F8
38
1C
1C
38
F8
E0
ENDCHAR
STARTCHAR uni0358
ENCODING 856
SWIDTH 0 0
DWIDTH 0 0
BBX 5 5 -2 21
BITMAP
F8
F8
F8
F8
F8
ENDCHAR
STARTCHAR uni0359
ENCODING 857
SWIDTH 0 0
DWIDTH 0 0
BBX 8 8 -10 -10
BITMAP
18
5A
FF
3C
3C
FF
5A
18
ENDCHAR
STARTCHAR uni035A
ENCODING 858
SWIDTH 0 0
DWIDTH 0 0
BBX 15 7 -14 -10
BITMAP
3E7C
63CE
C186
C186
C186
E3CE
3EF8
ENDCHAR
STARTCHAR uni035B
ENCODING 859
SWIDTH 0 0
DWIDTH 0 0
BBX 8 10 -10 20
BITMAP
70
70
60
60
FF
FF
06
06
0E
0E
ENDCHAR
STARTCHAR uni035C
ENCODING 860
SWIDTH 0 0
DWIDTH 0 0
BBX 22 6 -11 -9
BITMAP
400008
E0001C
7C00F8
3FFFF0
0FFFC0
03FF00
ENDCHAR
STARTCHAR uni035D
ENCODING 861
SWIDTH 284 0
DWIDTH 11 0
BBX 22 6 -11 21
BITMAP
400008
E0001C
780078
3FFFF0
1FFFE0
03FF00
ENDCHAR
STARTCHAR uni035E
ENCODING 862
SWIDTH 0 0
DWIDTH 0 0
BBX 22 3 -11 22
BITMAP
FFFFFC
FFFFFC
FFFFFC
ENDCHAR
STARTCHAR uni035F
ENCODING 863
SWIDTH 0 0
DWIDTH 0 0
BBX 22 3 -11 -7
BITMAP
FFFFFC
FFFFFC
FFFFFC
ENDCHAR
STARTCHAR uni0360
ENCODING 864
SWIDTH 0 0
DWIDTH 0 0
BBX 22 5 -11 21
BITMAP
0FC00C
3FF83C
7FFFF8
F07FF0
C00FC0
ENDCHAR
STARTCHAR uni0361
ENCODING 865
SWIDTH 0 0
DWIDTH 0 0
BBX 22 6 -11 21
BITMAP
03FF00
0FFFC0
3FFFF0
7C00F8
E0001C
400008
ENDCHAR
STARTCHAR uni0362
ENCODING 866
SWIDTH 0 0
DWIDTH 0 0
BBX 21 10 -10 -12
BITMAP
000100
000180
0000E0
000070
FFFFF8
FFFFF8
000070
0000E0
000180
000100
ENDCHAR
STARTCHAR uni0363
ENCODING 867
SWIDTH 0 0
DWIDTH 0 0
BBX 9 9 -10 20
BITMAP
7E00
CE00
0700
0700
3F00
E700
C700
EF00
F780
ENDCHAR
STARTCHAR uni0364
ENCODING 868
SWIDTH 0 0
DWIDTH 0 0
BBX 9 9 -10 20
BITMAP
3E00
7300
E380
FF80
E000
E000
F100
7F00
3E00
ENDCHAR
STARTCHAR uni0365
ENCODING 869
SWIDTH 0 0
DWIDTH 0 0
BBX 5 13 -8 20
BITMAP
70
70
00
00
F0
70
70
70
70
70
70
70
F8
ENDCHAR
STARTCHAR uni0366
ENCODING 870
SWIDTH 0 0
DWIDTH 0 0
BBX 9 9 -11 20
BITMAP
3E00
7700
E380
E380
E380
E380
E380
7300
3E00
ENDCHAR
STARTCHAR uni0367
ENCODING 871
SWIDTH 0 0
DWIDTH 0 0
BBX 10 9 -11 20
BITMAP
F780
7380
7380
7380
7380
7380
7380
7F80
3BC0
ENDCHAR
STARTCHAR uni0368
ENCODING 872
SWIDTH 0 0
DWIDTH 0 0
BBX 8 9 -10 20
BITMAP
3F
77
E0
E0
E0
E0
F2
7E
3C
ENDCHAR
STARTCHAR uni0369
ENCODING 873
SWIDTH 0 0
DWIDTH 0 0
BBX 10 13 -11 20
BITMAP
0780
0380
0380
0380
3F80
7380
E380
E380
E380
E380
F380
7F80
3BC0
ENDCHAR
STARTCHAR uni036A
ENCODING 874
SWIDTH 0 0
DWIDTH 0 0
BBX 10 13 -11 20
BITMAP
F000
7000
7000
7000
7700
7F80
7380
7380
7380
7380
7380
7380
FFC0
ENDCHAR
STARTCHAR uni036B
ENCODING 875
SWIDTH 0 0
DWIDTH 0 0
BBX 15 9 -14 20
BITMAP
F738
7FFC
739C
739C
739C
739C
739C
739C
FFFE
ENDCHAR
STARTCHAR uni036C
ENCODING 876
SWIDTH 0 0
DWIDTH 0 0
BBX 8 9 -9 20
BITMAP
F7
7F
73
70
70
70
70
70
F8
ENDCHAR
STARTCHAR uni036D
ENCODING 877
SWIDTH 0 0
DWIDTH 0 0
BBX 7 11 -9 20
BITMAP
70
70
FC
70
70
70
70
70
70
7E
3C
ENDCHAR
STARTCHAR uni036E
ENCODING 878
SWIDTH 0 0
DWIDTH 0 0
BBX 10 9 -11 20
BITMAP
F9C0
71C0
3980
3980
3B00
1F00
1E00
0E00
0C00
ENDCHAR
STARTCHAR uni036F
ENCODING 879
SWIDTH 0 0
DWIDTH 0 0
BBX 10 9 -11 20
BITMAP
7BC0
3980
3B00
1E00
0E00
1F00
3700
6380
F7C0
ENDCHAR
STARTCHAR uni0370
ENCODING 880
SWIDTH 532 0
DWIDTH 20 0
BBX 17 26 2 0
BITMAP
FFC000
7F0000
3F0000
3F0000
3F0000
3F0000
3F0000
3F0000
3F0000
3F0000
3F0000
3F0000
3FFF80
3FFF80
3F0000
3F0000
3F0000
3F0000
3F0000
3F0000
3F0000
3F0000
3F0000
3F0000
7F0000
FFC000
ENDCHAR
STARTCHAR uni0371
ENCODING 881
SWIDTH 510 0
DWIDTH 19 0
BBX 18 19 0 0
BITMAP
1F0000
7F8000
FFC000
87C000
07E000
07E000
07E000
07E000
03E000
03FFC0
03FFC0
03E000
03E000
03E000
03E000
07E000
07E000
07F000
0FF800
ENDCHAR
STARTCHAR uni0372
ENCODING 882
SWIDTH 600 0
DWIDTH 23 0
BBX 21 26 1 0
BITMAP
FFFFF8
FFFFF8
F0F8F8
F0F8F8
F0F8F8
F0F8F8
F0F8F8
F0F8F8
F0F8F8
F0F8F8
F0F8F8
00F800
00F800
00F800
00F800
00F800
00F800
00F800
00F800
00F800
00F800
00F800
01F800
01F800
01FC00
07FF00
ENDCHAR
STARTCHAR uni0373
ENCODING 883
SWIDTH 565 0
DWIDTH 22 0
BBX 19 26 1 0
BITMAP
1FFFE0
7FFFE0
FFFFE0
F9F1E0
F1F1E0
F1F1E0
F1F1E0
01F000
01F000
01F000
01F000
01F000
01F000
01F000
01F000
01F000
01F000
01F000
01F000
01F000
01F000
01F000
01F000
01F000
01F000
01F000
ENDCHAR
STARTCHAR uni0374
ENCODING 884
SWIDTH 399 0
DWIDTH 15 0
BBX 6 10 5 18
BITMAP
3C
3C
38
38
78
70
70
E0
E0
40
ENDCHAR
STARTCHAR uni0375
ENCODING 885
SWIDTH 399 0
DWIDTH 15 0
BBX 6 10 5 -8
BITMAP
08
1C
1C
38
38
78
70
70
F0
F0
ENDCHAR
STARTCHAR uni0376
ENCODING 886
SWIDTH 731 0
DWIDTH 28 0
BBX 24 26 2 0
BITMAP
FFC01C
7F003C
3F003C
3F007C
3F00FC
3F00FC
3F01FC
3F03FC
3F07FC
3F07FC
3F0EFC
3F1CFC
3F1CFC
3F38FC
3F70FC
3E70FC
3EE0FC
3FC0FC
3F80FC
3F80FC
3F00FC
3E00FC
3E00FC
3C00FC
3800FE
3003FF
ENDCHAR
STARTCHAR uni0377
ENCODING 887
SWIDTH 658 0
DWIDTH 25 0
BBX 23 19 2 0
BITMAP
FE00E0
7E01E0
7E03E0
7E07E0
7E0FE0
7E0FE0
7E1FE0
7E3FE0
7E77E0
7E67E0
7EC7E0
7FC7E0
7F87E0
7F07E0
7E07E0
7E07E0
7C03E2
7803FE
7000F8
ENDCHAR
STARTCHAR uni037A
ENCODING 890
SWIDTH 284 0
DWIDTH 11 0
BBX 7 7 3 -9
BITMAP
F0
F0
F0
F0
F8
7E
3C
ENDCHAR
STARTCHAR uni037B
ENCODING 891
SWIDTH 463 0
DWIDTH 18 0
BBX 14 19 2 0
BITMAP
7F80
FFE0
83F0
00F8
00F8
007C
007C
007C
007C
007C
007C
007C
0078
00F8
00F8
01F0
03E0
FFC0
FF00
ENDCHAR
STARTCHAR uni037C
ENCODING 892
SWIDTH 463 0
DWIDTH 18 0
BBX 14 19 2 0
BITMAP
03FC
0FFC
1F00
3E00
7C00
7C00
F800
F8F8
F8F8
F8F8
F8F8
F8F8
F800
F800
7C00
7C00
3F04
1FFC
07F8
ENDCHAR
STARTCHAR uni037D
ENCODING 893
SWIDTH 463 0
DWIDTH 18 0
BBX 14 19 2 0
BITMAP
7F80
FFE0
83F0
00F8
00F8
007C
007C
7C7C
7C7C
7C7C
7C7C
7C7C
0078
00F8
00F8
01F0
03E0
FFC0
FF00
ENDCHAR
STARTCHAR uni037E
ENCODING 894
SWIDTH 279 0
DWIDTH 11 0
BBX 7 23 1 -5
BITMAP
3E
3E
3E
3E
3E
3E
00
00
00
00
00
00
3E
3E
3E
3E
3E
3E
3C
7C
78
F0
40
ENDCHAR
STARTCHAR uni037F
ENCODING 895
SWIDTH 340 0
DWIDTH 13 0
BBX 11 33 1 -7
BITMAP
7FE0
3FC0
1F80
1F80
1F80
1F80
1F80
1F80
1F80
1F80
1F80
1F80
1F80
1F80
1F80
1F80
1F80
1F80
1F80
1F80
1F80
1F80
1F80
1F80
1F80
1F80
1F80
1F00
1F00
3E00
7C00
F800
4000
ENDCHAR
STARTCHAR tonos
ENCODING 900
SWIDTH 286 0
DWIDTH 11 0
BBX 6 10 3 20
BITMAP
3C
3C
78
78
70
70
60
E0
C0
C0
ENDCHAR
STARTCHAR dieresistonos
ENCODING 901
SWIDTH 286 0
DWIDTH 11 0
BBX 15 10 -2 20
BITMAP
01E0
01E0
03C0
03C0
0380
F39E
F31E
F71E
F61E
0600
ENDCHAR
STARTCHAR Alphatonos
ENCODING 902
SWIDTH 651 0
DWIDTH 25 0
BBX 25 26 0 0
BITMAP
3C1F0000
3C3F0000
3C3F8000
783F8000
787F8000
707FC000
706FC000
60E7C000
60E7C000
41C7E000
01C7E000
01C3E000
0383F000
0383F000
0381F000
0701F800
07FFF800
07FFF800
0E00F800
0E00FC00
1C00FC00
1C00FC00
1C007E00
3C007E00
7E00FF00
FF01FF80
ENDCHAR
STARTCHAR anoteleia
ENCODING 903
SWIDTH 231 0
DWIDTH 9 0
BBX 5 6 2 14
BITMAP
F8
F8
F8
F8
F8
F8
ENDCHAR
STARTCHAR Epsilontonos
ENCODING 904
SWIDTH 715 0
DWIDTH 27 0
BBX 26 26 -1 0
BITMAP
3CFFFFC0
3C7FFFC0
7C3F03C0
783F03C0
703F01C0
703F01C0
603F0000
E03F0000
C03F0000
403F0600
003F0600
003F0E00
003FFE00
003FFE00
003F0E00
003F0600
003F0600
003F0000
003F0000
003F01C0
003F01C0
003F01C0
003F03C0
003F07C0
007FFFC0
00FFFFC0
ENDCHAR
STARTCHAR Etatonos
ENCODING 905
SWIDTH 860 0
DWIDTH 33 0
BBX 32 26 -1 0
BITMAP
3CFFC3FF
3C7F81FE
7C3F00FC
783F00FC
703F00FC
703F00FC
603F00FC
E03F00FC
C03F00FC
403F00FC
003F00FC
003F00FC
003FFFFC
003FFFFC
003F00FC
003F00FC
003F00FC
003F00FC
003F00FC
003F00FC
003F00FC
003F00FC
003F00FC
003F00FC
007F80FE
00FFC3FF
ENDCHAR
STARTCHAR Iotatonos
ENCODING 906
SWIDTH 489 0
DWIDTH 19 0
BBX 18 26 -1 0
BITMAP
3CFFC0
3C3F80
7C3F80
783F00
703F00
703F00
603F00
E03F00
C03F00
403F00
003F00
003F00
003F00
003F00
003F00
003F00
003F00
003F00
003F00
003F00
003F00
003F00
003F00
003F00
003F80
00FFC0
ENDCHAR
STARTCHAR Omicrontonos
ENCODING 908
SWIDTH 774 0
DWIDTH 29 0
BBX 28 26 -1 0
BITMAP
3C03F800
3C1FFE00
7C3E1F80
787C0F80
70F807C0
70F807E0
61F807E0
E1F003E0
C3F003F0
43F003F0
03F003F0
03F003F0
03F003F0
03F003F0
03F003F0
03F003F0
03F003F0
03F003F0
01F003E0
01F807E0
01F807E0
00F807C0
00FC0F80
007E1F00
001FFE00
0007F000
ENDCHAR
ENDFONT
